{
	"asset":{
		"generator":"Khronos glTF Blender I/O v4.3.47",
		"version":"2.0"
	},
	"scene":0,
	"scenes":[
		{
			"name":"Scene",
			"nodes":[
				5
			]
		}
	],
	"nodes":[
		{
			"mesh":0,
			"name":"winder_chassis002"
		},
		{
			"mesh":1,
			"name":"winder_chassis003"
		},
		{
			"mesh":2,
			"name":"winder_chassis004"
		},
		{
			"mesh":3,
			"name":"winder_chassis005"
		},
		{
			"mesh":4,
			"name":"winder_chassis1"
		},
		{
			"children":[
				0,
				1,
				2,
				3,
				4
			],
			"name":"Unnamed1"
		}
	],
	"materials":[
		{
			"alphaMode":"BLEND",
			"doubleSided":true,
			"name":"mat_0.020",
			"pbrMetallicRoughness":{
				"baseColorFactor":[
					0.6038273572921753,
					0.6038273572921753,
					0.6038273572921753,
					0.5
				],
				"metallicFactor":0
			}
		}
	],
	"meshes":[
		{
			"name":"winder_chassis002.002",
			"primitives":[
				{
					"attributes":{
						"POSITION":0,
						"NORMAL":1
					},
					"indices":2,
					"material":0
				}
			]
		},
		{
			"name":"winder_chassis003.002",
			"primitives":[
				{
					"attributes":{
						"POSITION":3,
						"NORMAL":4
					},
					"indices":5,
					"material":0
				}
			]
		},
		{
			"name":"winder_chassis004.002",
			"primitives":[
				{
					"attributes":{
						"POSITION":6,
						"NORMAL":7
					},
					"indices":8,
					"material":0
				}
			]
		},
		{
			"name":"winder_chassis005.002",
			"primitives":[
				{
					"attributes":{
						"POSITION":9,
						"NORMAL":10
					},
					"indices":8,
					"material":0
				}
			]
		},
		{
			"name":"winder_chassis1.002",
			"primitives":[
				{
					"attributes":{
						"POSITION":11,
						"NORMAL":12
					},
					"indices":13,
					"material":0
				}
			]
		}
	],
	"accessors":[
		{
			"bufferView":0,
			"componentType":5126,
			"count":96,
			"max":[
				0.1450749635696411,
				0.07489961385726929,
				0.2416650801897049
			],
			"min":[
				-0.0803980827331543,
				0,
				0.016289860010147095
			],
			"type":"VEC3"
		},
		{
			"bufferView":1,
			"componentType":5126,
			"count":96,
			"type":"VEC3"
		},
		{
			"bufferView":2,
			"componentType":5123,
			"count":180,
			"type":"SCALAR"
		},
		{
			"bufferView":3,
			"componentType":5126,
			"count":96,
			"max":[
				0.08882689476013184,
				1.69480562210083,
				-0.23378610610961914
			],
			"min":[
				-0.13664603233337402,
				1.469430685043335,
				-0.30868589878082275
			],
			"type":"VEC3"
		},
		{
			"bufferView":4,
			"componentType":5126,
			"count":96,
			"type":"VEC3"
		},
		{
			"bufferView":5,
			"componentType":5123,
			"count":180,
			"type":"SCALAR"
		},
		{
			"bufferView":6,
			"componentType":5126,
			"count":24,
			"max":[
				0.15664589405059814,
				0.09989961981773376,
				0.30868586897850037
			],
			"min":[
				-0.14335405826568604,
				0.0748995840549469,
				-0.05131402611732483
			],
			"type":"VEC3"
		},
		{
			"bufferView":7,
			"componentType":5126,
			"count":24,
			"type":"VEC3"
		},
		{
			"bufferView":8,
			"componentType":5123,
			"count":36,
			"type":"SCALAR"
		},
		{
			"bufferView":9,
			"componentType":5126,
			"count":24,
			"max":[
				0.14335393905639648,
				1.69480562210083,
				-0.20878612995147705
			],
			"min":[
				-0.1566460132598877,
				1.3348057270050049,
				-0.23378616571426392
			],
			"type":"VEC3"
		},
		{
			"bufferView":10,
			"componentType":5126,
			"count":24,
			"type":"VEC3"
		},
		{
			"bufferView":11,
			"componentType":5126,
			"count":2710,
			"max":[
				0.11387693881988525,
				1.693420648574829,
				0.2757705748081207
			],
			"min":[
				-0.09745800495147705,
				0.09989959001541138,
				-0.21482956409454346
			],
			"type":"VEC3"
		},
		{
			"bufferView":12,
			"componentType":5126,
			"count":2710,
			"type":"VEC3"
		},
		{
			"bufferView":13,
			"componentType":5123,
			"count":4512,
			"type":"SCALAR"
		}
	],
	"bufferViews":[
		{
			"buffer":0,
			"byteLength":1152,
			"byteOffset":0,
			"target":34962
		},
		{
			"buffer":0,
			"byteLength":1152,
			"byteOffset":1152,
			"target":34962
		},
		{
			"buffer":0,
			"byteLength":360,
			"byteOffset":2304,
			"target":34963
		},
		{
			"buffer":0,
			"byteLength":1152,
			"byteOffset":2664,
			"target":34962
		},
		{
			"buffer":0,
			"byteLength":1152,
			"byteOffset":3816,
			"target":34962
		},
		{
			"buffer":0,
			"byteLength":360,
			"byteOffset":4968,
			"target":34963
		},
		{
			"buffer":0,
			"byteLength":288,
			"byteOffset":5328,
			"target":34962
		},
		{
			"buffer":0,
			"byteLength":288,
			"byteOffset":5616,
			"target":34962
		},
		{
			"buffer":0,
			"byteLength":72,
			"byteOffset":5904,
			"target":34963
		},
		{
			"buffer":0,
			"byteLength":288,
			"byteOffset":5976,
			"target":34962
		},
		{
			"buffer":0,
			"byteLength":288,
			"byteOffset":6264,
			"target":34962
		},
		{
			"buffer":0,
			"byteLength":32520,
			"byteOffset":6552,
			"target":34962
		},
		{
			"buffer":0,
			"byteLength":32520,
			"byteOffset":39072,
			"target":34962
		},
		{
			"buffer":0,
			"byteLength":9024,
			"byteOffset":71592,
			"target":34963
		}
	],
	"buffers":[
		{
			"byteLength":80616,
			"uri":"Roth_1.bin"
		}
	]
}
