{"accessors":[{"bufferView":0,"byteOffset":0,"componentType":5126,"count":18,"max":[-0.065,0.183592177662953,0.0553564],"min":[-0.065,3.05199999672823e-9,-0.041191279000000007],"type":"VEC3"},{"bufferView":0,"byteOffset":216,"componentType":5126,"count":4,"max":[-0.045,3.05200020989105e-9,0.0553564],"min":[-0.065,3.05199999672823e-9,-0.041191279000000007],"type":"VEC3"},{"bufferView":0,"byteOffset":264,"componentType":5126,"count":4,"max":[-0.045,0.071856725,0.0553564],"min":[-0.065,3.05200020989105e-9,0.0553564],"type":"VEC3"},{"bufferView":0,"byteOffset":312,"componentType":5126,"count":4,"max":[-0.045,0.17033704717209,0.0553564],"min":[-0.065,0.071856725,0.0202512420998586],"type":"VEC3"},{"bufferView":0,"byteOffset":360,"componentType":5126,"count":14,"max":[-0.045,0.183592177662999,0.0202512421001823],"min":[-0.065,0.17033704717120699,0.000328246758975784],"type":"VEC3"},{"bufferView":0,"byteOffset":528,"componentType":5126,"count":4,"max":[-0.045,0.183592177662999,0.000328246760705461],"min":[-0.065,0.18353668717260503,-0.00069392752914941],"type":"VEC3"},{"bufferView":0,"byteOffset":576,"componentType":5126,"count":14,"max":[-0.045,0.18353668717282,-0.00069392752601454],"min":[-0.065,0.16804253162139302,-0.019102390468369],"type":"VEC3"},{"bufferView":0,"byteOffset":744,"componentType":5126,"count":4,"max":[-0.045,0.168042531622805,-0.0191023904679532],"min":[-0.065,0.071856725,-0.041191279000000007],"type":"VEC3"},{"bufferView":0,"byteOffset":792,"componentType":5126,"count":4,"max":[-0.045,0.071856725,-0.041191279000000007],"min":[-0.065,3.05199999672823e-9,-0.041191279000000007],"type":"VEC3"},{"bufferView":0,"byteOffset":840,"componentType":5126,"count":18,"max":[-0.045,0.183592177662999,0.0553564],"min":[-0.045,3.05199999672823e-9,-0.041191279000000007],"type":"VEC3"},{"bufferView":1,"byteOffset":0,"componentType":5126,"count":18,"type":"VEC3"},{"bufferView":1,"byteOffset":216,"componentType":5126,"count":4,"type":"VEC3"},{"bufferView":1,"byteOffset":264,"componentType":5126,"count":4,"type":"VEC3"},{"bufferView":1,"byteOffset":312,"componentType":5126,"count":4,"type":"VEC3"},{"bufferView":1,"byteOffset":360,"componentType":5126,"count":14,"type":"VEC3"},{"bufferView":1,"byteOffset":528,"componentType":5126,"count":4,"type":"VEC3"},{"bufferView":1,"byteOffset":576,"componentType":5126,"count":14,"type":"VEC3"},{"bufferView":1,"byteOffset":744,"componentType":5126,"count":4,"type":"VEC3"},{"bufferView":1,"byteOffset":792,"componentType":5126,"count":4,"type":"VEC3"},{"bufferView":1,"byteOffset":840,"componentType":5126,"count":18,"type":"VEC3"},{"bufferView":2,"byteOffset":0,"componentType":5123,"count":48,"type":"SCALAR"},{"bufferView":2,"byteOffset":96,"componentType":5123,"count":6,"type":"SCALAR"},{"bufferView":2,"byteOffset":108,"componentType":5123,"count":6,"type":"SCALAR"},{"bufferView":2,"byteOffset":120,"componentType":5123,"count":6,"type":"SCALAR"},{"bufferView":2,"byteOffset":132,"componentType":5123,"count":36,"type":"SCALAR"},{"bufferView":2,"byteOffset":204,"componentType":5123,"count":6,"type":"SCALAR"},{"bufferView":2,"byteOffset":216,"componentType":5123,"count":36,"type":"SCALAR"},{"bufferView":2,"byteOffset":288,"componentType":5123,"count":6,"type":"SCALAR"},{"bufferView":2,"byteOffset":300,"componentType":5123,"count":6,"type":"SCALAR"},{"bufferView":2,"byteOffset":312,"componentType":5123,"count":48,"type":"SCALAR"}],"asset":{"generator":"Open CASCADE Technology 7.6 [dev.opencascade.org]","version":"2.0"},"bufferViews":[{"buffer":0,"byteLength":1056,"byteOffset":0,"byteStride":12,"target":34962},{"buffer":0,"byteLength":1056,"byteOffset":1056,"byteStride":12,"target":34962},{"buffer":0,"byteLength":408,"byteOffset":2112,"target":34963}],"buffers":[{"byteLength":2520,"uri":"Roth_6.bin"}],"materials":[{"name":"mat_0","pbrMetallicRoughness":{"baseColorFactor":[0.0,0.0,1.0,0.699999988079071],"metallicFactor":0.0},"doubleSided":true,"alphaMode":"BLEND"}],"meshes":[{"name":"Eye_Con","primitives":[{"attributes":{"NORMAL":10,"POSITION":0},"indices":20,"material":0,"mode":4},{"attributes":{"NORMAL":11,"POSITION":1},"indices":21,"material":0,"mode":4},{"attributes":{"NORMAL":12,"POSITION":2},"indices":22,"material":0,"mode":4},{"attributes":{"NORMAL":13,"POSITION":3},"indices":23,"material":0,"mode":4},{"attributes":{"NORMAL":14,"POSITION":4},"indices":24,"material":0,"mode":4},{"attributes":{"NORMAL":15,"POSITION":5},"indices":25,"material":0,"mode":4},{"attributes":{"NORMAL":16,"POSITION":6},"indices":26,"material":0,"mode":4},{"attributes":{"NORMAL":17,"POSITION":7},"indices":27,"material":0,"mode":4},{"attributes":{"NORMAL":18,"POSITION":8},"indices":28,"material":0,"mode":4},{"attributes":{"NORMAL":19,"POSITION":9},"indices":29,"material":0,"mode":4}]}],"nodes":[{"mesh":0,"name":"Eye_Con"}],"scene":0,"scenes":[{"nodes":[0]}]}