{"accessors":[{"bufferView":0,"byteOffset":0,"componentType":5126,"count":8,"max":[0.000138272225856781,0.00011246752738952701,0.00011300003528595],"min":[-0.000138272225856781,0.0000749000310897827,0.00011300003528595],"type":"VEC3"},{"bufferView":0,"byteOffset":96,"componentType":5126,"count":8,"max":[0.000138272225856781,0.00015003502368927,0.00011300003528595],"min":[-0.000138272225856781,0.000112467527389526,0.00011300003528595],"type":"VEC3"},{"bufferView":0,"byteOffset":192,"componentType":5126,"count":4,"max":[0.00011338322520256,0.000108710777759552,0.00013300003528595],"min":[-0.00011338322520256,0.000108710777759552,0.00011300003528595],"type":"VEC3"},{"bufferView":0,"byteOffset":240,"componentType":5126,"count":4,"max":[-0.00011338322520256,0.000108710777759552,0.00013300003528595],"min":[-0.00011338322520256,0.00010495402812957801,0.00011300003528595],"type":"VEC3"},{"bufferView":0,"byteOffset":288,"componentType":5126,"count":4,"max":[-0.00011338322520256,0.00011246752738952701,0.00013300003528595],"min":[-0.000138272225856781,0.00010495402812957801,0.00011300003528595],"type":"VEC3"},{"bufferView":0,"byteOffset":336,"componentType":5126,"count":4,"max":[-0.00011338322520256,0.00011998102664947501,0.00013300003528595],"min":[-0.000138272225856781,0.00011246752738952701,0.00011300003528595],"type":"VEC3"},{"bufferView":0,"byteOffset":384,"componentType":5126,"count":4,"max":[-0.00011338322520256,0.00011998102664947501,0.00013300003528595],"min":[-0.00011338322520256,0.000116224277019501,0.00011300003528595],"type":"VEC3"},{"bufferView":0,"byteOffset":432,"componentType":5126,"count":4,"max":[0.00011338322520256,0.000116224277019501,0.00013300003528595],"min":[-0.00011338322520256,0.000116224277019501,0.00011300003528595],"type":"VEC3"},{"bufferView":0,"byteOffset":480,"componentType":5126,"count":4,"max":[0.00011338322520256,0.00011998102664947501,0.00013300003528595],"min":[0.00011338322520256,0.000116224277019501,0.00011300003528595],"type":"VEC3"},{"bufferView":0,"byteOffset":528,"componentType":5126,"count":4,"max":[0.000138272225856781,0.00011998102664947501,0.00013300003528595],"min":[0.00011338322520256,0.000112467527389526,0.00011300003528595],"type":"VEC3"},{"bufferView":0,"byteOffset":576,"componentType":5126,"count":4,"max":[0.000138272225856781,0.000112467527389526,0.00013300003528595],"min":[0.00011338322520256,0.00010495402812957801,0.00011300003528595],"type":"VEC3"},{"bufferView":0,"byteOffset":624,"componentType":5126,"count":4,"max":[0.00011338322520256,0.000108710777759552,0.00013300003528595],"min":[0.00011338322520256,0.00010495402812957801,0.00011300003528595],"type":"VEC3"},{"bufferView":0,"byteOffset":672,"componentType":5126,"count":5,"max":[-0.000138272225856781,0.00015003502368927,0.00011300003528595],"min":[-0.000138272225856781,0.0000749000310897827,-0.000112999975681305],"type":"VEC3"},{"bufferView":0,"byteOffset":732,"componentType":5126,"count":8,"max":[0.000138272225856781,0.0000749000310897827,0.00011300003528595],"min":[-0.000138272225856781,0.0000749000310897827,-0.000112999975681305],"type":"VEC3"},{"bufferView":0,"byteOffset":828,"componentType":5126,"count":19,"max":[0.000138272225856781,0.000224935054779053,0.00011300003528595],"min":[0.000138272225856781,0.0000749000310897827,-0.000112999975681305],"type":"VEC3"},{"bufferView":0,"byteOffset":1056,"componentType":5126,"count":6,"max":[0.000138272225856781,0.00015003502368927,0.00011300003528595],"min":[-0.000138272225856781,0.00015003502368927,-0.000112999975681305],"type":"VEC3"},{"bufferView":0,"byteOffset":1128,"componentType":5126,"count":10,"max":[0.000138272225856781,0.00011998102664947501,0.00013300003528595],"min":[-0.000138272225856781,0.00010495402812957801,0.00013300003528595],"type":"VEC3"},{"bufferView":0,"byteOffset":1248,"componentType":5126,"count":22,"max":[0.000138272225856781,0.000224935054779053,-0.000112999975681305],"min":[-0.000138272225856781,-1.38777878078145e-20,-0.000112999975681305],"type":"VEC3"},{"bufferView":0,"byteOffset":1512,"componentType":5126,"count":4,"max":[-0.00011827218532562301,0.0000749000310897827,0.000112473368644714],"min":[-0.00011827218532562301,-1.38777878078145e-20,-0.000112999975681305],"type":"VEC3"},{"bufferView":0,"byteOffset":1560,"componentType":5126,"count":16,"max":[0.000107103049755096,0.0000749000310897827,0.000112473368644714],"min":[-0.00011827218532562301,0.0,0.000112473368644714],"type":"VEC3"},{"bufferView":0,"byteOffset":1752,"componentType":5126,"count":4,"max":[0.000107103049755096,0.0000749000310897827,0.000112473368644714],"min":[0.000107103049755096,0.0,-0.000112999975681305],"type":"VEC3"},{"bufferView":0,"byteOffset":1800,"componentType":5126,"count":4,"max":[0.000138272225856781,0.000193822026252747,-0.0000976359248161316],"min":[-0.000138200939655304,0.000170392155647278,-0.0000976359248161316],"type":"VEC3"},{"bufferView":0,"byteOffset":1848,"componentType":5126,"count":4,"max":[0.000138272225856781,0.000170392155647278,-0.000054616630077361999],"min":[-0.000138200939655304,0.000170392155647278,-0.0000976359248161316],"type":"VEC3"},{"bufferView":0,"byteOffset":1896,"componentType":5126,"count":4,"max":[0.000138272225856781,0.000193822026252747,-0.000054616630077361999],"min":[-0.000138200939655304,0.000170392155647278,-0.000054616630077362107],"type":"VEC3"},{"bufferView":0,"byteOffset":1944,"componentType":5126,"count":4,"max":[0.000138272225856781,0.000193822026252747,0.0000539919137954712],"min":[-0.000138200939655304,0.000193822026252746,-0.000054616630077361999],"type":"VEC3"},{"bufferView":0,"byteOffset":1992,"componentType":5126,"count":4,"max":[0.000138272225856781,0.000193822026252747,0.0000539919137954712],"min":[-0.000138200939655304,0.000170392155647278,0.0000539919137954712],"type":"VEC3"},{"bufferView":0,"byteOffset":2040,"componentType":5126,"count":4,"max":[0.000138272225856781,0.000170392155647278,0.0000970112085342408],"min":[-0.000138200939655304,0.000170392155647278,0.0000539919137954712],"type":"VEC3"},{"bufferView":0,"byteOffset":2088,"componentType":5126,"count":4,"max":[0.000138272225856781,0.000193822026252747,0.0000970112085342408],"min":[-0.000138200939655304,0.000170392155647278,0.0000970112085342407],"type":"VEC3"},{"bufferView":0,"byteOffset":2136,"componentType":5126,"count":4,"max":[0.000138272225856781,0.000209140062332153,0.0000970112085342408],"min":[-0.000138200939655304,0.000193822026252747,0.0000704811215400696],"type":"VEC3"},{"bufferView":0,"byteOffset":2184,"componentType":5126,"count":4,"max":[0.000138272225856781,0.000224935054779053,0.000112375259399414],"min":[-0.000138200939655304,0.000224935054779053,0.0000704811215400696],"type":"VEC3"},{"bufferView":0,"byteOffset":2232,"componentType":5126,"count":4,"max":[0.000138272225856781,0.000224935054779053,0.000112375259399414],"min":[-0.000138200939655304,0.00015003502368927,0.000112375259399414],"type":"VEC3"},{"bufferView":0,"byteOffset":2280,"componentType":5126,"count":4,"max":[0.000138272225856781,0.000224935054779053,-0.0000711058378219604],"min":[-0.000138200939655304,0.000224935054779053,-0.000112999975681305],"type":"VEC3"},{"bufferView":0,"byteOffset":2328,"componentType":5126,"count":4,"max":[0.000138272225856781,0.000209140062332153,-0.0000711058378219604],"min":[-0.000138200939655304,0.000193822026252747,-0.0000976359248161316],"type":"VEC3"},{"bufferView":0,"byteOffset":2376,"componentType":5126,"count":16,"max":[-0.000138200939655304,0.000224935054779053,0.000112375259399414],"min":[-0.000138200939655304,0.00015003502368927,-0.000112999975681305],"type":"VEC3"},{"bufferView":0,"byteOffset":2568,"componentType":5126,"count":4,"max":[0.000107103049755096,0.0,0.000112473368644714],"min":[0.0000652089118957519,0.0,-0.000112999975681305],"type":"VEC3"},{"bufferView":0,"byteOffset":2616,"componentType":5126,"count":4,"max":[0.0000917389988899231,0.0000311120748519897,0.000112473368644714],"min":[0.0000652089118957519,0.000015795111656189,-0.000112999975681305],"type":"VEC3"},{"bufferView":0,"byteOffset":2664,"componentType":5126,"count":4,"max":[0.0000917389988899231,0.000054542064666748,0.000112473368644714],"min":[0.0000917389988899231,0.0000311120748519897,-0.000112999975681305],"type":"VEC3"},{"bufferView":0,"byteOffset":2712,"componentType":5126,"count":4,"max":[0.0000917389988899231,0.000054542064666748,0.000112473368644714],"min":[0.000048719763755798299,0.000054542064666748,-0.000112999975681305],"type":"VEC3"},{"bufferView":0,"byteOffset":2760,"componentType":5126,"count":4,"max":[0.000048719763755798407,0.000054542064666748,0.000112473368644714],"min":[0.000048719763755798299,0.0000311120748519897,-0.000112999975681305],"type":"VEC3"},{"bufferView":0,"byteOffset":2808,"componentType":5126,"count":4,"max":[0.000048719763755798407,0.0000311120748519897,0.000112473368644714],"min":[-0.0000598888993263245,0.0000311120748519897,-0.000112999975681305],"type":"VEC3"},{"bufferView":0,"byteOffset":2856,"componentType":5126,"count":4,"max":[-0.0000598888993263244,0.000054542064666748,0.000112473368644714],"min":[-0.0000598888993263245,0.0000311120748519897,-0.000112999975681305],"type":"VEC3"},{"bufferView":0,"byteOffset":2904,"componentType":5126,"count":4,"max":[-0.0000598888993263244,0.000054542064666748,0.000112473368644714],"min":[-0.000102908194065094,0.000054542064666748,-0.000112999975681305],"type":"VEC3"},{"bufferView":0,"byteOffset":2952,"componentType":5126,"count":4,"max":[-0.000102908194065094,0.000054542064666748,0.000112473368644714],"min":[-0.000102908194065094,0.0000311120748519897,-0.000112999975681305],"type":"VEC3"},{"bufferView":0,"byteOffset":3000,"componentType":5126,"count":4,"max":[-0.0000763781070709228,0.0000311120748519897,0.000112473368644714],"min":[-0.000102908194065094,0.000015795111656189,-0.000112999975681305],"type":"VEC3"},{"bufferView":0,"byteOffset":3048,"componentType":5126,"count":4,"max":[-0.0000763781070709228,0.0,0.000112473368644714],"min":[-0.00011827218532562301,-1.38777878078145e-20,-0.000112999975681305],"type":"VEC3"},{"bufferView":0,"byteOffset":3096,"componentType":5126,"count":4,"max":[0.000138272225856781,0.000224935054779053,0.0000704811215400696],"min":[-0.000138200939655304,0.000209140062332153,0.0000704811215400696],"type":"VEC3"},{"bufferView":0,"byteOffset":3144,"componentType":5126,"count":4,"max":[0.000138272225856781,0.000224935054779053,-0.0000711058378219604],"min":[-0.000138200939655304,0.000209140062332153,-0.0000711058378219604],"type":"VEC3"},{"bufferView":0,"byteOffset":3192,"componentType":5126,"count":4,"max":[0.000065208911895752,0.000015795111656189,0.000112473368644714],"min":[0.0000652089118957519,0.0,-0.000112999975681305],"type":"VEC3"},{"bufferView":0,"byteOffset":3240,"componentType":5126,"count":4,"max":[-0.0000763781070709228,0.000015795111656189,0.000112473368644714],"min":[-0.0000763781070709229,0.0,-0.000112999975681305],"type":"VEC3"},{"bufferView":0,"byteOffset":3288,"componentType":5126,"count":4,"max":[-0.00000782761543671521,0.000168912757470563,0.000132375],"min":[-0.0000180231689609135,0.000152204319768699,0.00011237500000000001],"type":"VEC3"},{"bufferView":0,"byteOffset":3336,"componentType":5126,"count":4,"max":[-0.00000782761543671521,0.00018215639335533203,0.000132375],"min":[-0.000017252569952114104,0.000168912757470563,0.00011237500000000001],"type":"VEC3"},{"bufferView":0,"byteOffset":3384,"componentType":5126,"count":8,"max":[-0.000017252569952114104,0.00018610359890888,0.000132375],"min":[-0.0000202351879549615,0.00018215639335533203,0.00011237500000000001],"type":"VEC3"},{"bufferView":0,"byteOffset":3480,"componentType":5126,"count":8,"max":[-0.0000202351879549615,0.000187700241226063,0.000132375],"min":[-0.0000217021175475466,0.00018610359890888,0.00011237500000000001],"type":"VEC3"},{"bufferView":0,"byteOffset":3576,"componentType":5126,"count":8,"max":[-0.0000217021175475466,0.000189059213299159,0.000132375],"min":[-0.000023376254578050903,0.000187700241226063,0.00011237500000000001],"type":"VEC3"},{"bufferView":0,"byteOffset":3672,"componentType":5126,"count":8,"max":[-0.000023376254578050903,0.00019008727867106701,0.000132375],"min":[-0.0000251706397208128,0.000189059213299159,0.00011237500000000001],"type":"VEC3"},{"bufferView":0,"byteOffset":3768,"componentType":5126,"count":8,"max":[-0.0000251706397208128,0.000190516676048338,0.000132375],"min":[-0.0000264687661086727,0.00019008727867106701,0.00011237500000000001],"type":"VEC3"},{"bufferView":0,"byteOffset":3864,"componentType":5126,"count":8,"max":[-0.0000264687661086727,0.00019078015635093202,0.000132375],"min":[-0.0000284291488984787,0.000190516676048338,0.00011237500000000001],"type":"VEC3"},{"bufferView":0,"byteOffset":3960,"componentType":5126,"count":4,"max":[-0.0000284291488984787,0.00019220477217326602,0.000132375],"min":[-0.0000284291488984787,0.00019078015635093202,0.00011237500000000001],"type":"VEC3"},{"bufferView":0,"byteOffset":4008,"componentType":5126,"count":4,"max":[-0.000011576430818445101,0.00019220477217326602,0.000132375],"min":[-0.0000284291488984787,0.00019220477217326602,0.00011237500000000001],"type":"VEC3"},{"bufferView":0,"byteOffset":4056,"componentType":5126,"count":4,"max":[-0.000011576430818445101,0.00019220477217326602,0.000132375],"min":[-0.000011576430818445101,0.00019078015635093202,0.00011237500000000001],"type":"VEC3"},{"bufferView":0,"byteOffset":4104,"componentType":5126,"count":8,"max":[-0.000011576430818445101,0.00019078015635093202,0.000132375],"min":[-0.0000140751936277159,0.000190624211246445,0.00011237500000000001],"type":"VEC3"},{"bufferView":0,"byteOffset":4200,"componentType":5126,"count":8,"max":[-0.0000140751936277159,0.000190624211246445,0.000132375],"min":[-0.000014905013096362701,0.00019041449398858102,0.00011237500000000001],"type":"VEC3"},{"bufferView":0,"byteOffset":4296,"componentType":5126,"count":8,"max":[-0.000014905013096362701,0.00019041449398858102,0.000132375],"min":[-0.0000156216335488471,0.000189979075877874,0.00011237500000000001],"type":"VEC3"},{"bufferView":0,"byteOffset":4392,"componentType":5126,"count":8,"max":[-0.0000156216335488471,0.000189979075877874,0.000132375],"min":[-0.000016236404827244504,0.00018927864603519802,0.00011237500000000001],"type":"VEC3"},{"bufferView":0,"byteOffset":4488,"componentType":5126,"count":4,"max":[-0.000016236404827244504,0.00018927864603519802,0.000132375],"min":[-0.0000165517343839699,0.000188614500486382,0.00011237500000000001],"type":"VEC3"},{"bufferView":0,"byteOffset":4536,"componentType":5126,"count":4,"max":[-0.0000165517343839699,0.000188614500486382,0.000132375],"min":[-0.000016656844236211703,0.00018785403021286402,0.00011237500000000001],"type":"VEC3"},{"bufferView":0,"byteOffset":4584,"componentType":5126,"count":4,"max":[-0.0000165736451218707,0.00018785403021286402,0.000132375],"min":[-0.000016656844236211703,0.000187055370775953,0.00011237500000000001],"type":"VEC3"},{"bufferView":0,"byteOffset":4632,"componentType":5126,"count":4,"max":[-0.0000163240477788479,0.000187055370775953,0.000132375],"min":[-0.0000165736451218707,0.000186275831708883,0.00011237500000000001],"type":"VEC3"},{"bufferView":0,"byteOffset":4680,"componentType":5126,"count":8,"max":[-0.0000159340177217979,0.000186275831708883,0.000132375],"min":[-0.0000163240477788479,0.000185538016893439,0.00011237500000000001],"type":"VEC3"},{"bufferView":0,"byteOffset":4776,"componentType":5126,"count":8,"max":[-0.0000145195070849439,0.000185538016893439,0.000132375],"min":[-0.0000159340177217979,0.000183426806773098,0.00011237500000000001],"type":"VEC3"},{"bufferView":0,"byteOffset":4872,"componentType":5126,"count":4,"max":[-0.000006075991409477851,0.000183426806773099,0.000132375],"min":[-0.0000145195070849439,0.000171684681204064,0.00011237500000000001],"type":"VEC3"},{"bufferView":0,"byteOffset":4920,"componentType":5126,"count":4,"max":[0.0000012116259546532802,0.000183657903671066,0.000132375],"min":[-0.000006075991409477851,0.000171684681204064,0.00011237500000000001],"type":"VEC3"},{"bufferView":0,"byteOffset":4968,"componentType":5126,"count":8,"max":[0.00000200323766219857,0.000185049541980862,0.000132375],"min":[0.0000012116259546532802,0.000183657903671066,0.00011237500000000001],"type":"VEC3"},{"bufferView":0,"byteOffset":5064,"componentType":5126,"count":8,"max":[0.0000024729441815549399,0.000186064061788707,0.000132375],"min":[0.00000200323766219857,0.000185049541980862,0.00011237500000000001],"type":"VEC3"},{"bufferView":0,"byteOffset":5160,"componentType":5126,"count":8,"max":[0.00000281101012499738,0.000187119510540127,0.000132375],"min":[0.0000024729441815549399,0.000186064061788707,0.00011237500000000001],"type":"VEC3"},{"bufferView":0,"byteOffset":5256,"componentType":5126,"count":8,"max":[0.0000028933835905221605,0.000187815582764299,0.000132375],"min":[0.00000281101012499738,0.000187119510540127,0.00011237500000000001],"type":"VEC3"},{"bufferView":0,"byteOffset":5352,"componentType":5126,"count":4,"max":[0.0000028933835905221605,0.000188025255301026,0.000132375],"min":[0.00000288343845030153,0.000187815582764299,0.00011237500000000001],"type":"VEC3"},{"bufferView":0,"byteOffset":5400,"componentType":5126,"count":8,"max":[0.00000288343845030153,0.000188884322919075,0.000132375],"min":[0.0000026065196568655,0.000188025255301026,0.00011237500000000001],"type":"VEC3"},{"bufferView":0,"byteOffset":5496,"componentType":5126,"count":8,"max":[0.0000026065196568655,0.00018977928727969802,0.000132375],"min":[0.00000185985491945581,0.000188884322919075,0.00011237500000000001],"type":"VEC3"},{"bufferView":0,"byteOffset":5592,"componentType":5126,"count":8,"max":[0.00000185985491945581,0.000190378608730186,0.000132375],"min":[7.13741331894423e-7,0.00018977928727969802,0.00011237500000000001],"type":"VEC3"},{"bufferView":0,"byteOffset":5688,"componentType":5126,"count":8,"max":[7.13741331894423e-7,0.00019078015635093202,0.000132375],"min":[-0.0000019766034138775299,0.000190378608730186,0.00011237500000000001],"type":"VEC3"},{"bufferView":0,"byteOffset":5784,"componentType":5126,"count":4,"max":[-0.0000019766034138775299,0.00019220477217326602,0.000132375],"min":[-0.0000019766034138775299,0.00019078015635093202,0.00011237500000000001],"type":"VEC3"},{"bufferView":0,"byteOffset":5832,"componentType":5126,"count":4,"max":[0.0000199912547725877,0.00019220477217326602,0.000132375],"min":[-0.0000019766034138775299,0.00019220477217326602,0.00011237500000000001],"type":"VEC3"},{"bufferView":0,"byteOffset":5880,"componentType":5126,"count":4,"max":[0.0000199912547725877,0.00019220477217326602,0.000132375],"min":[0.0000199912547725877,0.00019078015635093202,0.00011237500000000001],"type":"VEC3"},{"bufferView":0,"byteOffset":5928,"componentType":5126,"count":8,"max":[0.0000199912547725877,0.00019078015635093202,0.000132375],"min":[0.000016683084307069999,0.000190192392439234,0.00011237500000000001],"type":"VEC3"},{"bufferView":0,"byteOffset":6024,"componentType":5126,"count":8,"max":[0.000016683084307069999,0.000190192392439234,0.000132375],"min":[0.0000138599495412864,0.00018875898797716202,0.00011237500000000001],"type":"VEC3"},{"bufferView":0,"byteOffset":6120,"componentType":5126,"count":8,"max":[0.0000138599495412864,0.00018875898797716202,0.000132375],"min":[0.0000115194761811273,0.000186550664383032,0.00011237500000000001],"type":"VEC3"},{"bufferView":0,"byteOffset":6216,"componentType":5126,"count":8,"max":[0.0000115194761811273,0.000186550664383032,0.000132375],"min":[0.0000073780712923863009,0.000180731777532998,0.00011237500000000001],"type":"VEC3"},{"bufferView":0,"byteOffset":6312,"componentType":5126,"count":4,"max":[0.0000073780712923863009,0.000180731777532998,0.000132375],"min":[-0.0000019766034138775299,0.00016567863953739702,0.00011237500000000001],"type":"VEC3"},{"bufferView":0,"byteOffset":6360,"componentType":5126,"count":4,"max":[0.0000092351156389187,0.00016567863953739702,0.000132375],"min":[-0.0000019766034138775299,0.00015012527371506302,0.00011237500000000001],"type":"VEC3"},{"bufferView":0,"byteOffset":6408,"componentType":5126,"count":8,"max":[0.000011897958500779499,0.00015012527371506302,0.000132375],"min":[0.0000092351156389187,0.00014675039038049002,0.00011237500000000001],"type":"VEC3"},{"bufferView":0,"byteOffset":6504,"componentType":5126,"count":8,"max":[0.0000137198029370546,0.00014675039038049002,0.000132375],"min":[0.000011897958500779499,0.00014492807139314902,0.00011237500000000001],"type":"VEC3"},{"bufferView":0,"byteOffset":6600,"componentType":5126,"count":8,"max":[0.0000157764012417899,0.00014492807139314902,0.000132375],"min":[0.0000137198029370546,0.000143380965650464,0.00011237500000000001],"type":"VEC3"},{"bufferView":0,"byteOffset":6696,"componentType":5126,"count":8,"max":[0.0000178543310390866,0.000143380965650464,0.000132375],"min":[0.0000157764012417899,0.00014223283544416502,0.00011237500000000001],"type":"VEC3"},{"bufferView":0,"byteOffset":6792,"componentType":5126,"count":8,"max":[0.000019186971869033499,0.00014223283544416502,0.000132375],"min":[0.0000178543310390866,0.00014174635144163601,0.00011237500000000001],"type":"VEC3"},{"bufferView":0,"byteOffset":6888,"componentType":5126,"count":8,"max":[0.0000209375535060889,0.00014174635144163601,0.000132375],"min":[0.000019186971869033499,0.000141424616226063,0.00011237500000000001],"type":"VEC3"},{"bufferView":0,"byteOffset":6984,"componentType":5126,"count":4,"max":[0.0000209375535060889,0.000141424616226063,0.000132375],"min":[0.0000209375535060889,0.00014000000000000001,0.00011237500000000001],"type":"VEC3"},{"bufferView":0,"byteOffset":7032,"componentType":5126,"count":4,"max":[0.0000209375535060889,0.00014000000000000001,0.000132375],"min":[0.00000408483542605534,0.00014000000000000001,0.00011237500000000001],"type":"VEC3"},{"bufferView":0,"byteOffset":7080,"componentType":5126,"count":4,"max":[0.00000408483542605534,0.000141424616226063,0.000132375],"min":[0.00000408483542605534,0.00014000000000000001,0.00011237500000000001],"type":"VEC3"},{"bufferView":0,"byteOffset":7128,"componentType":5126,"count":8,"max":[0.0000066438518544422609,0.00014180338553105602,0.000132375],"min":[0.00000408483542605534,0.000141424616226063,0.00011237500000000001],"type":"VEC3"},{"bufferView":0,"byteOffset":7224,"componentType":5126,"count":8,"max":[0.00000769350420355337,0.000142348384095013,0.000132375],"min":[0.0000066438518544422609,0.00014180338553105602,0.00011237500000000001],"type":"VEC3"},{"bufferView":0,"byteOffset":7320,"componentType":5126,"count":4,"max":[0.0000081025277464802,0.000142772899045195,0.000132375],"min":[0.00000769350420355337,0.000142348384095013,0.00011237500000000001],"type":"VEC3"},{"bufferView":0,"byteOffset":7368,"componentType":5126,"count":8,"max":[0.000008497159398192899,0.000143509582603292,0.000132375],"min":[0.0000081025277464802,0.000142772899045195,0.00011237500000000001],"type":"VEC3"},{"bufferView":0,"byteOffset":7464,"componentType":5126,"count":8,"max":[0.00000863938951928796,0.000144388776394929,0.000132375],"min":[0.000008497159398192899,0.000143509582603292,0.00011237500000000001],"type":"VEC3"},{"bufferView":0,"byteOffset":7560,"componentType":5126,"count":4,"max":[0.00000863938951928796,0.000145182939711764,0.000132375],"min":[0.000008560582968717021,0.000144388776394929,0.00011237500000000001],"type":"VEC3"},{"bufferView":0,"byteOffset":7608,"componentType":5126,"count":4,"max":[0.000008560582968717021,0.000145948164390529,0.000132375],"min":[0.0000083241633170042,0.000145182939711764,0.00011237500000000001],"type":"VEC3"},{"bufferView":0,"byteOffset":7656,"componentType":5126,"count":8,"max":[0.0000083241633170042,0.000146665862589974,0.000132375],"min":[0.000007949307192009231,0.000145948164390529,0.00011237500000000001],"type":"VEC3"},{"bufferView":0,"byteOffset":7752,"componentType":5126,"count":8,"max":[0.000007949307192009231,0.000148931754790697,0.000132375],"min":[0.0000064321859766517109,0.000146665862589974,0.00011237500000000001],"type":"VEC3"},{"bufferView":0,"byteOffset":7848,"componentType":5126,"count":4,"max":[0.0000064321859766517109,0.000162945576266499,0.000132375],"min":[-0.0000035182144455145704,0.000148931754790697,0.00011237500000000001],"type":"VEC3"},{"bufferView":0,"byteOffset":7896,"componentType":5126,"count":4,"max":[-0.0000035182144455145704,0.000162945576266499,0.000132375],"min":[-0.000011576430818445101,0.000149547737977162,0.00011237500000000001],"type":"VEC3"},{"bufferView":0,"byteOffset":7944,"componentType":5126,"count":8,"max":[-0.000011576430818445101,0.000149547737977162,0.000132375],"min":[-0.000013208560038126402,0.00014678996487399503,0.00011237500000000001],"type":"VEC3"},{"bufferView":0,"byteOffset":8040,"componentType":5126,"count":8,"max":[-0.000013208560038126402,0.00014678996487399503,0.000132375],"min":[-0.000013503754974112501,0.000146159831057196,0.00011237500000000001],"type":"VEC3"},{"bufferView":0,"byteOffset":8136,"componentType":5126,"count":4,"max":[-0.000013503754974112501,0.000146159831057196,0.000132375],"min":[-0.0000137400195941629,0.00014527430362513,0.00011237500000000001],"type":"VEC3"},{"bufferView":0,"byteOffset":8184,"componentType":5126,"count":4,"max":[-0.0000137400195941629,0.00014527430362513,0.000132375],"min":[-0.000013818774467512999,0.000144388776394929,0.00011237500000000001],"type":"VEC3"},{"bufferView":0,"byteOffset":8232,"componentType":5126,"count":4,"max":[-0.0000137005388030462,0.000144388776394929,0.000132375],"min":[-0.000013818774467512999,0.000143662205570815,0.00011237500000000001],"type":"VEC3"},{"bufferView":0,"byteOffset":8280,"componentType":5126,"count":4,"max":[-0.0000133458318096457,0.000143662205570815,0.000132375],"min":[-0.0000137005388030462,0.000142945143355332,0.00011237500000000001],"type":"VEC3"},{"bufferView":0,"byteOffset":8328,"componentType":5126,"count":8,"max":[-0.0000127982329569711,0.000142945143355332,0.000132375],"min":[-0.0000133458318096457,0.00014231928286961203,0.00011237500000000001],"type":"VEC3"},{"bufferView":0,"byteOffset":8424,"componentType":5126,"count":8,"max":[-0.0000121370168316441,0.00014231928286961203,0.000132375],"min":[-0.0000127982329569711,0.000141886396604232,0.00011237500000000001],"type":"VEC3"},{"bufferView":0,"byteOffset":8520,"componentType":5126,"count":8,"max":[-0.000011127154009815301,0.000141886396604232,0.000132375],"min":[-0.0000121370168316441,0.00014159629954835202,0.00011237500000000001],"type":"VEC3"},{"bufferView":0,"byteOffset":8616,"componentType":5126,"count":8,"max":[-0.000009124073770048541,0.00014159629954835202,0.000132375],"min":[-0.000011127154009815301,0.000141424616226063,0.00011237500000000001],"type":"VEC3"},{"bufferView":0,"byteOffset":8712,"componentType":5126,"count":4,"max":[-0.000009124073770048541,0.000141424616226063,0.000132375],"min":[-0.000009124073770048541,0.00014000000000000001,0.00011237500000000001],"type":"VEC3"},{"bufferView":0,"byteOffset":8760,"componentType":5126,"count":4,"max":[-0.000009124073770048541,0.00014000000000000001,0.000132375],"min":[-0.000029515180818445099,0.00014000000000000001,0.00011237500000000001],"type":"VEC3"},{"bufferView":0,"byteOffset":8808,"componentType":5126,"count":4,"max":[-0.000029515180818445099,0.000141424616226063,0.000132375],"min":[-0.000029515180818445099,0.00014000000000000001,0.00011237500000000001],"type":"VEC3"},{"bufferView":0,"byteOffset":8856,"componentType":5126,"count":8,"max":[-0.0000265524195589876,0.000142073770902404,0.000132375],"min":[-0.000029515180818445099,0.000141424616226063,0.00011237500000000001],"type":"VEC3"},{"bufferView":0,"byteOffset":8952,"componentType":5126,"count":8,"max":[-0.0000243123973566816,0.000143445577890949,0.000132375],"min":[-0.0000265524195589876,0.000142073770902404,0.00011237500000000001],"type":"VEC3"},{"bufferView":0,"byteOffset":9048,"componentType":5126,"count":8,"max":[-0.000022493889780270799,0.000145467323005024,0.000132375],"min":[-0.0000243123973566816,0.000143445577890949,0.00011237500000000001],"type":"VEC3"},{"bufferView":0,"byteOffset":9144,"componentType":5126,"count":8,"max":[-0.0000180231689609135,0.000152204319768699,0.000132375],"min":[-0.000022493889780270799,0.000145467323005024,0.00011237500000000001],"type":"VEC3"},{"bufferView":0,"byteOffset":9240,"componentType":5126,"count":170,"max":[0.0000209375535060889,0.00019220477217326602,0.00011237500000000001],"min":[-0.000029515180818445099,0.00014000000000000001,0.00011237500000000001],"type":"VEC3"},{"bufferView":0,"byteOffset":11280,"componentType":5126,"count":170,"max":[0.0000209375535060889,0.00019220477217326602,0.000132375],"min":[-0.000029515180818445099,0.00014000000000000001,0.000132375],"type":"VEC3"},{"bufferView":1,"byteOffset":0,"componentType":5126,"count":8,"type":"VEC3"},{"bufferView":1,"byteOffset":96,"componentType":5126,"count":8,"type":"VEC3"},{"bufferView":1,"byteOffset":192,"componentType":5126,"count":4,"type":"VEC3"},{"bufferView":1,"byteOffset":240,"componentType":5126,"count":4,"type":"VEC3"},{"bufferView":1,"byteOffset":288,"componentType":5126,"count":4,"type":"VEC3"},{"bufferView":1,"byteOffset":336,"componentType":5126,"count":4,"type":"VEC3"},{"bufferView":1,"byteOffset":384,"componentType":5126,"count":4,"type":"VEC3"},{"bufferView":1,"byteOffset":432,"componentType":5126,"count":4,"type":"VEC3"},{"bufferView":1,"byteOffset":480,"componentType":5126,"count":4,"type":"VEC3"},{"bufferView":1,"byteOffset":528,"componentType":5126,"count":4,"type":"VEC3"},{"bufferView":1,"byteOffset":576,"componentType":5126,"count":4,"type":"VEC3"},{"bufferView":1,"byteOffset":624,"componentType":5126,"count":4,"type":"VEC3"},{"bufferView":1,"byteOffset":672,"componentType":5126,"count":5,"type":"VEC3"},{"bufferView":1,"byteOffset":732,"componentType":5126,"count":8,"type":"VEC3"},{"bufferView":1,"byteOffset":828,"componentType":5126,"count":19,"type":"VEC3"},{"bufferView":1,"byteOffset":1056,"componentType":5126,"count":6,"type":"VEC3"},{"bufferView":1,"byteOffset":1128,"componentType":5126,"count":10,"type":"VEC3"},{"bufferView":1,"byteOffset":1248,"componentType":5126,"count":22,"type":"VEC3"},{"bufferView":1,"byteOffset":1512,"componentType":5126,"count":4,"type":"VEC3"},{"bufferView":1,"byteOffset":1560,"componentType":5126,"count":16,"type":"VEC3"},{"bufferView":1,"byteOffset":1752,"componentType":5126,"count":4,"type":"VEC3"},{"bufferView":1,"byteOffset":1800,"componentType":5126,"count":4,"type":"VEC3"},{"bufferView":1,"byteOffset":1848,"componentType":5126,"count":4,"type":"VEC3"},{"bufferView":1,"byteOffset":1896,"componentType":5126,"count":4,"type":"VEC3"},{"bufferView":1,"byteOffset":1944,"componentType":5126,"count":4,"type":"VEC3"},{"bufferView":1,"byteOffset":1992,"componentType":5126,"count":4,"type":"VEC3"},{"bufferView":1,"byteOffset":2040,"componentType":5126,"count":4,"type":"VEC3"},{"bufferView":1,"byteOffset":2088,"componentType":5126,"count":4,"type":"VEC3"},{"bufferView":1,"byteOffset":2136,"componentType":5126,"count":4,"type":"VEC3"},{"bufferView":1,"byteOffset":2184,"componentType":5126,"count":4,"type":"VEC3"},{"bufferView":1,"byteOffset":2232,"componentType":5126,"count":4,"type":"VEC3"},{"bufferView":1,"byteOffset":2280,"componentType":5126,"count":4,"type":"VEC3"},{"bufferView":1,"byteOffset":2328,"componentType":5126,"count":4,"type":"VEC3"},{"bufferView":1,"byteOffset":2376,"componentType":5126,"count":16,"type":"VEC3"},{"bufferView":1,"byteOffset":2568,"componentType":5126,"count":4,"type":"VEC3"},{"bufferView":1,"byteOffset":2616,"componentType":5126,"count":4,"type":"VEC3"},{"bufferView":1,"byteOffset":2664,"componentType":5126,"count":4,"type":"VEC3"},{"bufferView":1,"byteOffset":2712,"componentType":5126,"count":4,"type":"VEC3"},{"bufferView":1,"byteOffset":2760,"componentType":5126,"count":4,"type":"VEC3"},{"bufferView":1,"byteOffset":2808,"componentType":5126,"count":4,"type":"VEC3"},{"bufferView":1,"byteOffset":2856,"componentType":5126,"count":4,"type":"VEC3"},{"bufferView":1,"byteOffset":2904,"componentType":5126,"count":4,"type":"VEC3"},{"bufferView":1,"byteOffset":2952,"componentType":5126,"count":4,"type":"VEC3"},{"bufferView":1,"byteOffset":3000,"componentType":5126,"count":4,"type":"VEC3"},{"bufferView":1,"byteOffset":3048,"componentType":5126,"count":4,"type":"VEC3"},{"bufferView":1,"byteOffset":3096,"componentType":5126,"count":4,"type":"VEC3"},{"bufferView":1,"byteOffset":3144,"componentType":5126,"count":4,"type":"VEC3"},{"bufferView":1,"byteOffset":3192,"componentType":5126,"count":4,"type":"VEC3"},{"bufferView":1,"byteOffset":3240,"componentType":5126,"count":4,"type":"VEC3"},{"bufferView":1,"byteOffset":3288,"componentType":5126,"count":4,"type":"VEC3"},{"bufferView":1,"byteOffset":3336,"componentType":5126,"count":4,"type":"VEC3"},{"bufferView":1,"byteOffset":3384,"componentType":5126,"count":8,"type":"VEC3"},{"bufferView":1,"byteOffset":3480,"componentType":5126,"count":8,"type":"VEC3"},{"bufferView":1,"byteOffset":3576,"componentType":5126,"count":8,"type":"VEC3"},{"bufferView":1,"byteOffset":3672,"componentType":5126,"count":8,"type":"VEC3"},{"bufferView":1,"byteOffset":3768,"componentType":5126,"count":8,"type":"VEC3"},{"bufferView":1,"byteOffset":3864,"componentType":5126,"count":8,"type":"VEC3"},{"bufferView":1,"byteOffset":3960,"componentType":5126,"count":4,"type":"VEC3"},{"bufferView":1,"byteOffset":4008,"componentType":5126,"count":4,"type":"VEC3"},{"bufferView":1,"byteOffset":4056,"componentType":5126,"count":4,"type":"VEC3"},{"bufferView":1,"byteOffset":4104,"componentType":5126,"count":8,"type":"VEC3"},{"bufferView":1,"byteOffset":4200,"componentType":5126,"count":8,"type":"VEC3"},{"bufferView":1,"byteOffset":4296,"componentType":5126,"count":8,"type":"VEC3"},{"bufferView":1,"byteOffset":4392,"componentType":5126,"count":8,"type":"VEC3"},{"bufferView":1,"byteOffset":4488,"componentType":5126,"count":4,"type":"VEC3"},{"bufferView":1,"byteOffset":4536,"componentType":5126,"count":4,"type":"VEC3"},{"bufferView":1,"byteOffset":4584,"componentType":5126,"count":4,"type":"VEC3"},{"bufferView":1,"byteOffset":4632,"componentType":5126,"count":4,"type":"VEC3"},{"bufferView":1,"byteOffset":4680,"componentType":5126,"count":8,"type":"VEC3"},{"bufferView":1,"byteOffset":4776,"componentType":5126,"count":8,"type":"VEC3"},{"bufferView":1,"byteOffset":4872,"componentType":5126,"count":4,"type":"VEC3"},{"bufferView":1,"byteOffset":4920,"componentType":5126,"count":4,"type":"VEC3"},{"bufferView":1,"byteOffset":4968,"componentType":5126,"count":8,"type":"VEC3"},{"bufferView":1,"byteOffset":5064,"componentType":5126,"count":8,"type":"VEC3"},{"bufferView":1,"byteOffset":5160,"componentType":5126,"count":8,"type":"VEC3"},{"bufferView":1,"byteOffset":5256,"componentType":5126,"count":8,"type":"VEC3"},{"bufferView":1,"byteOffset":5352,"componentType":5126,"count":4,"type":"VEC3"},{"bufferView":1,"byteOffset":5400,"componentType":5126,"count":8,"type":"VEC3"},{"bufferView":1,"byteOffset":5496,"componentType":5126,"count":8,"type":"VEC3"},{"bufferView":1,"byteOffset":5592,"componentType":5126,"count":8,"type":"VEC3"},{"bufferView":1,"byteOffset":5688,"componentType":5126,"count":8,"type":"VEC3"},{"bufferView":1,"byteOffset":5784,"componentType":5126,"count":4,"type":"VEC3"},{"bufferView":1,"byteOffset":5832,"componentType":5126,"count":4,"type":"VEC3"},{"bufferView":1,"byteOffset":5880,"componentType":5126,"count":4,"type":"VEC3"},{"bufferView":1,"byteOffset":5928,"componentType":5126,"count":8,"type":"VEC3"},{"bufferView":1,"byteOffset":6024,"componentType":5126,"count":8,"type":"VEC3"},{"bufferView":1,"byteOffset":6120,"componentType":5126,"count":8,"type":"VEC3"},{"bufferView":1,"byteOffset":6216,"componentType":5126,"count":8,"type":"VEC3"},{"bufferView":1,"byteOffset":6312,"componentType":5126,"count":4,"type":"VEC3"},{"bufferView":1,"byteOffset":6360,"componentType":5126,"count":4,"type":"VEC3"},{"bufferView":1,"byteOffset":6408,"componentType":5126,"count":8,"type":"VEC3"},{"bufferView":1,"byteOffset":6504,"componentType":5126,"count":8,"type":"VEC3"},{"bufferView":1,"byteOffset":6600,"componentType":5126,"count":8,"type":"VEC3"},{"bufferView":1,"byteOffset":6696,"componentType":5126,"count":8,"type":"VEC3"},{"bufferView":1,"byteOffset":6792,"componentType":5126,"count":8,"type":"VEC3"},{"bufferView":1,"byteOffset":6888,"componentType":5126,"count":8,"type":"VEC3"},{"bufferView":1,"byteOffset":6984,"componentType":5126,"count":4,"type":"VEC3"},{"bufferView":1,"byteOffset":7032,"componentType":5126,"count":4,"type":"VEC3"},{"bufferView":1,"byteOffset":7080,"componentType":5126,"count":4,"type":"VEC3"},{"bufferView":1,"byteOffset":7128,"componentType":5126,"count":8,"type":"VEC3"},{"bufferView":1,"byteOffset":7224,"componentType":5126,"count":8,"type":"VEC3"},{"bufferView":1,"byteOffset":7320,"componentType":5126,"count":4,"type":"VEC3"},{"bufferView":1,"byteOffset":7368,"componentType":5126,"count":8,"type":"VEC3"},{"bufferView":1,"byteOffset":7464,"componentType":5126,"count":8,"type":"VEC3"},{"bufferView":1,"byteOffset":7560,"componentType":5126,"count":4,"type":"VEC3"},{"bufferView":1,"byteOffset":7608,"componentType":5126,"count":4,"type":"VEC3"},{"bufferView":1,"byteOffset":7656,"componentType":5126,"count":8,"type":"VEC3"},{"bufferView":1,"byteOffset":7752,"componentType":5126,"count":8,"type":"VEC3"},{"bufferView":1,"byteOffset":7848,"componentType":5126,"count":4,"type":"VEC3"},{"bufferView":1,"byteOffset":7896,"componentType":5126,"count":4,"type":"VEC3"},{"bufferView":1,"byteOffset":7944,"componentType":5126,"count":8,"type":"VEC3"},{"bufferView":1,"byteOffset":8040,"componentType":5126,"count":8,"type":"VEC3"},{"bufferView":1,"byteOffset":8136,"componentType":5126,"count":4,"type":"VEC3"},{"bufferView":1,"byteOffset":8184,"componentType":5126,"count":4,"type":"VEC3"},{"bufferView":1,"byteOffset":8232,"componentType":5126,"count":4,"type":"VEC3"},{"bufferView":1,"byteOffset":8280,"componentType":5126,"count":4,"type":"VEC3"},{"bufferView":1,"byteOffset":8328,"componentType":5126,"count":8,"type":"VEC3"},{"bufferView":1,"byteOffset":8424,"componentType":5126,"count":8,"type":"VEC3"},{"bufferView":1,"byteOffset":8520,"componentType":5126,"count":8,"type":"VEC3"},{"bufferView":1,"byteOffset":8616,"componentType":5126,"count":8,"type":"VEC3"},{"bufferView":1,"byteOffset":8712,"componentType":5126,"count":4,"type":"VEC3"},{"bufferView":1,"byteOffset":8760,"componentType":5126,"count":4,"type":"VEC3"},{"bufferView":1,"byteOffset":8808,"componentType":5126,"count":4,"type":"VEC3"},{"bufferView":1,"byteOffset":8856,"componentType":5126,"count":8,"type":"VEC3"},{"bufferView":1,"byteOffset":8952,"componentType":5126,"count":8,"type":"VEC3"},{"bufferView":1,"byteOffset":9048,"componentType":5126,"count":8,"type":"VEC3"},{"bufferView":1,"byteOffset":9144,"componentType":5126,"count":8,"type":"VEC3"},{"bufferView":1,"byteOffset":9240,"componentType":5126,"count":170,"type":"VEC3"},{"bufferView":1,"byteOffset":11280,"componentType":5126,"count":170,"type":"VEC3"},{"bufferView":2,"byteOffset":0,"componentType":5123,"count":18,"type":"SCALAR"},{"bufferView":2,"byteOffset":36,"componentType":5123,"count":18,"type":"SCALAR"},{"bufferView":2,"byteOffset":72,"componentType":5123,"count":6,"type":"SCALAR"},{"bufferView":2,"byteOffset":84,"componentType":5123,"count":6,"type":"SCALAR"},{"bufferView":2,"byteOffset":96,"componentType":5123,"count":6,"type":"SCALAR"},{"bufferView":2,"byteOffset":108,"componentType":5123,"count":6,"type":"SCALAR"},{"bufferView":2,"byteOffset":120,"componentType":5123,"count":6,"type":"SCALAR"},{"bufferView":2,"byteOffset":132,"componentType":5123,"count":6,"type":"SCALAR"},{"bufferView":2,"byteOffset":144,"componentType":5123,"count":6,"type":"SCALAR"},{"bufferView":2,"byteOffset":156,"componentType":5123,"count":6,"type":"SCALAR"},{"bufferView":2,"byteOffset":168,"componentType":5123,"count":6,"type":"SCALAR"},{"bufferView":2,"byteOffset":180,"componentType":5123,"count":6,"type":"SCALAR"},{"bufferView":2,"byteOffset":192,"componentType":5123,"count":9,"type":"SCALAR"},{"bufferView":2,"byteOffset":212,"componentType":5123,"count":18,"type":"SCALAR"},{"bufferView":2,"byteOffset":248,"componentType":5123,"count":51,"type":"SCALAR"},{"bufferView":2,"byteOffset":352,"componentType":5123,"count":12,"type":"SCALAR"},{"bufferView":2,"byteOffset":376,"componentType":5123,"count":24,"type":"SCALAR"},{"bufferView":2,"byteOffset":424,"componentType":5123,"count":60,"type":"SCALAR"},{"bufferView":2,"byteOffset":544,"componentType":5123,"count":6,"type":"SCALAR"},{"bufferView":2,"byteOffset":556,"componentType":5123,"count":42,"type":"SCALAR"},{"bufferView":2,"byteOffset":640,"componentType":5123,"count":6,"type":"SCALAR"},{"bufferView":2,"byteOffset":652,"componentType":5123,"count":6,"type":"SCALAR"},{"bufferView":2,"byteOffset":664,"componentType":5123,"count":6,"type":"SCALAR"},{"bufferView":2,"byteOffset":676,"componentType":5123,"count":6,"type":"SCALAR"},{"bufferView":2,"byteOffset":688,"componentType":5123,"count":6,"type":"SCALAR"},{"bufferView":2,"byteOffset":700,"componentType":5123,"count":6,"type":"SCALAR"},{"bufferView":2,"byteOffset":712,"componentType":5123,"count":6,"type":"SCALAR"},{"bufferView":2,"byteOffset":724,"componentType":5123,"count":6,"type":"SCALAR"},{"bufferView":2,"byteOffset":736,"componentType":5123,"count":6,"type":"SCALAR"},{"bufferView":2,"byteOffset":748,"componentType":5123,"count":6,"type":"SCALAR"},{"bufferView":2,"byteOffset":760,"componentType":5123,"count":6,"type":"SCALAR"},{"bufferView":2,"byteOffset":772,"componentType":5123,"count":6,"type":"SCALAR"},{"bufferView":2,"byteOffset":784,"componentType":5123,"count":6,"type":"SCALAR"},{"bufferView":2,"byteOffset":796,"componentType":5123,"count":42,"type":"SCALAR"},{"bufferView":2,"byteOffset":880,"componentType":5123,"count":6,"type":"SCALAR"},{"bufferView":2,"byteOffset":892,"componentType":5123,"count":6,"type":"SCALAR"},{"bufferView":2,"byteOffset":904,"componentType":5123,"count":6,"type":"SCALAR"},{"bufferView":2,"byteOffset":916,"componentType":5123,"count":6,"type":"SCALAR"},{"bufferView":2,"byteOffset":928,"componentType":5123,"count":6,"type":"SCALAR"},{"bufferView":2,"byteOffset":940,"componentType":5123,"count":6,"type":"SCALAR"},{"bufferView":2,"byteOffset":952,"componentType":5123,"count":6,"type":"SCALAR"},{"bufferView":2,"byteOffset":964,"componentType":5123,"count":6,"type":"SCALAR"},{"bufferView":2,"byteOffset":976,"componentType":5123,"count":6,"type":"SCALAR"},{"bufferView":2,"byteOffset":988,"componentType":5123,"count":6,"type":"SCALAR"},{"bufferView":2,"byteOffset":1000,"componentType":5123,"count":6,"type":"SCALAR"},{"bufferView":2,"byteOffset":1012,"componentType":5123,"count":6,"type":"SCALAR"},{"bufferView":2,"byteOffset":1024,"componentType":5123,"count":6,"type":"SCALAR"},{"bufferView":2,"byteOffset":1036,"componentType":5123,"count":6,"type":"SCALAR"},{"bufferView":2,"byteOffset":1048,"componentType":5123,"count":6,"type":"SCALAR"},{"bufferView":2,"byteOffset":1060,"componentType":5123,"count":6,"type":"SCALAR"},{"bufferView":2,"byteOffset":1072,"componentType":5123,"count":6,"type":"SCALAR"},{"bufferView":2,"byteOffset":1084,"componentType":5123,"count":18,"type":"SCALAR"},{"bufferView":2,"byteOffset":1120,"componentType":5123,"count":18,"type":"SCALAR"},{"bufferView":2,"byteOffset":1156,"componentType":5123,"count":18,"type":"SCALAR"},{"bufferView":2,"byteOffset":1192,"componentType":5123,"count":18,"type":"SCALAR"},{"bufferView":2,"byteOffset":1228,"componentType":5123,"count":18,"type":"SCALAR"},{"bufferView":2,"byteOffset":1264,"componentType":5123,"count":18,"type":"SCALAR"},{"bufferView":2,"byteOffset":1300,"componentType":5123,"count":6,"type":"SCALAR"},{"bufferView":2,"byteOffset":1312,"componentType":5123,"count":6,"type":"SCALAR"},{"bufferView":2,"byteOffset":1324,"componentType":5123,"count":6,"type":"SCALAR"},{"bufferView":2,"byteOffset":1336,"componentType":5123,"count":18,"type":"SCALAR"},{"bufferView":2,"byteOffset":1372,"componentType":5123,"count":18,"type":"SCALAR"},{"bufferView":2,"byteOffset":1408,"componentType":5123,"count":18,"type":"SCALAR"},{"bufferView":2,"byteOffset":1444,"componentType":5123,"count":18,"type":"SCALAR"},{"bufferView":2,"byteOffset":1480,"componentType":5123,"count":6,"type":"SCALAR"},{"bufferView":2,"byteOffset":1492,"componentType":5123,"count":6,"type":"SCALAR"},{"bufferView":2,"byteOffset":1504,"componentType":5123,"count":6,"type":"SCALAR"},{"bufferView":2,"byteOffset":1516,"componentType":5123,"count":6,"type":"SCALAR"},{"bufferView":2,"byteOffset":1528,"componentType":5123,"count":18,"type":"SCALAR"},{"bufferView":2,"byteOffset":1564,"componentType":5123,"count":18,"type":"SCALAR"},{"bufferView":2,"byteOffset":1600,"componentType":5123,"count":6,"type":"SCALAR"},{"bufferView":2,"byteOffset":1612,"componentType":5123,"count":6,"type":"SCALAR"},{"bufferView":2,"byteOffset":1624,"componentType":5123,"count":18,"type":"SCALAR"},{"bufferView":2,"byteOffset":1660,"componentType":5123,"count":18,"type":"SCALAR"},{"bufferView":2,"byteOffset":1696,"componentType":5123,"count":18,"type":"SCALAR"},{"bufferView":2,"byteOffset":1732,"componentType":5123,"count":18,"type":"SCALAR"},{"bufferView":2,"byteOffset":1768,"componentType":5123,"count":6,"type":"SCALAR"},{"bufferView":2,"byteOffset":1780,"componentType":5123,"count":18,"type":"SCALAR"},{"bufferView":2,"byteOffset":1816,"componentType":5123,"count":18,"type":"SCALAR"},{"bufferView":2,"byteOffset":1852,"componentType":5123,"count":18,"type":"SCALAR"},{"bufferView":2,"byteOffset":1888,"componentType":5123,"count":18,"type":"SCALAR"},{"bufferView":2,"byteOffset":1924,"componentType":5123,"count":6,"type":"SCALAR"},{"bufferView":2,"byteOffset":1936,"componentType":5123,"count":6,"type":"SCALAR"},{"bufferView":2,"byteOffset":1948,"componentType":5123,"count":6,"type":"SCALAR"},{"bufferView":2,"byteOffset":1960,"componentType":5123,"count":18,"type":"SCALAR"},{"bufferView":2,"byteOffset":1996,"componentType":5123,"count":18,"type":"SCALAR"},{"bufferView":2,"byteOffset":2032,"componentType":5123,"count":18,"type":"SCALAR"},{"bufferView":2,"byteOffset":2068,"componentType":5123,"count":18,"type":"SCALAR"},{"bufferView":2,"byteOffset":2104,"componentType":5123,"count":6,"type":"SCALAR"},{"bufferView":2,"byteOffset":2116,"componentType":5123,"count":6,"type":"SCALAR"},{"bufferView":2,"byteOffset":2128,"componentType":5123,"count":18,"type":"SCALAR"},{"bufferView":2,"byteOffset":2164,"componentType":5123,"count":18,"type":"SCALAR"},{"bufferView":2,"byteOffset":2200,"componentType":5123,"count":18,"type":"SCALAR"},{"bufferView":2,"byteOffset":2236,"componentType":5123,"count":18,"type":"SCALAR"},{"bufferView":2,"byteOffset":2272,"componentType":5123,"count":18,"type":"SCALAR"},{"bufferView":2,"byteOffset":2308,"componentType":5123,"count":18,"type":"SCALAR"},{"bufferView":2,"byteOffset":2344,"componentType":5123,"count":6,"type":"SCALAR"},{"bufferView":2,"byteOffset":2356,"componentType":5123,"count":6,"type":"SCALAR"},{"bufferView":2,"byteOffset":2368,"componentType":5123,"count":6,"type":"SCALAR"},{"bufferView":2,"byteOffset":2380,"componentType":5123,"count":18,"type":"SCALAR"},{"bufferView":2,"byteOffset":2416,"componentType":5123,"count":18,"type":"SCALAR"},{"bufferView":2,"byteOffset":2452,"componentType":5123,"count":6,"type":"SCALAR"},{"bufferView":2,"byteOffset":2464,"componentType":5123,"count":18,"type":"SCALAR"},{"bufferView":2,"byteOffset":2500,"componentType":5123,"count":18,"type":"SCALAR"},{"bufferView":2,"byteOffset":2536,"componentType":5123,"count":6,"type":"SCALAR"},{"bufferView":2,"byteOffset":2548,"componentType":5123,"count":6,"type":"SCALAR"},{"bufferView":2,"byteOffset":2560,"componentType":5123,"count":18,"type":"SCALAR"},{"bufferView":2,"byteOffset":2596,"componentType":5123,"count":18,"type":"SCALAR"},{"bufferView":2,"byteOffset":2632,"componentType":5123,"count":6,"type":"SCALAR"},{"bufferView":2,"byteOffset":2644,"componentType":5123,"count":6,"type":"SCALAR"},{"bufferView":2,"byteOffset":2656,"componentType":5123,"count":18,"type":"SCALAR"},{"bufferView":2,"byteOffset":2692,"componentType":5123,"count":18,"type":"SCALAR"},{"bufferView":2,"byteOffset":2728,"componentType":5123,"count":6,"type":"SCALAR"},{"bufferView":2,"byteOffset":2740,"componentType":5123,"count":6,"type":"SCALAR"},{"bufferView":2,"byteOffset":2752,"componentType":5123,"count":6,"type":"SCALAR"},{"bufferView":2,"byteOffset":2764,"componentType":5123,"count":6,"type":"SCALAR"},{"bufferView":2,"byteOffset":2776,"componentType":5123,"count":18,"type":"SCALAR"},{"bufferView":2,"byteOffset":2812,"componentType":5123,"count":18,"type":"SCALAR"},{"bufferView":2,"byteOffset":2848,"componentType":5123,"count":18,"type":"SCALAR"},{"bufferView":2,"byteOffset":2884,"componentType":5123,"count":18,"type":"SCALAR"},{"bufferView":2,"byteOffset":2920,"componentType":5123,"count":6,"type":"SCALAR"},{"bufferView":2,"byteOffset":2932,"componentType":5123,"count":6,"type":"SCALAR"},{"bufferView":2,"byteOffset":2944,"componentType":5123,"count":6,"type":"SCALAR"},{"bufferView":2,"byteOffset":2956,"componentType":5123,"count":18,"type":"SCALAR"},{"bufferView":2,"byteOffset":2992,"componentType":5123,"count":18,"type":"SCALAR"},{"bufferView":2,"byteOffset":3028,"componentType":5123,"count":18,"type":"SCALAR"},{"bufferView":2,"byteOffset":3064,"componentType":5123,"count":18,"type":"SCALAR"},{"bufferView":2,"byteOffset":3100,"componentType":5123,"count":504,"type":"SCALAR"},{"bufferView":2,"byteOffset":4108,"componentType":5123,"count":504,"type":"SCALAR"}],"asset":{"generator":"Open CASCADE Technology 7.6 [dev.opencascade.org]","version":"2.0"},"bufferViews":[{"buffer":0,"byteLength":13320,"byteOffset":0,"byteStride":12,"target":34962},{"buffer":0,"byteLength":13320,"byteOffset":13320,"byteStride":12,"target":34962},{"buffer":0,"byteLength":5116,"byteOffset":26640,"target":34963}],"buffers":[{"byteLength":31756,"uri":"Roth_2.bin"}],"materials":[{"name":"mat_0","pbrMetallicRoughness":{"baseColorFactor":[0.6038273572921753,0.6038273572921753,0.6038273572921753,1.0]},"doubleSided":true},{"name":"mat_1","pbrMetallicRoughness":{"baseColorFactor":[1.0,0.0,0.0,1.0]},"doubleSided":true}],"meshes":[{"name":"Support0_002","primitives":[{"attributes":{"NORMAL":129,"POSITION":0},"indices":258,"material":0,"mode":4},{"attributes":{"NORMAL":130,"POSITION":1},"indices":259,"material":0,"mode":4},{"attributes":{"NORMAL":131,"POSITION":2},"indices":260,"material":0,"mode":4},{"attributes":{"NORMAL":132,"POSITION":3},"indices":261,"material":0,"mode":4},{"attributes":{"NORMAL":133,"POSITION":4},"indices":262,"material":0,"mode":4},{"attributes":{"NORMAL":134,"POSITION":5},"indices":263,"material":0,"mode":4},{"attributes":{"NORMAL":135,"POSITION":6},"indices":264,"material":0,"mode":4},{"attributes":{"NORMAL":136,"POSITION":7},"indices":265,"material":0,"mode":4},{"attributes":{"NORMAL":137,"POSITION":8},"indices":266,"material":0,"mode":4},{"attributes":{"NORMAL":138,"POSITION":9},"indices":267,"material":0,"mode":4},{"attributes":{"NORMAL":139,"POSITION":10},"indices":268,"material":0,"mode":4},{"attributes":{"NORMAL":140,"POSITION":11},"indices":269,"material":0,"mode":4},{"attributes":{"NORMAL":141,"POSITION":12},"indices":270,"material":0,"mode":4},{"attributes":{"NORMAL":142,"POSITION":13},"indices":271,"material":0,"mode":4},{"attributes":{"NORMAL":143,"POSITION":14},"indices":272,"material":0,"mode":4},{"attributes":{"NORMAL":144,"POSITION":15},"indices":273,"material":0,"mode":4},{"attributes":{"NORMAL":145,"POSITION":16},"indices":274,"material":0,"mode":4},{"attributes":{"NORMAL":146,"POSITION":17},"indices":275,"material":0,"mode":4},{"attributes":{"NORMAL":147,"POSITION":18},"indices":276,"material":0,"mode":4},{"attributes":{"NORMAL":148,"POSITION":19},"indices":277,"material":0,"mode":4},{"attributes":{"NORMAL":149,"POSITION":20},"indices":278,"material":0,"mode":4},{"attributes":{"NORMAL":150,"POSITION":21},"indices":279,"material":0,"mode":4},{"attributes":{"NORMAL":151,"POSITION":22},"indices":280,"material":0,"mode":4},{"attributes":{"NORMAL":152,"POSITION":23},"indices":281,"material":0,"mode":4},{"attributes":{"NORMAL":153,"POSITION":24},"indices":282,"material":0,"mode":4},{"attributes":{"NORMAL":154,"POSITION":25},"indices":283,"material":0,"mode":4},{"attributes":{"NORMAL":155,"POSITION":26},"indices":284,"material":0,"mode":4},{"attributes":{"NORMAL":156,"POSITION":27},"indices":285,"material":0,"mode":4},{"attributes":{"NORMAL":157,"POSITION":28},"indices":286,"material":0,"mode":4},{"attributes":{"NORMAL":158,"POSITION":29},"indices":287,"material":0,"mode":4},{"attributes":{"NORMAL":159,"POSITION":30},"indices":288,"material":0,"mode":4},{"attributes":{"NORMAL":160,"POSITION":31},"indices":289,"material":0,"mode":4},{"attributes":{"NORMAL":161,"POSITION":32},"indices":290,"material":0,"mode":4},{"attributes":{"NORMAL":162,"POSITION":33},"indices":291,"material":0,"mode":4},{"attributes":{"NORMAL":163,"POSITION":34},"indices":292,"material":0,"mode":4},{"attributes":{"NORMAL":164,"POSITION":35},"indices":293,"material":0,"mode":4},{"attributes":{"NORMAL":165,"POSITION":36},"indices":294,"material":0,"mode":4},{"attributes":{"NORMAL":166,"POSITION":37},"indices":295,"material":0,"mode":4},{"attributes":{"NORMAL":167,"POSITION":38},"indices":296,"material":0,"mode":4},{"attributes":{"NORMAL":168,"POSITION":39},"indices":297,"material":0,"mode":4},{"attributes":{"NORMAL":169,"POSITION":40},"indices":298,"material":0,"mode":4},{"attributes":{"NORMAL":170,"POSITION":41},"indices":299,"material":0,"mode":4},{"attributes":{"NORMAL":171,"POSITION":42},"indices":300,"material":0,"mode":4},{"attributes":{"NORMAL":172,"POSITION":43},"indices":301,"material":0,"mode":4},{"attributes":{"NORMAL":173,"POSITION":44},"indices":302,"material":0,"mode":4},{"attributes":{"NORMAL":174,"POSITION":45},"indices":303,"material":0,"mode":4},{"attributes":{"NORMAL":175,"POSITION":46},"indices":304,"material":0,"mode":4},{"attributes":{"NORMAL":176,"POSITION":47},"indices":305,"material":0,"mode":4},{"attributes":{"NORMAL":177,"POSITION":48},"indices":306,"material":0,"mode":4}]},{"name":"Support0_1","primitives":[{"attributes":{"NORMAL":178,"POSITION":49},"indices":307,"material":1,"mode":4},{"attributes":{"NORMAL":179,"POSITION":50},"indices":308,"material":1,"mode":4},{"attributes":{"NORMAL":180,"POSITION":51},"indices":309,"material":1,"mode":4},{"attributes":{"NORMAL":181,"POSITION":52},"indices":310,"material":1,"mode":4},{"attributes":{"NORMAL":182,"POSITION":53},"indices":311,"material":1,"mode":4},{"attributes":{"NORMAL":183,"POSITION":54},"indices":312,"material":1,"mode":4},{"attributes":{"NORMAL":184,"POSITION":55},"indices":313,"material":1,"mode":4},{"attributes":{"NORMAL":185,"POSITION":56},"indices":314,"material":1,"mode":4},{"attributes":{"NORMAL":186,"POSITION":57},"indices":315,"material":1,"mode":4},{"attributes":{"NORMAL":187,"POSITION":58},"indices":316,"material":1,"mode":4},{"attributes":{"NORMAL":188,"POSITION":59},"indices":317,"material":1,"mode":4},{"attributes":{"NORMAL":189,"POSITION":60},"indices":318,"material":1,"mode":4},{"attributes":{"NORMAL":190,"POSITION":61},"indices":319,"material":1,"mode":4},{"attributes":{"NORMAL":191,"POSITION":62},"indices":320,"material":1,"mode":4},{"attributes":{"NORMAL":192,"POSITION":63},"indices":321,"material":1,"mode":4},{"attributes":{"NORMAL":193,"POSITION":64},"indices":322,"material":1,"mode":4},{"attributes":{"NORMAL":194,"POSITION":65},"indices":323,"material":1,"mode":4},{"attributes":{"NORMAL":195,"POSITION":66},"indices":324,"material":1,"mode":4},{"attributes":{"NORMAL":196,"POSITION":67},"indices":325,"material":1,"mode":4},{"attributes":{"NORMAL":197,"POSITION":68},"indices":326,"material":1,"mode":4},{"attributes":{"NORMAL":198,"POSITION":69},"indices":327,"material":1,"mode":4},{"attributes":{"NORMAL":199,"POSITION":70},"indices":328,"material":1,"mode":4},{"attributes":{"NORMAL":200,"POSITION":71},"indices":329,"material":1,"mode":4},{"attributes":{"NORMAL":201,"POSITION":72},"indices":330,"material":1,"mode":4},{"attributes":{"NORMAL":202,"POSITION":73},"indices":331,"material":1,"mode":4},{"attributes":{"NORMAL":203,"POSITION":74},"indices":332,"material":1,"mode":4},{"attributes":{"NORMAL":204,"POSITION":75},"indices":333,"material":1,"mode":4},{"attributes":{"NORMAL":205,"POSITION":76},"indices":334,"material":1,"mode":4},{"attributes":{"NORMAL":206,"POSITION":77},"indices":335,"material":1,"mode":4},{"attributes":{"NORMAL":207,"POSITION":78},"indices":336,"material":1,"mode":4},{"attributes":{"NORMAL":208,"POSITION":79},"indices":337,"material":1,"mode":4},{"attributes":{"NORMAL":209,"POSITION":80},"indices":338,"material":1,"mode":4},{"attributes":{"NORMAL":210,"POSITION":81},"indices":339,"material":1,"mode":4},{"attributes":{"NORMAL":211,"POSITION":82},"indices":340,"material":1,"mode":4},{"attributes":{"NORMAL":212,"POSITION":83},"indices":341,"material":1,"mode":4},{"attributes":{"NORMAL":213,"POSITION":84},"indices":342,"material":1,"mode":4},{"attributes":{"NORMAL":214,"POSITION":85},"indices":343,"material":1,"mode":4},{"attributes":{"NORMAL":215,"POSITION":86},"indices":344,"material":1,"mode":4},{"attributes":{"NORMAL":216,"POSITION":87},"indices":345,"material":1,"mode":4},{"attributes":{"NORMAL":217,"POSITION":88},"indices":346,"material":1,"mode":4},{"attributes":{"NORMAL":218,"POSITION":89},"indices":347,"material":1,"mode":4},{"attributes":{"NORMAL":219,"POSITION":90},"indices":348,"material":1,"mode":4},{"attributes":{"NORMAL":220,"POSITION":91},"indices":349,"material":1,"mode":4},{"attributes":{"NORMAL":221,"POSITION":92},"indices":350,"material":1,"mode":4},{"attributes":{"NORMAL":222,"POSITION":93},"indices":351,"material":1,"mode":4},{"attributes":{"NORMAL":223,"POSITION":94},"indices":352,"material":1,"mode":4},{"attributes":{"NORMAL":224,"POSITION":95},"indices":353,"material":1,"mode":4},{"attributes":{"NORMAL":225,"POSITION":96},"indices":354,"material":1,"mode":4},{"attributes":{"NORMAL":226,"POSITION":97},"indices":355,"material":1,"mode":4},{"attributes":{"NORMAL":227,"POSITION":98},"indices":356,"material":1,"mode":4},{"attributes":{"NORMAL":228,"POSITION":99},"indices":357,"material":1,"mode":4},{"attributes":{"NORMAL":229,"POSITION":100},"indices":358,"material":1,"mode":4},{"attributes":{"NORMAL":230,"POSITION":101},"indices":359,"material":1,"mode":4},{"attributes":{"NORMAL":231,"POSITION":102},"indices":360,"material":1,"mode":4},{"attributes":{"NORMAL":232,"POSITION":103},"indices":361,"material":1,"mode":4},{"attributes":{"NORMAL":233,"POSITION":104},"indices":362,"material":1,"mode":4},{"attributes":{"NORMAL":234,"POSITION":105},"indices":363,"material":1,"mode":4},{"attributes":{"NORMAL":235,"POSITION":106},"indices":364,"material":1,"mode":4},{"attributes":{"NORMAL":236,"POSITION":107},"indices":365,"material":1,"mode":4},{"attributes":{"NORMAL":237,"POSITION":108},"indices":366,"material":1,"mode":4},{"attributes":{"NORMAL":238,"POSITION":109},"indices":367,"material":1,"mode":4},{"attributes":{"NORMAL":239,"POSITION":110},"indices":368,"material":1,"mode":4},{"attributes":{"NORMAL":240,"POSITION":111},"indices":369,"material":1,"mode":4},{"attributes":{"NORMAL":241,"POSITION":112},"indices":370,"material":1,"mode":4},{"attributes":{"NORMAL":242,"POSITION":113},"indices":371,"material":1,"mode":4},{"attributes":{"NORMAL":243,"POSITION":114},"indices":372,"material":1,"mode":4},{"attributes":{"NORMAL":244,"POSITION":115},"indices":373,"material":1,"mode":4},{"attributes":{"NORMAL":245,"POSITION":116},"indices":374,"material":1,"mode":4},{"attributes":{"NORMAL":246,"POSITION":117},"indices":375,"material":1,"mode":4},{"attributes":{"NORMAL":247,"POSITION":118},"indices":376,"material":1,"mode":4},{"attributes":{"NORMAL":248,"POSITION":119},"indices":377,"material":1,"mode":4},{"attributes":{"NORMAL":249,"POSITION":120},"indices":378,"material":1,"mode":4},{"attributes":{"NORMAL":250,"POSITION":121},"indices":379,"material":1,"mode":4},{"attributes":{"NORMAL":251,"POSITION":122},"indices":380,"material":1,"mode":4},{"attributes":{"NORMAL":252,"POSITION":123},"indices":381,"material":1,"mode":4},{"attributes":{"NORMAL":253,"POSITION":124},"indices":382,"material":1,"mode":4},{"attributes":{"NORMAL":254,"POSITION":125},"indices":383,"material":1,"mode":4},{"attributes":{"NORMAL":255,"POSITION":126},"indices":384,"material":1,"mode":4},{"attributes":{"NORMAL":256,"POSITION":127},"indices":385,"material":1,"mode":4},{"attributes":{"NORMAL":257,"POSITION":128},"indices":386,"material":1,"mode":4}]}],"nodes":[{"children":[1,2],"name":"Unnamed"},{"mesh":0,"name":"Support0_002"},{"mesh":1,"name":"Support0_1"}],"scene":0,"scenes":[{"nodes":[0]}]}