{"accessors":[{"bufferView":0,"byteOffset":0,"componentType":5126,"count":28,"max":[0.055,0.00999999962300001,0.009927088740980557],"min":[-0.045,-0.010000000377,-6.19384641860285e-17],"type":"VEC3"},{"bufferView":0,"byteOffset":336,"componentType":5126,"count":26,"max":[-0.045,0.00999999962300001,0.009927088740980557],"min":[-0.045,-0.010000000377,-0.009927088740980543],"type":"VEC3"},{"bufferView":0,"byteOffset":648,"componentType":5126,"count":26,"max":[0.055,0.00999999962300001,0.009927088740980557],"min":[0.055,-0.010000000377,-0.009927088740980524],"type":"VEC3"},{"bufferView":0,"byteOffset":960,"componentType":5126,"count":28,"max":[0.055,0.00999999962300001,1.10143836982174e-16],"min":[-0.045,-0.010000000377,-0.009927088740980543],"type":"VEC3"},{"bufferView":1,"byteOffset":0,"componentType":5126,"count":28,"type":"VEC3"},{"bufferView":1,"byteOffset":336,"componentType":5126,"count":26,"type":"VEC3"},{"bufferView":1,"byteOffset":648,"componentType":5126,"count":26,"type":"VEC3"},{"bufferView":1,"byteOffset":960,"componentType":5126,"count":28,"type":"VEC3"},{"bufferView":2,"byteOffset":0,"componentType":5123,"count":78,"type":"SCALAR"},{"bufferView":2,"byteOffset":156,"componentType":5123,"count":72,"type":"SCALAR"},{"bufferView":2,"byteOffset":300,"componentType":5123,"count":72,"type":"SCALAR"},{"bufferView":2,"byteOffset":444,"componentType":5123,"count":78,"type":"SCALAR"}],"asset":{"generator":"Open CASCADE Technology 7.6 [dev.opencascade.org]","version":"2.0"},"bufferViews":[{"buffer":0,"byteLength":1296,"byteOffset":0,"byteStride":12,"target":34962},{"buffer":0,"byteLength":1296,"byteOffset":1296,"byteStride":12,"target":34962},{"buffer":0,"byteLength":600,"byteOffset":2592,"target":34963}],"buffers":[{"byteLength":3192,"uri":"Roth_7.bin"}],"materials":[{"name":"mat_0","pbrMetallicRoughness":{"baseColorFactor":[0.0,0.0,1.0,0.5],"metallicFactor":0.0},"doubleSided":true,"alphaMode":"BLEND"}],"meshes":[{"name":"Eye_Axe","primitives":[{"attributes":{"NORMAL":4,"POSITION":0},"indices":8,"material":0,"mode":4},{"attributes":{"NORMAL":5,"POSITION":1},"indices":9,"material":0,"mode":4},{"attributes":{"NORMAL":6,"POSITION":2},"indices":10,"material":0,"mode":4},{"attributes":{"NORMAL":7,"POSITION":3},"indices":11,"material":0,"mode":4}]}],"nodes":[{"mesh":0,"name":"Eye_Axe"}],"scene":0,"scenes":[{"nodes":[0]}]}