{
	"asset":{
		"generator":"Khronos glTF Blender I/O v5.0.21",
		"version":"2.0"
	},
	"scene":0,
	"scenes":[
		{
			"name":"Scene",
			"nodes":[
				0,
				1,
				2,
				3,
				4,
				5,
				6,
				7,
				8,
				9,
				10,
				11,
				12,
				13,
				14,
				15,
				16,
				17,
				18,
				19,
				20,
				21,
				22,
				23
			]
		}
	],
	"nodes":[
		{
			"mesh":0,
			"name":"winder_crosscarriage1"
		},
		{
			"mesh":1,
			"name":"Thin_Torus_Sector",
			"scale":[
				0.033000003546476364,
				0.033000003546476364,
				0.033000003546476364
			],
			"translation":[
				0,
				0.25,
				0.07999999821186066
			]
		},
		{
			"mesh":2,
			"name":"Arrow_start",
			"rotation":[
				0.6830127239227295,
				0.1830126941204071,
				-0.6830126643180847,
				0.1830127239227295
			],
			"scale":[
				0.03300000727176666,
				0.03300000727176666,
				0.03300000727176666
			],
			"translation":[
				0.06007172912359238,
				0.2795504033565521,
				0.0801229327917099
			]
		},
		{
			"mesh":3,
			"name":"Arrow_end",
			"rotation":[
				0.6830127239227295,
				-0.1830126941204071,
				0.6830126643180847,
				0.1830127239227295
			],
			"scale":[
				0.03300000727176666,
				0.03300000727176666,
				0.03300000727176666
			],
			"translation":[
				-0.0586201548576355,
				0.28021466732025146,
				0.08040885627269745
			]
		},
		{
			"mesh":4,
			"name":"Letter_B",
			"rotation":[
				0.7071068286895752,
				0,
				0,
				0.7071068286895752
			],
			"scale":[
				0.10000000149011612,
				0.10000000149011612,
				0.10000000149011612
			],
			"translation":[
				8.776318281888962e-06,
				0.3551315665245056,
				0.08429999649524689
			]
		},
		{
			"name":"Thin_Torus_Sector.002"
		},
		{
			"name":"Thin_Torus_Sector.003"
		},
		{
			"name":"Thin_Torus_Sector.001"
		},
		{
			"mesh":5,
			"name":"Arrow_start.001",
			"rotation":[
				0.1830127090215683,
				0.6830126643180847,
				-0.6830127239227295,
				0.1830127090215683
			],
			"scale":[
				0.06599999964237213,
				0.06599999964237213,
				0.06599999964237213
			],
			"translation":[
				0.11787651479244232,
				0.4399875998497009,
				0.0573149099946022
			]
		},
		{
			"mesh":6,
			"name":"Arrow_end.001",
			"rotation":[
				0.1830126792192459,
				-0.6830126643180847,
				0.6830127239227295,
				0.1830126792192459
			],
			"scale":[
				0.06599999964237213,
				0.06599999964237213,
				0.06599999964237213
			],
			"translation":[
				-0.11785002797842026,
				0.4397446811199188,
				0.05975671857595444
			]
		},
		{
			"mesh":7,
			"name":"Thin_Torus_Sector.005",
			"rotation":[
				-1,
				0,
				0,
				4.371138828673793e-08
			],
			"scale":[
				0.06599999964237213,
				0.06599999964237213,
				0.06599999964237213
			],
			"translation":[
				0,
				0.43953201174736023,
				0
			]
		},
		{
			"mesh":8,
			"name":"Letter_B.001",
			"rotation":[
				0.7071068286895752,
				0,
				0,
				0.7071068286895752
			],
			"scale":[
				0.10000000149011612,
				0.10000000149011612,
				0.10000000149011612
			],
			"translation":[
				0,
				0.47731631994247437,
				0.10000000149011612
			]
		},
		{
			"mesh":9,
			"name":"winder_crosscarriage1.001"
		},
		{
			"mesh":10,
			"name":"Thin_Torus_Sector.004",
			"scale":[
				0.033000003546476364,
				0.033000003546476364,
				0.033000003546476364
			],
			"translation":[
				0,
				0.25,
				0.07999999821186066
			]
		},
		{
			"mesh":11,
			"name":"Arrow_start.002",
			"rotation":[
				0.6830127239227295,
				0.1830126792192459,
				-0.6830126643180847,
				0.1830127090215683
			],
			"scale":[
				0.03300000727176666,
				0.03300000727176666,
				0.03300000727176666
			],
			"translation":[
				0.06007172912359238,
				0.2795504033565521,
				0.0801229327917099
			]
		},
		{
			"mesh":12,
			"name":"Arrow_end.002",
			"rotation":[
				0.6830127239227295,
				-0.1830126792192459,
				0.6830126643180847,
				0.1830127090215683
			],
			"scale":[
				0.03300000727176666,
				0.03300000727176666,
				0.03300000727176666
			],
			"translation":[
				-0.0586201548576355,
				0.28021466732025146,
				0.08040885627269745
			]
		},
		{
			"mesh":13,
			"name":"Letter_B.002",
			"rotation":[
				0.70710688829422,
				0,
				0,
				0.7071066498756409
			],
			"scale":[
				0.10000000149011612,
				0.10000001639127731,
				0.10000001639127731
			],
			"translation":[
				8.776318281888962e-06,
				0.3551315665245056,
				0.08429999649524689
			]
		},
		{
			"name":"Thin_Torus_Sector.006"
		},
		{
			"name":"Thin_Torus_Sector.007"
		},
		{
			"name":"Thin_Torus_Sector.008"
		},
		{
			"mesh":14,
			"name":"Arrow_start.003",
			"rotation":[
				0.1830126941204071,
				0.6830126643180847,
				-0.6830127239227295,
				0.1830126941204071
			],
			"scale":[
				0.06599999964237213,
				0.06599999964237213,
				0.06599999964237213
			],
			"translation":[
				0.11787651479244232,
				0.4399875998497009,
				0.0573149099946022
			]
		},
		{
			"mesh":15,
			"name":"Arrow_end.003",
			"rotation":[
				0.1830126792192459,
				-0.6830126643180847,
				0.6830127239227295,
				0.1830126792192459
			],
			"scale":[
				0.06599999964237213,
				0.06599999964237213,
				0.06599999219179153
			],
			"translation":[
				-0.11785002797842026,
				0.4397446811199188,
				0.05975671857595444
			]
		},
		{
			"mesh":16,
			"name":"Thin_Torus_Sector.009",
			"rotation":[
				-1,
				0,
				0,
				4.371138828673793e-08
			],
			"scale":[
				0.06599999964237213,
				0.06599999964237213,
				0.06599999964237213
			],
			"translation":[
				0,
				0.43953201174736023,
				0
			]
		},
		{
			"mesh":17,
			"name":"Letter_B.003",
			"rotation":[
				0.70710688829422,
				0,
				0,
				0.7071066498756409
			],
			"scale":[
				0.10000000149011612,
				0.10000001639127731,
				0.10000001639127731
			],
			"translation":[
				0,
				0.47731631994247437,
				0.10000000149011612
			]
		}
	],
	"materials":[
		{
			"alphaMode":"BLEND",
			"doubleSided":true,
			"name":"mat_0.017",
			"pbrMetallicRoughness":{
				"baseColorFactor":[
					0.09207991510629654,
					0.09143128991127014,
					0.10314926505088806,
					0.33000001311302185
				]
			}
		},
		{
			"doubleSided":true,
			"name":"mat_0.022",
			"pbrMetallicRoughness":{
				"baseColorFactor":[
					0,
					1,
					0,
					1
				]
			}
		},
		{
			"alphaMode":"BLEND",
			"doubleSided":true,
			"name":"mat_0.002",
			"pbrMetallicRoughness":{
				"baseColorFactor":[
					0.1475755125284195,
					0.4403883218765259,
					1,
					75
				]
			}
		},
		{
			"alphaMode":"BLEND",
			"doubleSided":true,
			"name":"mat_0.003",
			"pbrMetallicRoughness":{
				"baseColorFactor":[
					0,
					0.32751306891441345,
					0,
					0.75
				]
			}
		},
		{
			"doubleSided":true,
			"name":"mat_0.004",
			"pbrMetallicRoughness":{
				"baseColorFactor":[
					0,
					1,
					0,
					1
				]
			}
		},
		{
			"alphaMode":"BLEND",
			"doubleSided":true,
			"name":"mat_0.005",
			"pbrMetallicRoughness":{
				"baseColorFactor":[
					0.1475755125284195,
					0.4403883218765259,
					1,
					75
				]
			}
		}
	],
	"meshes":[
		{
			"name":"winder_crosscarriage1.003",
			"primitives":[
				{
					"attributes":{
						"POSITION":0,
						"NORMAL":1
					},
					"indices":2,
					"material":0
				}
			]
		},
		{
			"name":"\u0422\u043e\u0440.022",
			"primitives":[
				{
					"attributes":{
						"POSITION":3,
						"NORMAL":4,
						"TEXCOORD_0":5
					},
					"indices":6
				}
			]
		},
		{
			"name":"\u041a\u043e\u043d\u0443\u0441.036",
			"primitives":[
				{
					"attributes":{
						"POSITION":7,
						"NORMAL":8,
						"TEXCOORD_0":9
					},
					"indices":10
				}
			]
		},
		{
			"name":"\u041a\u043e\u043d\u0443\u0441.037",
			"primitives":[
				{
					"attributes":{
						"POSITION":11,
						"NORMAL":12,
						"TEXCOORD_0":13
					},
					"indices":10
				}
			]
		},
		{
			"name":"C",
			"primitives":[
				{
					"attributes":{
						"POSITION":14,
						"NORMAL":15,
						"TEXCOORD_0":16
					},
					"indices":17,
					"material":1
				}
			]
		},
		{
			"name":"\u041a\u043e\u043d\u0443\u0441.062",
			"primitives":[
				{
					"attributes":{
						"POSITION":18,
						"NORMAL":19,
						"TEXCOORD_0":20
					},
					"indices":10
				}
			]
		},
		{
			"name":"\u041a\u043e\u043d\u0443\u0441.063",
			"primitives":[
				{
					"attributes":{
						"POSITION":21,
						"NORMAL":22,
						"TEXCOORD_0":23
					},
					"indices":10
				}
			]
		},
		{
			"name":"\u0422\u043e\u0440.036",
			"primitives":[
				{
					"attributes":{
						"POSITION":24,
						"NORMAL":25,
						"TEXCOORD_0":26
					},
					"indices":27
				}
			]
		},
		{
			"name":"C.001",
			"primitives":[
				{
					"attributes":{
						"POSITION":28,
						"NORMAL":29,
						"TEXCOORD_0":30
					},
					"indices":31,
					"material":2
				}
			]
		},
		{
			"name":"winder_crosscarriage1.001",
			"primitives":[
				{
					"attributes":{
						"POSITION":32,
						"NORMAL":33
					},
					"indices":2,
					"material":3
				}
			]
		},
		{
			"name":"\u0422\u043e\u0440.037",
			"primitives":[
				{
					"attributes":{
						"POSITION":34,
						"NORMAL":35,
						"TEXCOORD_0":36
					},
					"indices":37
				}
			]
		},
		{
			"name":"\u041a\u043e\u043d\u0443\u0441.066",
			"primitives":[
				{
					"attributes":{
						"POSITION":38,
						"NORMAL":39,
						"TEXCOORD_0":40
					},
					"indices":10
				}
			]
		},
		{
			"name":"\u041a\u043e\u043d\u0443\u0441.067",
			"primitives":[
				{
					"attributes":{
						"POSITION":41,
						"NORMAL":42,
						"TEXCOORD_0":43
					},
					"indices":10
				}
			]
		},
		{
			"name":"C",
			"primitives":[
				{
					"attributes":{
						"POSITION":44,
						"NORMAL":45,
						"TEXCOORD_0":46
					},
					"indices":17,
					"material":4
				}
			]
		},
		{
			"name":"\u041a\u043e\u043d\u0443\u0441.068",
			"primitives":[
				{
					"attributes":{
						"POSITION":47,
						"NORMAL":48,
						"TEXCOORD_0":49
					},
					"indices":10
				}
			]
		},
		{
			"name":"\u041a\u043e\u043d\u0443\u0441.069",
			"primitives":[
				{
					"attributes":{
						"POSITION":50,
						"NORMAL":51,
						"TEXCOORD_0":52
					},
					"indices":10
				}
			]
		},
		{
			"name":"\u0422\u043e\u0440.038",
			"primitives":[
				{
					"attributes":{
						"POSITION":53,
						"NORMAL":54,
						"TEXCOORD_0":55
					},
					"indices":56
				}
			]
		},
		{
			"name":"C.001",
			"primitives":[
				{
					"attributes":{
						"POSITION":57,
						"NORMAL":58,
						"TEXCOORD_0":59
					},
					"indices":31,
					"material":5
				}
			]
		}
	],
	"accessors":[
		{
			"bufferView":0,
			"componentType":5126,
			"count":576,
			"max":[
				0.13918039202690125,
				0.8862456679344177,
				0.11375359445810318
			],
			"min":[
				-0.13919638097286224,
				-3.0003006031620316e-05,
				-0.2022373080253601
			],
			"type":"VEC3"
		},
		{
			"bufferView":1,
			"componentType":5126,
			"count":576,
			"type":"VEC3"
		},
		{
			"bufferView":2,
			"componentType":5123,
			"count":1008,
			"type":"SCALAR"
		},
		{
			"bufferView":3,
			"componentType":5126,
			"count":1280,
			"max":[
				1.704512596130371,
				2.049999952316284,
				0.050000086426734924
			],
			"min":[
				-1.7045124769210815,
				1.0833619832992554,
				-0.04999995231628418
			],
			"type":"VEC3"
		},
		{
			"bufferView":4,
			"componentType":5126,
			"count":1280,
			"type":"VEC3"
		},
		{
			"bufferView":5,
			"componentType":5126,
			"count":1280,
			"type":"VEC2"
		},
		{
			"bufferView":6,
			"componentType":5123,
			"count":1920,
			"type":"SCALAR"
		},
		{
			"bufferView":7,
			"componentType":5126,
			"count":128,
			"max":[
				0.15000000596046448,
				0.25,
				0.15000000596046448
			],
			"min":[
				-0.15000000596046448,
				-0.25,
				-0.15000000596046448
			],
			"type":"VEC3"
		},
		{
			"bufferView":8,
			"componentType":5126,
			"count":128,
			"type":"VEC3"
		},
		{
			"bufferView":9,
			"componentType":5126,
			"count":128,
			"type":"VEC2"
		},
		{
			"bufferView":10,
			"componentType":5123,
			"count":186,
			"type":"SCALAR"
		},
		{
			"bufferView":11,
			"componentType":5126,
			"count":128,
			"max":[
				0.15000000596046448,
				0.25,
				0.15000000596046448
			],
			"min":[
				-0.15000000596046448,
				-0.25,
				-0.15000000596046448
			],
			"type":"VEC3"
		},
		{
			"bufferView":12,
			"componentType":5126,
			"count":128,
			"type":"VEC3"
		},
		{
			"bufferView":13,
			"componentType":5126,
			"count":128,
			"type":"VEC2"
		},
		{
			"bufferView":14,
			"componentType":5126,
			"count":1430,
			"max":[
				0.1725379377603531,
				0.05000000074505806,
				0.19512882828712463
			],
			"min":[
				-0.18072715401649475,
				-0.05000000074505806,
				-0.18778680264949799
			],
			"type":"VEC3"
		},
		{
			"bufferView":15,
			"componentType":5126,
			"count":1430,
			"type":"VEC3"
		},
		{
			"bufferView":16,
			"componentType":5126,
			"count":1430,
			"type":"VEC2"
		},
		{
			"bufferView":17,
			"componentType":5123,
			"count":4284,
			"type":"SCALAR"
		},
		{
			"bufferView":18,
			"componentType":5126,
			"count":128,
			"max":[
				0.15000000596046448,
				0.25,
				0.15000000596046448
			],
			"min":[
				-0.15000000596046448,
				-0.25,
				-0.15000000596046448
			],
			"type":"VEC3"
		},
		{
			"bufferView":19,
			"componentType":5126,
			"count":128,
			"type":"VEC3"
		},
		{
			"bufferView":20,
			"componentType":5126,
			"count":128,
			"type":"VEC2"
		},
		{
			"bufferView":21,
			"componentType":5126,
			"count":128,
			"max":[
				0.15000000596046448,
				0.25,
				0.15000000596046448
			],
			"min":[
				-0.15000000596046448,
				-0.25,
				-0.15000000596046448
			],
			"type":"VEC3"
		},
		{
			"bufferView":22,
			"componentType":5126,
			"count":128,
			"type":"VEC3"
		},
		{
			"bufferView":23,
			"componentType":5126,
			"count":128,
			"type":"VEC2"
		},
		{
			"bufferView":24,
			"componentType":5126,
			"count":1280,
			"max":[
				1.704512596130371,
				0.05000000074505806,
				-1.0833619832992554
			],
			"min":[
				-1.7045124769210815,
				-0.05000000074505806,
				-2.049999952316284
			],
			"type":"VEC3"
		},
		{
			"bufferView":25,
			"componentType":5126,
			"count":1280,
			"type":"VEC3"
		},
		{
			"bufferView":26,
			"componentType":5126,
			"count":1280,
			"type":"VEC2"
		},
		{
			"bufferView":27,
			"componentType":5123,
			"count":1920,
			"type":"SCALAR"
		},
		{
			"bufferView":28,
			"componentType":5126,
			"count":1074,
			"max":[
				0.17719732224941254,
				0.05000000074505806,
				0.20388279855251312
			],
			"min":[
				-0.18595127761363983,
				-0.05000000074505806,
				-0.19654078781604767
			],
			"type":"VEC3"
		},
		{
			"bufferView":29,
			"componentType":5126,
			"count":1074,
			"type":"VEC3"
		},
		{
			"bufferView":30,
			"componentType":5126,
			"count":1074,
			"type":"VEC2"
		},
		{
			"bufferView":31,
			"componentType":5123,
			"count":3204,
			"type":"SCALAR"
		},
		{
			"bufferView":32,
			"componentType":5126,
			"count":576,
			"max":[
				0.13918039202690125,
				0.8862456679344177,
				0.11375359445810318
			],
			"min":[
				-0.13919638097286224,
				-3.0003006031620316e-05,
				-0.2022373080253601
			],
			"type":"VEC3"
		},
		{
			"bufferView":33,
			"componentType":5126,
			"count":576,
			"type":"VEC3"
		},
		{
			"bufferView":34,
			"componentType":5126,
			"count":1318,
			"max":[
				1.704512596130371,
				2.049999952316284,
				0.050000086426734924
			],
			"min":[
				-1.7045124769210815,
				1.0833619832992554,
				-0.04999995231628418
			],
			"type":"VEC3"
		},
		{
			"bufferView":35,
			"componentType":5126,
			"count":1318,
			"type":"VEC3"
		},
		{
			"bufferView":36,
			"componentType":5126,
			"count":1318,
			"type":"VEC2"
		},
		{
			"bufferView":37,
			"componentType":5123,
			"count":1920,
			"type":"SCALAR"
		},
		{
			"bufferView":38,
			"componentType":5126,
			"count":128,
			"max":[
				0.15000000596046448,
				0.25,
				0.15000000596046448
			],
			"min":[
				-0.15000000596046448,
				-0.25,
				-0.15000000596046448
			],
			"type":"VEC3"
		},
		{
			"bufferView":39,
			"componentType":5126,
			"count":128,
			"type":"VEC3"
		},
		{
			"bufferView":40,
			"componentType":5126,
			"count":128,
			"type":"VEC2"
		},
		{
			"bufferView":41,
			"componentType":5126,
			"count":128,
			"max":[
				0.15000000596046448,
				0.25,
				0.15000000596046448
			],
			"min":[
				-0.15000000596046448,
				-0.25,
				-0.15000000596046448
			],
			"type":"VEC3"
		},
		{
			"bufferView":42,
			"componentType":5126,
			"count":128,
			"type":"VEC3"
		},
		{
			"bufferView":43,
			"componentType":5126,
			"count":128,
			"type":"VEC2"
		},
		{
			"bufferView":44,
			"componentType":5126,
			"count":1430,
			"max":[
				0.1725379377603531,
				0.05000000074505806,
				0.19512882828712463
			],
			"min":[
				-0.18072715401649475,
				-0.05000000074505806,
				-0.18778680264949799
			],
			"type":"VEC3"
		},
		{
			"bufferView":45,
			"componentType":5126,
			"count":1430,
			"type":"VEC3"
		},
		{
			"bufferView":46,
			"componentType":5126,
			"count":1430,
			"type":"VEC2"
		},
		{
			"bufferView":47,
			"componentType":5126,
			"count":128,
			"max":[
				0.15000000596046448,
				0.25,
				0.15000000596046448
			],
			"min":[
				-0.15000000596046448,
				-0.25,
				-0.15000000596046448
			],
			"type":"VEC3"
		},
		{
			"bufferView":48,
			"componentType":5126,
			"count":128,
			"type":"VEC3"
		},
		{
			"bufferView":49,
			"componentType":5126,
			"count":128,
			"type":"VEC2"
		},
		{
			"bufferView":50,
			"componentType":5126,
			"count":128,
			"max":[
				0.15000000596046448,
				0.25,
				0.15000000596046448
			],
			"min":[
				-0.15000000596046448,
				-0.25,
				-0.15000000596046448
			],
			"type":"VEC3"
		},
		{
			"bufferView":51,
			"componentType":5126,
			"count":128,
			"type":"VEC3"
		},
		{
			"bufferView":52,
			"componentType":5126,
			"count":128,
			"type":"VEC2"
		},
		{
			"bufferView":53,
			"componentType":5126,
			"count":1342,
			"max":[
				1.704512596130371,
				0.05000000074505806,
				-1.0833619832992554
			],
			"min":[
				-1.7045124769210815,
				-0.05000000074505806,
				-2.049999952316284
			],
			"type":"VEC3"
		},
		{
			"bufferView":54,
			"componentType":5126,
			"count":1342,
			"type":"VEC3"
		},
		{
			"bufferView":55,
			"componentType":5126,
			"count":1342,
			"type":"VEC2"
		},
		{
			"bufferView":56,
			"componentType":5123,
			"count":1920,
			"type":"SCALAR"
		},
		{
			"bufferView":57,
			"componentType":5126,
			"count":1074,
			"max":[
				0.17719732224941254,
				0.05000000074505806,
				0.20388279855251312
			],
			"min":[
				-0.18595127761363983,
				-0.05000000074505806,
				-0.19654078781604767
			],
			"type":"VEC3"
		},
		{
			"bufferView":58,
			"componentType":5126,
			"count":1074,
			"type":"VEC3"
		},
		{
			"bufferView":59,
			"componentType":5126,
			"count":1074,
			"type":"VEC2"
		}
	],
	"bufferViews":[
		{
			"buffer":0,
			"byteLength":6912,
			"byteOffset":0,
			"target":34962
		},
		{
			"buffer":0,
			"byteLength":6912,
			"byteOffset":6912,
			"target":34962
		},
		{
			"buffer":0,
			"byteLength":2016,
			"byteOffset":13824,
			"target":34963
		},
		{
			"buffer":0,
			"byteLength":15360,
			"byteOffset":15840,
			"target":34962
		},
		{
			"buffer":0,
			"byteLength":15360,
			"byteOffset":31200,
			"target":34962
		},
		{
			"buffer":0,
			"byteLength":10240,
			"byteOffset":46560,
			"target":34962
		},
		{
			"buffer":0,
			"byteLength":3840,
			"byteOffset":56800,
			"target":34963
		},
		{
			"buffer":0,
			"byteLength":1536,
			"byteOffset":60640,
			"target":34962
		},
		{
			"buffer":0,
			"byteLength":1536,
			"byteOffset":62176,
			"target":34962
		},
		{
			"buffer":0,
			"byteLength":1024,
			"byteOffset":63712,
			"target":34962
		},
		{
			"buffer":0,
			"byteLength":372,
			"byteOffset":64736,
			"target":34963
		},
		{
			"buffer":0,
			"byteLength":1536,
			"byteOffset":65108,
			"target":34962
		},
		{
			"buffer":0,
			"byteLength":1536,
			"byteOffset":66644,
			"target":34962
		},
		{
			"buffer":0,
			"byteLength":1024,
			"byteOffset":68180,
			"target":34962
		},
		{
			"buffer":0,
			"byteLength":17160,
			"byteOffset":69204,
			"target":34962
		},
		{
			"buffer":0,
			"byteLength":17160,
			"byteOffset":86364,
			"target":34962
		},
		{
			"buffer":0,
			"byteLength":11440,
			"byteOffset":103524,
			"target":34962
		},
		{
			"buffer":0,
			"byteLength":8568,
			"byteOffset":114964,
			"target":34963
		},
		{
			"buffer":0,
			"byteLength":1536,
			"byteOffset":123532,
			"target":34962
		},
		{
			"buffer":0,
			"byteLength":1536,
			"byteOffset":125068,
			"target":34962
		},
		{
			"buffer":0,
			"byteLength":1024,
			"byteOffset":126604,
			"target":34962
		},
		{
			"buffer":0,
			"byteLength":1536,
			"byteOffset":127628,
			"target":34962
		},
		{
			"buffer":0,
			"byteLength":1536,
			"byteOffset":129164,
			"target":34962
		},
		{
			"buffer":0,
			"byteLength":1024,
			"byteOffset":130700,
			"target":34962
		},
		{
			"buffer":0,
			"byteLength":15360,
			"byteOffset":131724,
			"target":34962
		},
		{
			"buffer":0,
			"byteLength":15360,
			"byteOffset":147084,
			"target":34962
		},
		{
			"buffer":0,
			"byteLength":10240,
			"byteOffset":162444,
			"target":34962
		},
		{
			"buffer":0,
			"byteLength":3840,
			"byteOffset":172684,
			"target":34963
		},
		{
			"buffer":0,
			"byteLength":12888,
			"byteOffset":176524,
			"target":34962
		},
		{
			"buffer":0,
			"byteLength":12888,
			"byteOffset":189412,
			"target":34962
		},
		{
			"buffer":0,
			"byteLength":8592,
			"byteOffset":202300,
			"target":34962
		},
		{
			"buffer":0,
			"byteLength":6408,
			"byteOffset":210892,
			"target":34963
		},
		{
			"buffer":0,
			"byteLength":6912,
			"byteOffset":217300,
			"target":34962
		},
		{
			"buffer":0,
			"byteLength":6912,
			"byteOffset":224212,
			"target":34962
		},
		{
			"buffer":0,
			"byteLength":15816,
			"byteOffset":231124,
			"target":34962
		},
		{
			"buffer":0,
			"byteLength":15816,
			"byteOffset":246940,
			"target":34962
		},
		{
			"buffer":0,
			"byteLength":10544,
			"byteOffset":262756,
			"target":34962
		},
		{
			"buffer":0,
			"byteLength":3840,
			"byteOffset":273300,
			"target":34963
		},
		{
			"buffer":0,
			"byteLength":1536,
			"byteOffset":277140,
			"target":34962
		},
		{
			"buffer":0,
			"byteLength":1536,
			"byteOffset":278676,
			"target":34962
		},
		{
			"buffer":0,
			"byteLength":1024,
			"byteOffset":280212,
			"target":34962
		},
		{
			"buffer":0,
			"byteLength":1536,
			"byteOffset":281236,
			"target":34962
		},
		{
			"buffer":0,
			"byteLength":1536,
			"byteOffset":282772,
			"target":34962
		},
		{
			"buffer":0,
			"byteLength":1024,
			"byteOffset":284308,
			"target":34962
		},
		{
			"buffer":0,
			"byteLength":17160,
			"byteOffset":285332,
			"target":34962
		},
		{
			"buffer":0,
			"byteLength":17160,
			"byteOffset":302492,
			"target":34962
		},
		{
			"buffer":0,
			"byteLength":11440,
			"byteOffset":319652,
			"target":34962
		},
		{
			"buffer":0,
			"byteLength":1536,
			"byteOffset":331092,
			"target":34962
		},
		{
			"buffer":0,
			"byteLength":1536,
			"byteOffset":332628,
			"target":34962
		},
		{
			"buffer":0,
			"byteLength":1024,
			"byteOffset":334164,
			"target":34962
		},
		{
			"buffer":0,
			"byteLength":1536,
			"byteOffset":335188,
			"target":34962
		},
		{
			"buffer":0,
			"byteLength":1536,
			"byteOffset":336724,
			"target":34962
		},
		{
			"buffer":0,
			"byteLength":1024,
			"byteOffset":338260,
			"target":34962
		},
		{
			"buffer":0,
			"byteLength":16104,
			"byteOffset":339284,
			"target":34962
		},
		{
			"buffer":0,
			"byteLength":16104,
			"byteOffset":355388,
			"target":34962
		},
		{
			"buffer":0,
			"byteLength":10736,
			"byteOffset":371492,
			"target":34962
		},
		{
			"buffer":0,
			"byteLength":3840,
			"byteOffset":382228,
			"target":34963
		},
		{
			"buffer":0,
			"byteLength":12888,
			"byteOffset":386068,
			"target":34962
		},
		{
			"buffer":0,
			"byteLength":12888,
			"byteOffset":398956,
			"target":34962
		},
		{
			"buffer":0,
			"byteLength":8592,
			"byteOffset":411844,
			"target":34962
		}
	],
	"buffers":[
		{
			"byteLength":420436,
			"uri":"Roth_4.bin"
		}
	]
}
