{"accessors":[{"bufferView":0,"byteOffset":0,"componentType":5126,"count":62,"max":[0.070695,0.0,0.07039342759317746],"min":[-0.070695,0.0,-0.07039342759317746],"type":"VEC3"},{"bufferView":0,"byteOffset":744,"componentType":5126,"count":62,"max":[0.070695,0.0838,0.07039342759317746],"min":[-0.070695,0.0838,-0.07039342759317746],"type":"VEC3"},{"bufferView":0,"byteOffset":1488,"componentType":5126,"count":30,"max":[0.046,0.0838,0.0],"min":[-0.046,0.0,-0.046],"type":"VEC3"},{"bufferView":0,"byteOffset":1848,"componentType":5126,"count":36,"max":[0.070695,0.0838,0.07039342759317746],"min":[-0.070695,0.0,-8.65764054657221e-18],"type":"VEC3"},{"bufferView":0,"byteOffset":2280,"componentType":5126,"count":30,"max":[0.046,0.0838,0.046],"min":[-0.046,0.0,-5.63337527607782e-18],"type":"VEC3"},{"bufferView":0,"byteOffset":2640,"componentType":5126,"count":36,"max":[0.070695,0.0838,0.0],"min":[-0.070695,0.0,-0.07039342759317746],"type":"VEC3"},{"bufferView":0,"byteOffset":3072,"componentType":5126,"count":4,"max":[0.0257266702271163,0.0867998401442453,0.0511468294204548],"min":[0.0219546742046995,0.0837998401442453,0.0446135406636812],"type":"VEC3"},{"bufferView":0,"byteOffset":3120,"componentType":5126,"count":4,"max":[0.0332706622719498,0.0867998401442453,0.0446135406636812],"min":[0.0257266702271163,0.0837998401442453,0.0446135406636812],"type":"VEC3"},{"bufferView":0,"byteOffset":3168,"componentType":5126,"count":4,"max":[0.03704265829436661,0.0867998401442453,0.0511468294204548],"min":[0.0332706622719498,0.0837998401442453,0.0446135406636812],"type":"VEC3"},{"bufferView":0,"byteOffset":3216,"componentType":5126,"count":4,"max":[0.03704265829436661,0.0867998401442453,0.0576801181772284],"min":[0.0332706622719498,0.0837998401442453,0.0511468294204548],"type":"VEC3"},{"bufferView":0,"byteOffset":3264,"componentType":5126,"count":4,"max":[0.0332706622719498,0.0867998401442453,0.0576801181772284],"min":[0.0257266702271163,0.0837998401442453,0.0576801181772284],"type":"VEC3"},{"bufferView":0,"byteOffset":3312,"componentType":5126,"count":4,"max":[0.0257266702271163,0.0867998401442453,0.0576801181772284],"min":[0.0219546742046995,0.0837998401442453,0.0511468294204548],"type":"VEC3"},{"bufferView":0,"byteOffset":3360,"componentType":5126,"count":6,"max":[0.03704265829436661,0.0837998401442453,0.0576801181772284],"min":[0.0219546742046995,0.0837998401442453,0.0446135406636812],"type":"VEC3"},{"bufferView":0,"byteOffset":3432,"componentType":5126,"count":6,"max":[0.03704265829436661,0.0867998401442453,0.0576801181772284],"min":[0.0219546742046995,0.0867998401442453,0.0446135406636812],"type":"VEC3"},{"bufferView":0,"byteOffset":3504,"componentType":5126,"count":4,"max":[0.055256305961211709,0.0867998401442453,0.0],"min":[0.0514843099387949,0.0837998401442453,-0.006533288756773591],"type":"VEC3"},{"bufferView":0,"byteOffset":3552,"componentType":5126,"count":4,"max":[0.06280029800604531,0.0867998401442453,-0.006533288756773591],"min":[0.055256305961211709,0.0837998401442453,-0.006533288756773591],"type":"VEC3"},{"bufferView":0,"byteOffset":3600,"componentType":5126,"count":4,"max":[0.0665722940284621,0.0867998401442453,7.105427357601e-18],"min":[0.06280029800604531,0.0837998401442453,-0.006533288756773591],"type":"VEC3"},{"bufferView":0,"byteOffset":3648,"componentType":5126,"count":4,"max":[0.0665722940284621,0.0867998401442453,0.0065332887567735799],"min":[0.06280029800604531,0.0837998401442453,7.105427357601e-18],"type":"VEC3"},{"bufferView":0,"byteOffset":3696,"componentType":5126,"count":4,"max":[0.06280029800604531,0.0867998401442453,0.0065332887567735799],"min":[0.055256305961211709,0.0837998401442453,0.0065332887567735799],"type":"VEC3"},{"bufferView":0,"byteOffset":3744,"componentType":5126,"count":4,"max":[0.055256305961211709,0.0867998401442453,0.0065332887567735799],"min":[0.0514843099387949,0.0837998401442453,0.0],"type":"VEC3"},{"bufferView":0,"byteOffset":3792,"componentType":5126,"count":6,"max":[0.0665722940284621,0.0837998401442453,0.0065332887567735799],"min":[0.0514843099387949,0.0837998401442453,-0.006533288756773591],"type":"VEC3"},{"bufferView":0,"byteOffset":3864,"componentType":5126,"count":6,"max":[0.0665722940284621,0.0867998401442453,0.0065332887567735799],"min":[0.0514843099387949,0.0867998401442453,-0.006533288756773591],"type":"VEC3"},{"bufferView":0,"byteOffset":3936,"componentType":5126,"count":4,"max":[0.0257266702271163,0.0867998401442453,-0.0511468294204548],"min":[0.0219546742046995,0.0837998401442453,-0.0576801181772284],"type":"VEC3"},{"bufferView":0,"byteOffset":3984,"componentType":5126,"count":4,"max":[0.0332706622719498,0.0867998401442453,-0.0576801181772284],"min":[0.0257266702271163,0.0837998401442453,-0.0576801181772284],"type":"VEC3"},{"bufferView":0,"byteOffset":4032,"componentType":5126,"count":4,"max":[0.03704265829436661,0.0867998401442453,-0.0511468294204548],"min":[0.0332706622719498,0.0837998401442453,-0.0576801181772284],"type":"VEC3"},{"bufferView":0,"byteOffset":4080,"componentType":5126,"count":4,"max":[0.03704265829436661,0.0867998401442453,-0.0446135406636812],"min":[0.0332706622719498,0.0837998401442453,-0.0511468294204548],"type":"VEC3"},{"bufferView":0,"byteOffset":4128,"componentType":5126,"count":4,"max":[0.0332706622719498,0.0867998401442453,-0.0446135406636812],"min":[0.0257266702271163,0.0837998401442453,-0.0446135406636812],"type":"VEC3"},{"bufferView":0,"byteOffset":4176,"componentType":5126,"count":4,"max":[0.0257266702271163,0.0867998401442453,-0.0446135406636812],"min":[0.0219546742046995,0.0837998401442453,-0.0511468294204548],"type":"VEC3"},{"bufferView":0,"byteOffset":4224,"componentType":5126,"count":6,"max":[0.03704265829436661,0.0837998401442453,-0.0446135406636812],"min":[0.0219546742046995,0.0837998401442453,-0.0576801181772284],"type":"VEC3"},{"bufferView":0,"byteOffset":4296,"componentType":5126,"count":6,"max":[0.03704265829436661,0.0867998401442453,-0.0446135406636812],"min":[0.0219546742046995,0.0867998401442453,-0.0576801181772284],"type":"VEC3"},{"bufferView":0,"byteOffset":4368,"componentType":5126,"count":4,"max":[-0.0333326012410747,0.0867998401442453,-0.0511468294204548],"min":[-0.0371045972634915,0.0837998401442453,-0.0576801181772284],"type":"VEC3"},{"bufferView":0,"byteOffset":4416,"componentType":5126,"count":4,"max":[-0.0257886091962411,0.0867998401442453,-0.0576801181772284],"min":[-0.0333326012410747,0.0837998401442453,-0.0576801181772284],"type":"VEC3"},{"bufferView":0,"byteOffset":4464,"componentType":5126,"count":4,"max":[-0.0220166131738243,0.0867998401442453,-0.0511468294204548],"min":[-0.0257886091962411,0.0837998401442453,-0.0576801181772284],"type":"VEC3"},{"bufferView":0,"byteOffset":4512,"componentType":5126,"count":4,"max":[-0.0220166131738243,0.0867998401442453,-0.0446135406636812],"min":[-0.0257886091962411,0.0837998401442453,-0.0511468294204548],"type":"VEC3"},{"bufferView":0,"byteOffset":4560,"componentType":5126,"count":4,"max":[-0.0257886091962411,0.0867998401442453,-0.0446135406636812],"min":[-0.0333326012410747,0.0837998401442453,-0.0446135406636812],"type":"VEC3"},{"bufferView":0,"byteOffset":4608,"componentType":5126,"count":4,"max":[-0.0333326012410747,0.0867998401442453,-0.0446135406636812],"min":[-0.0371045972634915,0.0837998401442453,-0.0511468294204548],"type":"VEC3"},{"bufferView":0,"byteOffset":4656,"componentType":5126,"count":6,"max":[-0.0220166131738243,0.0837998401442453,-0.0446135406636812],"min":[-0.0371045972634915,0.0837998401442453,-0.0576801181772284],"type":"VEC3"},{"bufferView":0,"byteOffset":4728,"componentType":5126,"count":6,"max":[-0.0220166131738243,0.0867998401442453,-0.0446135406636812],"min":[-0.0371045972634915,0.0867998401442453,-0.0576801181772284],"type":"VEC3"},{"bufferView":0,"byteOffset":4800,"componentType":5126,"count":4,"max":[-0.0628622369751701,0.0867998401442453,4.2632564145606e-17],"min":[-0.0666342329975869,0.0837998401442453,-0.00653328875677354],"type":"VEC3"},{"bufferView":0,"byteOffset":4848,"componentType":5126,"count":4,"max":[-0.0553182449303365,0.0867998401442453,-0.00653328875677354],"min":[-0.0628622369751701,0.0837998401442453,-0.00653328875677354],"type":"VEC3"},{"bufferView":0,"byteOffset":4896,"componentType":5126,"count":4,"max":[-0.0515462489079197,0.0867998401442453,4.9737991503207e-17],"min":[-0.0553182449303365,0.0837998401442453,-0.00653328875677354],"type":"VEC3"},{"bufferView":0,"byteOffset":4944,"componentType":5126,"count":4,"max":[-0.0515462489079197,0.0867998401442453,0.00653328875677362],"min":[-0.0553182449303365,0.0837998401442453,4.9737991503207e-17],"type":"VEC3"},{"bufferView":0,"byteOffset":4992,"componentType":5126,"count":4,"max":[-0.0553182449303365,0.0867998401442453,0.00653328875677362],"min":[-0.0628622369751701,0.0837998401442453,0.00653328875677362],"type":"VEC3"},{"bufferView":0,"byteOffset":5040,"componentType":5126,"count":4,"max":[-0.0628622369751701,0.0867998401442453,0.00653328875677362],"min":[-0.0666342329975869,0.0837998401442453,4.2632564145606e-17],"type":"VEC3"},{"bufferView":0,"byteOffset":5088,"componentType":5126,"count":6,"max":[-0.0515462489079197,0.0837998401442453,0.00653328875677362],"min":[-0.0666342329975869,0.0837998401442453,-0.00653328875677354],"type":"VEC3"},{"bufferView":0,"byteOffset":5160,"componentType":5126,"count":6,"max":[-0.0515462489079197,0.0867998401442453,0.00653328875677362],"min":[-0.0666342329975869,0.0867998401442453,-0.00653328875677354],"type":"VEC3"},{"bufferView":0,"byteOffset":5232,"componentType":5126,"count":4,"max":[-0.0333326012410746,0.0867998401442453,0.0511468294204548],"min":[-0.0371045972634914,0.0837998401442453,0.0446135406636812],"type":"VEC3"},{"bufferView":0,"byteOffset":5280,"componentType":5126,"count":4,"max":[-0.0257886091962411,0.0867998401442453,0.0446135406636812],"min":[-0.0333326012410746,0.0837998401442453,0.0446135406636812],"type":"VEC3"},{"bufferView":0,"byteOffset":5328,"componentType":5126,"count":4,"max":[-0.0220166131738243,0.0867998401442453,0.0511468294204548],"min":[-0.0257886091962411,0.0837998401442453,0.0446135406636812],"type":"VEC3"},{"bufferView":0,"byteOffset":5376,"componentType":5126,"count":4,"max":[-0.0220166131738243,0.0867998401442453,0.0576801181772284],"min":[-0.0257886091962411,0.0837998401442453,0.0511468294204548],"type":"VEC3"},{"bufferView":0,"byteOffset":5424,"componentType":5126,"count":4,"max":[-0.0257886091962411,0.0867998401442453,0.0576801181772284],"min":[-0.0333326012410746,0.0837998401442453,0.0576801181772284],"type":"VEC3"},{"bufferView":0,"byteOffset":5472,"componentType":5126,"count":4,"max":[-0.0333326012410746,0.0867998401442453,0.0576801181772284],"min":[-0.0371045972634914,0.0837998401442453,0.0511468294204548],"type":"VEC3"},{"bufferView":0,"byteOffset":5520,"componentType":5126,"count":6,"max":[-0.0220166131738243,0.0837998401442453,0.0576801181772284],"min":[-0.0371045972634914,0.0837998401442453,0.0446135406636812],"type":"VEC3"},{"bufferView":0,"byteOffset":5592,"componentType":5126,"count":6,"max":[-0.0220166131738243,0.0867998401442453,0.0576801181772284],"min":[-0.0371045972634914,0.0867998401442453,0.0446135406636812],"type":"VEC3"},{"bufferView":1,"byteOffset":0,"componentType":5126,"count":62,"type":"VEC3"},{"bufferView":1,"byteOffset":744,"componentType":5126,"count":62,"type":"VEC3"},{"bufferView":1,"byteOffset":1488,"componentType":5126,"count":30,"type":"VEC3"},{"bufferView":1,"byteOffset":1848,"componentType":5126,"count":36,"type":"VEC3"},{"bufferView":1,"byteOffset":2280,"componentType":5126,"count":30,"type":"VEC3"},{"bufferView":1,"byteOffset":2640,"componentType":5126,"count":36,"type":"VEC3"},{"bufferView":1,"byteOffset":3072,"componentType":5126,"count":4,"type":"VEC3"},{"bufferView":1,"byteOffset":3120,"componentType":5126,"count":4,"type":"VEC3"},{"bufferView":1,"byteOffset":3168,"componentType":5126,"count":4,"type":"VEC3"},{"bufferView":1,"byteOffset":3216,"componentType":5126,"count":4,"type":"VEC3"},{"bufferView":1,"byteOffset":3264,"componentType":5126,"count":4,"type":"VEC3"},{"bufferView":1,"byteOffset":3312,"componentType":5126,"count":4,"type":"VEC3"},{"bufferView":1,"byteOffset":3360,"componentType":5126,"count":6,"type":"VEC3"},{"bufferView":1,"byteOffset":3432,"componentType":5126,"count":6,"type":"VEC3"},{"bufferView":1,"byteOffset":3504,"componentType":5126,"count":4,"type":"VEC3"},{"bufferView":1,"byteOffset":3552,"componentType":5126,"count":4,"type":"VEC3"},{"bufferView":1,"byteOffset":3600,"componentType":5126,"count":4,"type":"VEC3"},{"bufferView":1,"byteOffset":3648,"componentType":5126,"count":4,"type":"VEC3"},{"bufferView":1,"byteOffset":3696,"componentType":5126,"count":4,"type":"VEC3"},{"bufferView":1,"byteOffset":3744,"componentType":5126,"count":4,"type":"VEC3"},{"bufferView":1,"byteOffset":3792,"componentType":5126,"count":6,"type":"VEC3"},{"bufferView":1,"byteOffset":3864,"componentType":5126,"count":6,"type":"VEC3"},{"bufferView":1,"byteOffset":3936,"componentType":5126,"count":4,"type":"VEC3"},{"bufferView":1,"byteOffset":3984,"componentType":5126,"count":4,"type":"VEC3"},{"bufferView":1,"byteOffset":4032,"componentType":5126,"count":4,"type":"VEC3"},{"bufferView":1,"byteOffset":4080,"componentType":5126,"count":4,"type":"VEC3"},{"bufferView":1,"byteOffset":4128,"componentType":5126,"count":4,"type":"VEC3"},{"bufferView":1,"byteOffset":4176,"componentType":5126,"count":4,"type":"VEC3"},{"bufferView":1,"byteOffset":4224,"componentType":5126,"count":6,"type":"VEC3"},{"bufferView":1,"byteOffset":4296,"componentType":5126,"count":6,"type":"VEC3"},{"bufferView":1,"byteOffset":4368,"componentType":5126,"count":4,"type":"VEC3"},{"bufferView":1,"byteOffset":4416,"componentType":5126,"count":4,"type":"VEC3"},{"bufferView":1,"byteOffset":4464,"componentType":5126,"count":4,"type":"VEC3"},{"bufferView":1,"byteOffset":4512,"componentType":5126,"count":4,"type":"VEC3"},{"bufferView":1,"byteOffset":4560,"componentType":5126,"count":4,"type":"VEC3"},{"bufferView":1,"byteOffset":4608,"componentType":5126,"count":4,"type":"VEC3"},{"bufferView":1,"byteOffset":4656,"componentType":5126,"count":6,"type":"VEC3"},{"bufferView":1,"byteOffset":4728,"componentType":5126,"count":6,"type":"VEC3"},{"bufferView":1,"byteOffset":4800,"componentType":5126,"count":4,"type":"VEC3"},{"bufferView":1,"byteOffset":4848,"componentType":5126,"count":4,"type":"VEC3"},{"bufferView":1,"byteOffset":4896,"componentType":5126,"count":4,"type":"VEC3"},{"bufferView":1,"byteOffset":4944,"componentType":5126,"count":4,"type":"VEC3"},{"bufferView":1,"byteOffset":4992,"componentType":5126,"count":4,"type":"VEC3"},{"bufferView":1,"byteOffset":5040,"componentType":5126,"count":4,"type":"VEC3"},{"bufferView":1,"byteOffset":5088,"componentType":5126,"count":6,"type":"VEC3"},{"bufferView":1,"byteOffset":5160,"componentType":5126,"count":6,"type":"VEC3"},{"bufferView":1,"byteOffset":5232,"componentType":5126,"count":4,"type":"VEC3"},{"bufferView":1,"byteOffset":5280,"componentType":5126,"count":4,"type":"VEC3"},{"bufferView":1,"byteOffset":5328,"componentType":5126,"count":4,"type":"VEC3"},{"bufferView":1,"byteOffset":5376,"componentType":5126,"count":4,"type":"VEC3"},{"bufferView":1,"byteOffset":5424,"componentType":5126,"count":4,"type":"VEC3"},{"bufferView":1,"byteOffset":5472,"componentType":5126,"count":4,"type":"VEC3"},{"bufferView":1,"byteOffset":5520,"componentType":5126,"count":6,"type":"VEC3"},{"bufferView":1,"byteOffset":5592,"componentType":5126,"count":6,"type":"VEC3"},{"bufferView":2,"byteOffset":0,"componentType":5123,"count":186,"type":"SCALAR"},{"bufferView":2,"byteOffset":372,"componentType":5123,"count":186,"type":"SCALAR"},{"bufferView":2,"byteOffset":744,"componentType":5123,"count":84,"type":"SCALAR"},{"bufferView":2,"byteOffset":912,"componentType":5123,"count":102,"type":"SCALAR"},{"bufferView":2,"byteOffset":1116,"componentType":5123,"count":84,"type":"SCALAR"},{"bufferView":2,"byteOffset":1284,"componentType":5123,"count":102,"type":"SCALAR"},{"bufferView":2,"byteOffset":1488,"componentType":5123,"count":6,"type":"SCALAR"},{"bufferView":2,"byteOffset":1500,"componentType":5123,"count":6,"type":"SCALAR"},{"bufferView":2,"byteOffset":1512,"componentType":5123,"count":6,"type":"SCALAR"},{"bufferView":2,"byteOffset":1524,"componentType":5123,"count":6,"type":"SCALAR"},{"bufferView":2,"byteOffset":1536,"componentType":5123,"count":6,"type":"SCALAR"},{"bufferView":2,"byteOffset":1548,"componentType":5123,"count":6,"type":"SCALAR"},{"bufferView":2,"byteOffset":1560,"componentType":5123,"count":12,"type":"SCALAR"},{"bufferView":2,"byteOffset":1584,"componentType":5123,"count":12,"type":"SCALAR"},{"bufferView":2,"byteOffset":1608,"componentType":5123,"count":6,"type":"SCALAR"},{"bufferView":2,"byteOffset":1620,"componentType":5123,"count":6,"type":"SCALAR"},{"bufferView":2,"byteOffset":1632,"componentType":5123,"count":6,"type":"SCALAR"},{"bufferView":2,"byteOffset":1644,"componentType":5123,"count":6,"type":"SCALAR"},{"bufferView":2,"byteOffset":1656,"componentType":5123,"count":6,"type":"SCALAR"},{"bufferView":2,"byteOffset":1668,"componentType":5123,"count":6,"type":"SCALAR"},{"bufferView":2,"byteOffset":1680,"componentType":5123,"count":12,"type":"SCALAR"},{"bufferView":2,"byteOffset":1704,"componentType":5123,"count":12,"type":"SCALAR"},{"bufferView":2,"byteOffset":1728,"componentType":5123,"count":6,"type":"SCALAR"},{"bufferView":2,"byteOffset":1740,"componentType":5123,"count":6,"type":"SCALAR"},{"bufferView":2,"byteOffset":1752,"componentType":5123,"count":6,"type":"SCALAR"},{"bufferView":2,"byteOffset":1764,"componentType":5123,"count":6,"type":"SCALAR"},{"bufferView":2,"byteOffset":1776,"componentType":5123,"count":6,"type":"SCALAR"},{"bufferView":2,"byteOffset":1788,"componentType":5123,"count":6,"type":"SCALAR"},{"bufferView":2,"byteOffset":1800,"componentType":5123,"count":12,"type":"SCALAR"},{"bufferView":2,"byteOffset":1824,"componentType":5123,"count":12,"type":"SCALAR"},{"bufferView":2,"byteOffset":1848,"componentType":5123,"count":6,"type":"SCALAR"},{"bufferView":2,"byteOffset":1860,"componentType":5123,"count":6,"type":"SCALAR"},{"bufferView":2,"byteOffset":1872,"componentType":5123,"count":6,"type":"SCALAR"},{"bufferView":2,"byteOffset":1884,"componentType":5123,"count":6,"type":"SCALAR"},{"bufferView":2,"byteOffset":1896,"componentType":5123,"count":6,"type":"SCALAR"},{"bufferView":2,"byteOffset":1908,"componentType":5123,"count":6,"type":"SCALAR"},{"bufferView":2,"byteOffset":1920,"componentType":5123,"count":12,"type":"SCALAR"},{"bufferView":2,"byteOffset":1944,"componentType":5123,"count":12,"type":"SCALAR"},{"bufferView":2,"byteOffset":1968,"componentType":5123,"count":6,"type":"SCALAR"},{"bufferView":2,"byteOffset":1980,"componentType":5123,"count":6,"type":"SCALAR"},{"bufferView":2,"byteOffset":1992,"componentType":5123,"count":6,"type":"SCALAR"},{"bufferView":2,"byteOffset":2004,"componentType":5123,"count":6,"type":"SCALAR"},{"bufferView":2,"byteOffset":2016,"componentType":5123,"count":6,"type":"SCALAR"},{"bufferView":2,"byteOffset":2028,"componentType":5123,"count":6,"type":"SCALAR"},{"bufferView":2,"byteOffset":2040,"componentType":5123,"count":12,"type":"SCALAR"},{"bufferView":2,"byteOffset":2064,"componentType":5123,"count":12,"type":"SCALAR"},{"bufferView":2,"byteOffset":2088,"componentType":5123,"count":6,"type":"SCALAR"},{"bufferView":2,"byteOffset":2100,"componentType":5123,"count":6,"type":"SCALAR"},{"bufferView":2,"byteOffset":2112,"componentType":5123,"count":6,"type":"SCALAR"},{"bufferView":2,"byteOffset":2124,"componentType":5123,"count":6,"type":"SCALAR"},{"bufferView":2,"byteOffset":2136,"componentType":5123,"count":6,"type":"SCALAR"},{"bufferView":2,"byteOffset":2148,"componentType":5123,"count":6,"type":"SCALAR"},{"bufferView":2,"byteOffset":2160,"componentType":5123,"count":12,"type":"SCALAR"},{"bufferView":2,"byteOffset":2184,"componentType":5123,"count":12,"type":"SCALAR"}],"asset":{"generator":"Open CASCADE Technology 7.6 [dev.opencascade.org]","version":"2.0"},"bufferViews":[{"buffer":0,"byteLength":5664,"byteOffset":0,"byteStride":12,"target":34962},{"buffer":0,"byteLength":5664,"byteOffset":5664,"byteStride":12,"target":34962},{"buffer":0,"byteLength":2208,"byteOffset":11328,"target":34963}],"buffers":[{"byteLength":13536,"uri":"Roth_5.bin"}],"materials":[{"name":"mat_0","pbrMetallicRoughness":{"baseColorFactor":[0.0,0.0,1.0,0.699999988079071],"metallicFactor":0.0},"doubleSided":true,"alphaMode":"BLEND"}],"meshes":[{"name":"Eye","primitives":[{"attributes":{"NORMAL":54,"POSITION":0},"indices":108,"material":0,"mode":4},{"attributes":{"NORMAL":55,"POSITION":1},"indices":109,"material":0,"mode":4},{"attributes":{"NORMAL":56,"POSITION":2},"indices":110,"material":0,"mode":4},{"attributes":{"NORMAL":57,"POSITION":3},"indices":111,"material":0,"mode":4},{"attributes":{"NORMAL":58,"POSITION":4},"indices":112,"material":0,"mode":4},{"attributes":{"NORMAL":59,"POSITION":5},"indices":113,"material":0,"mode":4}]},{"name":"Eye010","primitives":[{"attributes":{"NORMAL":60,"POSITION":6},"indices":114,"material":0,"mode":4},{"attributes":{"NORMAL":61,"POSITION":7},"indices":115,"material":0,"mode":4},{"attributes":{"NORMAL":62,"POSITION":8},"indices":116,"material":0,"mode":4},{"attributes":{"NORMAL":63,"POSITION":9},"indices":117,"material":0,"mode":4},{"attributes":{"NORMAL":64,"POSITION":10},"indices":118,"material":0,"mode":4},{"attributes":{"NORMAL":65,"POSITION":11},"indices":119,"material":0,"mode":4},{"attributes":{"NORMAL":66,"POSITION":12},"indices":120,"material":0,"mode":4},{"attributes":{"NORMAL":67,"POSITION":13},"indices":121,"material":0,"mode":4}]},{"name":"Eye011","primitives":[{"attributes":{"NORMAL":68,"POSITION":14},"indices":122,"material":0,"mode":4},{"attributes":{"NORMAL":69,"POSITION":15},"indices":123,"material":0,"mode":4},{"attributes":{"NORMAL":70,"POSITION":16},"indices":124,"material":0,"mode":4},{"attributes":{"NORMAL":71,"POSITION":17},"indices":125,"material":0,"mode":4},{"attributes":{"NORMAL":72,"POSITION":18},"indices":126,"material":0,"mode":4},{"attributes":{"NORMAL":73,"POSITION":19},"indices":127,"material":0,"mode":4},{"attributes":{"NORMAL":74,"POSITION":20},"indices":128,"material":0,"mode":4},{"attributes":{"NORMAL":75,"POSITION":21},"indices":129,"material":0,"mode":4}]},{"name":"Eye012","primitives":[{"attributes":{"NORMAL":76,"POSITION":22},"indices":130,"material":0,"mode":4},{"attributes":{"NORMAL":77,"POSITION":23},"indices":131,"material":0,"mode":4},{"attributes":{"NORMAL":78,"POSITION":24},"indices":132,"material":0,"mode":4},{"attributes":{"NORMAL":79,"POSITION":25},"indices":133,"material":0,"mode":4},{"attributes":{"NORMAL":80,"POSITION":26},"indices":134,"material":0,"mode":4},{"attributes":{"NORMAL":81,"POSITION":27},"indices":135,"material":0,"mode":4},{"attributes":{"NORMAL":82,"POSITION":28},"indices":136,"material":0,"mode":4},{"attributes":{"NORMAL":83,"POSITION":29},"indices":137,"material":0,"mode":4}]},{"name":"Eye013","primitives":[{"attributes":{"NORMAL":84,"POSITION":30},"indices":138,"material":0,"mode":4},{"attributes":{"NORMAL":85,"POSITION":31},"indices":139,"material":0,"mode":4},{"attributes":{"NORMAL":86,"POSITION":32},"indices":140,"material":0,"mode":4},{"attributes":{"NORMAL":87,"POSITION":33},"indices":141,"material":0,"mode":4},{"attributes":{"NORMAL":88,"POSITION":34},"indices":142,"material":0,"mode":4},{"attributes":{"NORMAL":89,"POSITION":35},"indices":143,"material":0,"mode":4},{"attributes":{"NORMAL":90,"POSITION":36},"indices":144,"material":0,"mode":4},{"attributes":{"NORMAL":91,"POSITION":37},"indices":145,"material":0,"mode":4}]},{"name":"Eye014","primitives":[{"attributes":{"NORMAL":92,"POSITION":38},"indices":146,"material":0,"mode":4},{"attributes":{"NORMAL":93,"POSITION":39},"indices":147,"material":0,"mode":4},{"attributes":{"NORMAL":94,"POSITION":40},"indices":148,"material":0,"mode":4},{"attributes":{"NORMAL":95,"POSITION":41},"indices":149,"material":0,"mode":4},{"attributes":{"NORMAL":96,"POSITION":42},"indices":150,"material":0,"mode":4},{"attributes":{"NORMAL":97,"POSITION":43},"indices":151,"material":0,"mode":4},{"attributes":{"NORMAL":98,"POSITION":44},"indices":152,"material":0,"mode":4},{"attributes":{"NORMAL":99,"POSITION":45},"indices":153,"material":0,"mode":4}]},{"name":"Eye015","primitives":[{"attributes":{"NORMAL":100,"POSITION":46},"indices":154,"material":0,"mode":4},{"attributes":{"NORMAL":101,"POSITION":47},"indices":155,"material":0,"mode":4},{"attributes":{"NORMAL":102,"POSITION":48},"indices":156,"material":0,"mode":4},{"attributes":{"NORMAL":103,"POSITION":49},"indices":157,"material":0,"mode":4},{"attributes":{"NORMAL":104,"POSITION":50},"indices":158,"material":0,"mode":4},{"attributes":{"NORMAL":105,"POSITION":51},"indices":159,"material":0,"mode":4},{"attributes":{"NORMAL":106,"POSITION":52},"indices":160,"material":0,"mode":4},{"attributes":{"NORMAL":107,"POSITION":53},"indices":161,"material":0,"mode":4}]}],"nodes":[{"children":[1,2,3,4,5,6,7],"name":"Unnamed1"},{"mesh":0,"name":"Eye"},{"mesh":1,"name":"Eye010"},{"mesh":2,"name":"Eye011"},{"mesh":3,"name":"Eye012"},{"mesh":4,"name":"Eye013"},{"mesh":5,"name":"Eye014"},{"mesh":6,"name":"Eye015"}],"scene":0,"scenes":[{"nodes":[0]}]}