{"accessors":[{"bufferView":0,"byteOffset":0,"componentType":5126,"count":12,"max":[0.0200000000000039,0.0184,0.0499860266823083],"min":[-0.0200000000000333,0.018399999990665103,-0.050000000000044408],"type":"VEC3"},{"bufferView":0,"byteOffset":144,"componentType":5126,"count":8,"max":[0.00999999999999387,0.0946575039906689,0.04908320916723521],"min":[-0.0200000000000333,0.06935888743453429,-0.050000000000044408],"type":"VEC3"},{"bufferView":0,"byteOffset":240,"componentType":5126,"count":59,"max":[-0.01,0.0946575039906689,0.0499860266823082],"min":[-0.0100000000000365,0.018399999990668899,-0.050000000000044408],"type":"VEC3"},{"bufferView":0,"byteOffset":948,"componentType":5126,"count":59,"max":[0.010000000000003902,0.0946575039906689,0.0499860266821298],"min":[0.009999999999972189,0.018399999998444804,-0.0500000000000407],"type":"VEC3"},{"bufferView":0,"byteOffset":1656,"componentType":5126,"count":36,"max":[0.025,0.11473463705009701,-0.05],"min":[-0.0250000000000333,0.0920373899769846,-0.050000000000044408],"type":"VEC3"},{"bufferView":0,"byteOffset":2088,"componentType":5126,"count":22,"max":[0.0250000000000165,0.019788553395957099,-0.049999999999999],"min":[-0.0250000000000333,0.0,-0.050000000000044408],"type":"VEC3"},{"bufferView":0,"byteOffset":2352,"componentType":5126,"count":18,"max":[0.0250000000000039,0.0879397178069825,0.050000000000003],"min":[-0.025,0.0753447982156725,0.05],"type":"VEC3"},{"bufferView":0,"byteOffset":2568,"componentType":5126,"count":14,"max":[0.0250000000000039,0.0176525125678156,0.05],"min":[-0.0250000000000067,0.0,0.0499999999999996],"type":"VEC3"},{"bufferView":0,"byteOffset":2736,"componentType":5126,"count":4,"max":[0.0100000000000027,0.0457253082498743,0.0430121632944291],"min":[-0.010000000000007302,0.0328407845697022,0.0279728769098957],"type":"VEC3"},{"bufferView":0,"byteOffset":2784,"componentType":5126,"count":4,"max":[0.010000000000001902,0.0562667402129583,0.036002308126459808],"min":[-0.010000000000006702,0.05429189075099081,0.0297253407018883],"type":"VEC3"},{"bufferView":0,"byteOffset":2832,"componentType":5126,"count":4,"max":[0.00999999999998944,0.047916217329884807,-0.0173516958783758],"min":[-0.010000000000036,0.0378613153623046,-0.038565936896077],"type":"VEC3"},{"bufferView":0,"byteOffset":2880,"componentType":5126,"count":4,"max":[0.009999999999989611,0.07617896019306661,-0.0164465610255663],"min":[-0.0100000000000365,0.0563990152674591,-0.042186476307305809],"type":"VEC3"},{"bufferView":0,"byteOffset":2928,"componentType":5126,"count":4,"max":[0.0100000000000003,0.0310126715754024,0.0330659560261183],"min":[-0.0100000000000111,0.0183999999937792,0.0166924343757305],"type":"VEC3"},{"bufferView":0,"byteOffset":2976,"componentType":5126,"count":4,"max":[0.00999999999999182,0.0330112450468076,-0.00454770503451733],"min":[-0.0100000000000277,0.0183999999937792,-0.0334021415491499],"type":"VEC3"},{"bufferView":0,"byteOffset":3024,"componentType":5126,"count":4,"max":[0.00999999999999603,0.0738308936629861,0.031568388641462507],"min":[-0.0100000000000106,0.06629146362718931,0.0181380819439654],"type":"VEC3"},{"bufferView":0,"byteOffset":3072,"componentType":5126,"count":4,"max":[0.00999999999999196,0.0904746535675561,-0.00374377050737138],"min":[-0.010000000000027801,0.0678004249040029,-0.033617671643513608],"type":"VEC3"},{"bufferView":0,"byteOffset":3120,"componentType":5126,"count":17,"max":[0.0250000000000165,0.0184,0.05],"min":[0.02,0.0134,-0.05000000000000303],"type":"VEC3"},{"bufferView":0,"byteOffset":3324,"componentType":5126,"count":27,"max":[-0.02,0.018399999995334403,0.05],"min":[-0.0250000000000333,0.013399999990668899,-0.0500000000000394],"type":"VEC3"},{"bufferView":0,"byteOffset":3648,"componentType":5126,"count":40,"max":[-0.0200000000000003,0.0998179106283967,0.0499722863903025],"min":[-0.0250000000000333,0.0693588874345364,-0.0500000000000394],"type":"VEC3"},{"bufferView":0,"byteOffset":4128,"componentType":5126,"count":4,"max":[0.020000000000003804,0.0946575039906689,0.0490892611358996],"min":[0.01,0.06937821550147,-0.0500000000000407],"type":"VEC3"},{"bufferView":0,"byteOffset":4176,"componentType":5126,"count":7,"max":[-0.0249999999999993,0.10955825614804801,0.0500000000000004],"min":[-0.0250000000000333,0.07429228866999421,-0.0500000000000394],"type":"VEC3"},{"bufferView":0,"byteOffset":4260,"componentType":5126,"count":44,"max":[-0.0199999999999847,0.11473463705009701,0.0500000000000004],"min":[-0.0250000000000333,0.0827633369049248,-0.0500000000000394],"type":"VEC3"},{"bufferView":0,"byteOffset":4788,"componentType":5126,"count":4,"max":[0.0200000000000048,0.11473463705009701,0.050000000000003],"min":[-0.0200000000000347,0.0879397178069749,-0.050000000000037198],"type":"VEC3"},{"bufferView":0,"byteOffset":4836,"componentType":5126,"count":35,"max":[0.0250000000000039,0.114734637050096,0.050000000000003],"min":[0.019999999999999,0.08276333690493201,-0.050000000000003128],"type":"VEC3"},{"bufferView":0,"byteOffset":5256,"componentType":5126,"count":7,"max":[0.0250000000000039,0.109558256148045,0.050000000000003],"min":[0.025,0.0743128142605086,-0.050000000000000707],"type":"VEC3"},{"bufferView":0,"byteOffset":5340,"componentType":5126,"count":44,"max":[0.0250000000000039,0.09981765016358761,0.0499733574823132],"min":[0.0200000000000028,0.06937821550147,-0.0500000000000032],"type":"VEC3"},{"bufferView":0,"byteOffset":5868,"componentType":5126,"count":4,"max":[0.0250000000000165,0.0134,0.05],"min":[0.025,0.0,-0.05],"type":"VEC3"},{"bufferView":0,"byteOffset":5916,"componentType":5126,"count":4,"max":[0.0250000000000039,0.0,0.05],"min":[-0.0250000000000333,0.0,-0.0500000000000394],"type":"VEC3"},{"bufferView":0,"byteOffset":5964,"componentType":5126,"count":4,"max":[-0.025,0.013399999990668899,0.05],"min":[-0.0250000000000333,0.0,-0.0500000000000394],"type":"VEC3"},{"bufferView":0,"byteOffset":6012,"componentType":5126,"count":10,"max":[0.010000000000000205,0.0920373899769875,-0.0421864763072991],"min":[-0.0100000000000365,0.07617896019303749,-0.0500000000000285],"type":"VEC3"},{"bufferView":0,"byteOffset":6132,"componentType":5126,"count":12,"max":[0.010000000000000323,0.0378613153623267,-0.0385659368960667],"min":[-0.010000000000036,0.0197885533959394,-0.050000000000011809],"type":"VEC3"},{"bufferView":0,"byteOffset":6276,"componentType":5126,"count":43,"max":[0.0250000000000039,0.07534479821567569,0.0500000000000001],"min":[-0.025000000000000055,0.056266740212955,0.036002308126459398],"type":"VEC3"},{"bufferView":0,"byteOffset":6792,"componentType":5126,"count":18,"max":[0.0226298549128209,0.0328407845697153,0.05],"min":[-0.0226298548977429,0.0176525125678074,0.043012163294413],"type":"VEC3"},{"bufferView":0,"byteOffset":7008,"componentType":5126,"count":12,"max":[0.010000000000002422,0.035164957553966039,0.0166924343757371],"min":[-0.0100000000000181,0.0310126715754024,-0.0045477050345258608],"type":"VEC3"},{"bufferView":0,"byteOffset":7152,"componentType":5126,"count":12,"max":[0.010000000000002512,0.0678004249040029,0.0181380819439742],"min":[-0.0100000000000179,0.063753655402696,-0.00374377050737804],"type":"VEC3"},{"bufferView":0,"byteOffset":7296,"componentType":5126,"count":20,"max":[0.0100000000000031,0.05429189075099081,0.029725340701894904],"min":[-0.010000000000007857,0.045725308249873999,0.02624335557234754],"type":"VEC3"},{"bufferView":0,"byteOffset":7536,"componentType":5126,"count":20,"max":[0.010000000000001394,0.0563990152674593,-0.014493311255571198],"min":[-0.0100000000000225,0.047916217329884807,-0.017351695878382403],"type":"VEC3"},{"bufferView":1,"byteOffset":0,"componentType":5126,"count":12,"type":"VEC3"},{"bufferView":1,"byteOffset":144,"componentType":5126,"count":8,"type":"VEC3"},{"bufferView":1,"byteOffset":240,"componentType":5126,"count":59,"type":"VEC3"},{"bufferView":1,"byteOffset":948,"componentType":5126,"count":59,"type":"VEC3"},{"bufferView":1,"byteOffset":1656,"componentType":5126,"count":36,"type":"VEC3"},{"bufferView":1,"byteOffset":2088,"componentType":5126,"count":22,"type":"VEC3"},{"bufferView":1,"byteOffset":2352,"componentType":5126,"count":18,"type":"VEC3"},{"bufferView":1,"byteOffset":2568,"componentType":5126,"count":14,"type":"VEC3"},{"bufferView":1,"byteOffset":2736,"componentType":5126,"count":4,"type":"VEC3"},{"bufferView":1,"byteOffset":2784,"componentType":5126,"count":4,"type":"VEC3"},{"bufferView":1,"byteOffset":2832,"componentType":5126,"count":4,"type":"VEC3"},{"bufferView":1,"byteOffset":2880,"componentType":5126,"count":4,"type":"VEC3"},{"bufferView":1,"byteOffset":2928,"componentType":5126,"count":4,"type":"VEC3"},{"bufferView":1,"byteOffset":2976,"componentType":5126,"count":4,"type":"VEC3"},{"bufferView":1,"byteOffset":3024,"componentType":5126,"count":4,"type":"VEC3"},{"bufferView":1,"byteOffset":3072,"componentType":5126,"count":4,"type":"VEC3"},{"bufferView":1,"byteOffset":3120,"componentType":5126,"count":17,"type":"VEC3"},{"bufferView":1,"byteOffset":3324,"componentType":5126,"count":27,"type":"VEC3"},{"bufferView":1,"byteOffset":3648,"componentType":5126,"count":40,"type":"VEC3"},{"bufferView":1,"byteOffset":4128,"componentType":5126,"count":4,"type":"VEC3"},{"bufferView":1,"byteOffset":4176,"componentType":5126,"count":7,"type":"VEC3"},{"bufferView":1,"byteOffset":4260,"componentType":5126,"count":44,"type":"VEC3"},{"bufferView":1,"byteOffset":4788,"componentType":5126,"count":4,"type":"VEC3"},{"bufferView":1,"byteOffset":4836,"componentType":5126,"count":35,"type":"VEC3"},{"bufferView":1,"byteOffset":5256,"componentType":5126,"count":7,"type":"VEC3"},{"bufferView":1,"byteOffset":5340,"componentType":5126,"count":44,"type":"VEC3"},{"bufferView":1,"byteOffset":5868,"componentType":5126,"count":4,"type":"VEC3"},{"bufferView":1,"byteOffset":5916,"componentType":5126,"count":4,"type":"VEC3"},{"bufferView":1,"byteOffset":5964,"componentType":5126,"count":4,"type":"VEC3"},{"bufferView":1,"byteOffset":6012,"componentType":5126,"count":10,"type":"VEC3"},{"bufferView":1,"byteOffset":6132,"componentType":5126,"count":12,"type":"VEC3"},{"bufferView":1,"byteOffset":6276,"componentType":5126,"count":43,"type":"VEC3"},{"bufferView":1,"byteOffset":6792,"componentType":5126,"count":18,"type":"VEC3"},{"bufferView":1,"byteOffset":7008,"componentType":5126,"count":12,"type":"VEC3"},{"bufferView":1,"byteOffset":7152,"componentType":5126,"count":12,"type":"VEC3"},{"bufferView":1,"byteOffset":7296,"componentType":5126,"count":20,"type":"VEC3"},{"bufferView":1,"byteOffset":7536,"componentType":5126,"count":20,"type":"VEC3"},{"bufferView":2,"byteOffset":0,"componentType":5123,"count":30,"type":"SCALAR"},{"bufferView":2,"byteOffset":60,"componentType":5123,"count":18,"type":"SCALAR"},{"bufferView":2,"byteOffset":96,"componentType":5123,"count":171,"type":"SCALAR"},{"bufferView":2,"byteOffset":440,"componentType":5123,"count":177,"type":"SCALAR"},{"bufferView":2,"byteOffset":796,"componentType":5123,"count":102,"type":"SCALAR"},{"bufferView":2,"byteOffset":1000,"componentType":5123,"count":60,"type":"SCALAR"},{"bufferView":2,"byteOffset":1120,"componentType":5123,"count":48,"type":"SCALAR"},{"bufferView":2,"byteOffset":1216,"componentType":5123,"count":36,"type":"SCALAR"},{"bufferView":2,"byteOffset":1288,"componentType":5123,"count":6,"type":"SCALAR"},{"bufferView":2,"byteOffset":1300,"componentType":5123,"count":6,"type":"SCALAR"},{"bufferView":2,"byteOffset":1312,"componentType":5123,"count":6,"type":"SCALAR"},{"bufferView":2,"byteOffset":1324,"componentType":5123,"count":6,"type":"SCALAR"},{"bufferView":2,"byteOffset":1336,"componentType":5123,"count":6,"type":"SCALAR"},{"bufferView":2,"byteOffset":1348,"componentType":5123,"count":6,"type":"SCALAR"},{"bufferView":2,"byteOffset":1360,"componentType":5123,"count":6,"type":"SCALAR"},{"bufferView":2,"byteOffset":1372,"componentType":5123,"count":6,"type":"SCALAR"},{"bufferView":2,"byteOffset":1384,"componentType":5123,"count":45,"type":"SCALAR"},{"bufferView":2,"byteOffset":1476,"componentType":5123,"count":105,"type":"SCALAR"},{"bufferView":2,"byteOffset":1688,"componentType":5123,"count":186,"type":"SCALAR"},{"bufferView":2,"byteOffset":2060,"componentType":5123,"count":6,"type":"SCALAR"},{"bufferView":2,"byteOffset":2072,"componentType":5123,"count":15,"type":"SCALAR"},{"bufferView":2,"byteOffset":2104,"componentType":5123,"count":210,"type":"SCALAR"},{"bufferView":2,"byteOffset":2524,"componentType":5123,"count":6,"type":"SCALAR"},{"bufferView":2,"byteOffset":2536,"componentType":5123,"count":156,"type":"SCALAR"},{"bufferView":2,"byteOffset":2848,"componentType":5123,"count":15,"type":"SCALAR"},{"bufferView":2,"byteOffset":2880,"componentType":5123,"count":210,"type":"SCALAR"},{"bufferView":2,"byteOffset":3300,"componentType":5123,"count":6,"type":"SCALAR"},{"bufferView":2,"byteOffset":3312,"componentType":5123,"count":6,"type":"SCALAR"},{"bufferView":2,"byteOffset":3324,"componentType":5123,"count":6,"type":"SCALAR"},{"bufferView":2,"byteOffset":3336,"componentType":5123,"count":24,"type":"SCALAR"},{"bufferView":2,"byteOffset":3384,"componentType":5123,"count":30,"type":"SCALAR"},{"bufferView":2,"byteOffset":3444,"componentType":5123,"count":156,"type":"SCALAR"},{"bufferView":2,"byteOffset":3756,"componentType":5123,"count":48,"type":"SCALAR"},{"bufferView":2,"byteOffset":3852,"componentType":5123,"count":30,"type":"SCALAR"},{"bufferView":2,"byteOffset":3912,"componentType":5123,"count":30,"type":"SCALAR"},{"bufferView":2,"byteOffset":3972,"componentType":5123,"count":54,"type":"SCALAR"},{"bufferView":2,"byteOffset":4080,"componentType":5123,"count":54,"type":"SCALAR"}],"asset":{"generator":"Open CASCADE Technology 7.6 [dev.opencascade.org]","version":"2.0"},"bufferViews":[{"buffer":0,"byteLength":7776,"byteOffset":0,"byteStride":12,"target":34962},{"buffer":0,"byteLength":7776,"byteOffset":7776,"byteStride":12,"target":34962},{"buffer":0,"byteLength":4188,"byteOffset":15552,"target":34963}],"buffers":[{"byteLength":19740,"uri":"RPN_1.bin"}],"materials":[{"name":"mat_0","pbrMetallicRoughness":{"baseColorFactor":[0.6038273572921753,0.6038273572921753,0.6038273572921753,1.0]},"doubleSided":true}],"meshes":[{"name":"SupportRPN_004","primitives":[{"attributes":{"NORMAL":37,"POSITION":0},"indices":74,"material":0,"mode":4},{"attributes":{"NORMAL":38,"POSITION":1},"indices":75,"material":0,"mode":4},{"attributes":{"NORMAL":39,"POSITION":2},"indices":76,"material":0,"mode":4},{"attributes":{"NORMAL":40,"POSITION":3},"indices":77,"material":0,"mode":4},{"attributes":{"NORMAL":41,"POSITION":4},"indices":78,"material":0,"mode":4},{"attributes":{"NORMAL":42,"POSITION":5},"indices":79,"material":0,"mode":4},{"attributes":{"NORMAL":43,"POSITION":6},"indices":80,"material":0,"mode":4},{"attributes":{"NORMAL":44,"POSITION":7},"indices":81,"material":0,"mode":4},{"attributes":{"NORMAL":45,"POSITION":8},"indices":82,"material":0,"mode":4},{"attributes":{"NORMAL":46,"POSITION":9},"indices":83,"material":0,"mode":4},{"attributes":{"NORMAL":47,"POSITION":10},"indices":84,"material":0,"mode":4},{"attributes":{"NORMAL":48,"POSITION":11},"indices":85,"material":0,"mode":4},{"attributes":{"NORMAL":49,"POSITION":12},"indices":86,"material":0,"mode":4},{"attributes":{"NORMAL":50,"POSITION":13},"indices":87,"material":0,"mode":4},{"attributes":{"NORMAL":51,"POSITION":14},"indices":88,"material":0,"mode":4},{"attributes":{"NORMAL":52,"POSITION":15},"indices":89,"material":0,"mode":4},{"attributes":{"NORMAL":53,"POSITION":16},"indices":90,"material":0,"mode":4},{"attributes":{"NORMAL":54,"POSITION":17},"indices":91,"material":0,"mode":4},{"attributes":{"NORMAL":55,"POSITION":18},"indices":92,"material":0,"mode":4},{"attributes":{"NORMAL":56,"POSITION":19},"indices":93,"material":0,"mode":4},{"attributes":{"NORMAL":57,"POSITION":20},"indices":94,"material":0,"mode":4},{"attributes":{"NORMAL":58,"POSITION":21},"indices":95,"material":0,"mode":4},{"attributes":{"NORMAL":59,"POSITION":22},"indices":96,"material":0,"mode":4},{"attributes":{"NORMAL":60,"POSITION":23},"indices":97,"material":0,"mode":4},{"attributes":{"NORMAL":61,"POSITION":24},"indices":98,"material":0,"mode":4},{"attributes":{"NORMAL":62,"POSITION":25},"indices":99,"material":0,"mode":4},{"attributes":{"NORMAL":63,"POSITION":26},"indices":100,"material":0,"mode":4},{"attributes":{"NORMAL":64,"POSITION":27},"indices":101,"material":0,"mode":4},{"attributes":{"NORMAL":65,"POSITION":28},"indices":102,"material":0,"mode":4},{"attributes":{"NORMAL":66,"POSITION":29},"indices":103,"material":0,"mode":4},{"attributes":{"NORMAL":67,"POSITION":30},"indices":104,"material":0,"mode":4},{"attributes":{"NORMAL":68,"POSITION":31},"indices":105,"material":0,"mode":4},{"attributes":{"NORMAL":69,"POSITION":32},"indices":106,"material":0,"mode":4},{"attributes":{"NORMAL":70,"POSITION":33},"indices":107,"material":0,"mode":4},{"attributes":{"NORMAL":71,"POSITION":34},"indices":108,"material":0,"mode":4},{"attributes":{"NORMAL":72,"POSITION":35},"indices":109,"material":0,"mode":4},{"attributes":{"NORMAL":73,"POSITION":36},"indices":110,"material":0,"mode":4}]}],"nodes":[{"mesh":0,"name":"SupportRPN_004"}],"scene":0,"scenes":[{"nodes":[0]}]}