{"accessors":[{"bufferView":0,"byteOffset":0,"componentType":5126,"count":74,"max":[0.0750000000000002,0.0149999999999999,9.184850993605069e-19],"min":[-0.0749999999999999,-0.0149999999999999,-0.014890633111470712],"type":"VEC3"},{"bufferView":0,"byteOffset":888,"componentType":5126,"count":74,"max":[0.0750000000000002,0.0149999999999999,0.014890633111470712],"min":[-0.0749999999999999,-0.0149999999999999,-2.75545529808152e-18],"type":"VEC3"},{"bufferView":0,"byteOffset":1776,"componentType":5126,"count":39,"max":[0.075,0.014724219040861657,0.014760140259053262],"min":[0.075,-0.014772120475768902,-0.014760140259053262],"type":"VEC3"},{"bufferView":0,"byteOffset":2244,"componentType":5126,"count":39,"max":[-0.0749999999999999,0.014951359622013055,0.014987834972573449],"min":[-0.075,-0.015,-0.014987834972573443],"type":"VEC3"},{"bufferView":1,"byteOffset":0,"componentType":5126,"count":74,"type":"VEC3"},{"bufferView":1,"byteOffset":888,"componentType":5126,"count":74,"type":"VEC3"},{"bufferView":1,"byteOffset":1776,"componentType":5126,"count":39,"type":"VEC3"},{"bufferView":1,"byteOffset":2244,"componentType":5126,"count":39,"type":"VEC3"},{"bufferView":2,"byteOffset":0,"componentType":5123,"count":324,"type":"SCALAR"},{"bufferView":2,"byteOffset":648,"componentType":5123,"count":324,"type":"SCALAR"},{"bufferView":2,"byteOffset":1296,"componentType":5123,"count":111,"type":"SCALAR"},{"bufferView":2,"byteOffset":1520,"componentType":5123,"count":111,"type":"SCALAR"}],"asset":{"generator":"Open CASCADE Technology 7.6 [dev.opencascade.org]","version":"2.0"},"bufferViews":[{"buffer":0,"byteLength":2712,"byteOffset":0,"byteStride":12,"target":34962},{"buffer":0,"byteLength":2712,"byteOffset":2712,"byteStride":12,"target":34962},{"buffer":0,"byteLength":1744,"byteOffset":5424,"target":34963}],"buffers":[{"byteLength":7168,"uri":"RPN_4.bin"}],"materials":[{"name":"mat_0","pbrMetallicRoughness":{"baseColorFactor":[0.6038273572921753,0.6038273572921753,0.6038273572921753,1.0]},"doubleSided":true}],"meshes":[{"name":"RPN_4","primitives":[{"attributes":{"NORMAL":4,"POSITION":0},"indices":8,"material":0,"mode":4},{"attributes":{"NORMAL":5,"POSITION":1},"indices":9,"material":0,"mode":4}]},{"name":"Rolik006","primitives":[{"attributes":{"NORMAL":6,"POSITION":2},"indices":10,"material":0,"mode":4}]},{"name":"Rolik007","primitives":[{"attributes":{"NORMAL":7,"POSITION":3},"indices":11,"material":0,"mode":4}]}],"nodes":[{"children":[1,2,3],"name":"Unnamed"},{"mesh":0,"name":"Rolik5"},{"mesh":1,"name":"Rolik006"},{"mesh":2,"name":"Rolik007"}],"scene":0,"scenes":[{"nodes":[0]}]}