{"accessors":[{"bufferView":0,"byteOffset":0,"componentType":5126,"count":18,"max":[0.0075,0.191266,0.0025],"min":[-0.0075,0.191266,-0.0025],"type":"VEC3"},{"bufferView":0,"byteOffset":216,"componentType":5126,"count":12,"max":[0.0000500000000000011,0.211,1.77635683940025e-18],"min":[-0.0000500000000000007,0.191266,-0.00004755282581475857],"type":"VEC3"},{"bufferView":0,"byteOffset":360,"componentType":5126,"count":4,"max":[0.0075,0.191266,0.00250000000000002],"min":[0.0055,-8.5265128291212e-17,0.000500000000000001],"type":"VEC3"},{"bufferView":0,"byteOffset":408,"componentType":5126,"count":4,"max":[0.0075,0.191266,0.000500000000000024],"min":[0.0075,-8.5265128291212e-17,-0.000499999999999999],"type":"VEC3"},{"bufferView":0,"byteOffset":456,"componentType":5126,"count":4,"max":[0.0075,0.191266,-0.000499999999999976],"min":[0.0055,-8.5265128291212e-17,-0.0025],"type":"VEC3"},{"bufferView":0,"byteOffset":504,"componentType":5126,"count":4,"max":[0.0055,0.191266,-0.0024999999999999699],"min":[-0.0055,-8.5265128291212e-17,-0.0025],"type":"VEC3"},{"bufferView":0,"byteOffset":552,"componentType":5126,"count":4,"max":[-0.0055,0.191266,-0.000499999999999974],"min":[-0.0075,-8.5265128291212e-17,-0.0025],"type":"VEC3"},{"bufferView":0,"byteOffset":600,"componentType":5126,"count":4,"max":[-0.0075,0.191266,0.000500000000000026],"min":[-0.0075,-8.5265128291212e-17,-0.000499999999999997],"type":"VEC3"},{"bufferView":0,"byteOffset":648,"componentType":5126,"count":4,"max":[-0.0055,0.191266,0.0025000000000000306],"min":[-0.0075,-8.5265128291212e-17,0.000500000000000003],"type":"VEC3"},{"bufferView":0,"byteOffset":696,"componentType":5126,"count":4,"max":[0.0055,0.191266,0.0025000000000000306],"min":[-0.0055,-5.6843418860808e-17,0.0025],"type":"VEC3"},{"bufferView":0,"byteOffset":744,"componentType":5126,"count":10,"max":[0.0000500000000000004,0.211,0.000047552825814756799],"min":[-0.0000500000000000007,0.211,-0.00004755282581475857],"type":"VEC3"},{"bufferView":0,"byteOffset":864,"componentType":5126,"count":8,"max":[0.0075,-5.6843418860808e-17,0.0025000000000000306],"min":[-0.0075,-8.5265128291212e-17,-0.00249999999999998],"type":"VEC3"},{"bufferView":0,"byteOffset":960,"componentType":5126,"count":12,"max":[0.0000500000000000011,0.211,0.000047552825814759468],"min":[-0.0000500000000000007,0.191266,-8.88178419700125e-19],"type":"VEC3"},{"bufferView":1,"byteOffset":0,"componentType":5126,"count":18,"type":"VEC3"},{"bufferView":1,"byteOffset":216,"componentType":5126,"count":12,"type":"VEC3"},{"bufferView":1,"byteOffset":360,"componentType":5126,"count":4,"type":"VEC3"},{"bufferView":1,"byteOffset":408,"componentType":5126,"count":4,"type":"VEC3"},{"bufferView":1,"byteOffset":456,"componentType":5126,"count":4,"type":"VEC3"},{"bufferView":1,"byteOffset":504,"componentType":5126,"count":4,"type":"VEC3"},{"bufferView":1,"byteOffset":552,"componentType":5126,"count":4,"type":"VEC3"},{"bufferView":1,"byteOffset":600,"componentType":5126,"count":4,"type":"VEC3"},{"bufferView":1,"byteOffset":648,"componentType":5126,"count":4,"type":"VEC3"},{"bufferView":1,"byteOffset":696,"componentType":5126,"count":4,"type":"VEC3"},{"bufferView":1,"byteOffset":744,"componentType":5126,"count":10,"type":"VEC3"},{"bufferView":1,"byteOffset":864,"componentType":5126,"count":8,"type":"VEC3"},{"bufferView":1,"byteOffset":960,"componentType":5126,"count":12,"type":"VEC3"},{"bufferView":2,"byteOffset":0,"componentType":5123,"count":54,"type":"SCALAR"},{"bufferView":2,"byteOffset":108,"componentType":5123,"count":30,"type":"SCALAR"},{"bufferView":2,"byteOffset":168,"componentType":5123,"count":6,"type":"SCALAR"},{"bufferView":2,"byteOffset":180,"componentType":5123,"count":6,"type":"SCALAR"},{"bufferView":2,"byteOffset":192,"componentType":5123,"count":6,"type":"SCALAR"},{"bufferView":2,"byteOffset":204,"componentType":5123,"count":6,"type":"SCALAR"},{"bufferView":2,"byteOffset":216,"componentType":5123,"count":6,"type":"SCALAR"},{"bufferView":2,"byteOffset":228,"componentType":5123,"count":6,"type":"SCALAR"},{"bufferView":2,"byteOffset":240,"componentType":5123,"count":6,"type":"SCALAR"},{"bufferView":2,"byteOffset":252,"componentType":5123,"count":6,"type":"SCALAR"},{"bufferView":2,"byteOffset":264,"componentType":5123,"count":24,"type":"SCALAR"},{"bufferView":2,"byteOffset":312,"componentType":5123,"count":18,"type":"SCALAR"},{"bufferView":2,"byteOffset":348,"componentType":5123,"count":30,"type":"SCALAR"}],"asset":{"generator":"Open CASCADE Technology 7.6 [dev.opencascade.org]","version":"2.0"},"bufferViews":[{"buffer":0,"byteLength":1104,"byteOffset":0,"byteStride":12,"target":34962},{"buffer":0,"byteLength":1104,"byteOffset":1104,"byteStride":12,"target":34962},{"buffer":0,"byteLength":408,"byteOffset":2208,"target":34963}],"buffers":[{"byteLength":2616,"uri":"RPN_2.bin"}],"materials":[{"name":"mat_0","pbrMetallicRoughness":{"baseColorFactor":[0.6038273572921753,0.6038273572921753,0.6038273572921753,1.0]},"doubleSided":true}],"meshes":[{"name":"RaskladchikRPN","primitives":[{"attributes":{"NORMAL":13,"POSITION":0},"indices":26,"material":0,"mode":4},{"attributes":{"NORMAL":14,"POSITION":1},"indices":27,"material":0,"mode":4},{"attributes":{"NORMAL":15,"POSITION":2},"indices":28,"material":0,"mode":4},{"attributes":{"NORMAL":16,"POSITION":3},"indices":29,"material":0,"mode":4},{"attributes":{"NORMAL":17,"POSITION":4},"indices":30,"material":0,"mode":4},{"attributes":{"NORMAL":18,"POSITION":5},"indices":31,"material":0,"mode":4},{"attributes":{"NORMAL":19,"POSITION":6},"indices":32,"material":0,"mode":4},{"attributes":{"NORMAL":20,"POSITION":7},"indices":33,"material":0,"mode":4},{"attributes":{"NORMAL":21,"POSITION":8},"indices":34,"material":0,"mode":4},{"attributes":{"NORMAL":22,"POSITION":9},"indices":35,"material":0,"mode":4},{"attributes":{"NORMAL":23,"POSITION":10},"indices":36,"material":0,"mode":4},{"attributes":{"NORMAL":24,"POSITION":11},"indices":37,"material":0,"mode":4},{"attributes":{"NORMAL":25,"POSITION":12},"indices":38,"material":0,"mode":4}]}],"nodes":[{"mesh":0,"name":"RaskladchikRPN"}],"scene":0,"scenes":[{"nodes":[0]}]}