{"accessors":[{"bufferView":0,"byteOffset":0,"componentType":5126,"count":17,"max":[3.3646837944722806e-19,-0.02,0.00375],"min":[-0.0095,-0.02,-0.00375],"type":"VEC3"},{"bufferView":0,"byteOffset":204,"componentType":5126,"count":17,"max":[0.0095,-0.02,0.00375],"min":[3.3646837944722806e-19,-0.02,-0.00375],"type":"VEC3"},{"bufferView":0,"byteOffset":408,"componentType":5126,"count":29,"max":[0.00375,-0.02,0.00375],"min":[-0.00375,-0.025,-4.59242549680257e-19],"type":"VEC3"},{"bufferView":0,"byteOffset":756,"componentType":5126,"count":9,"max":[0.0095,0.003,0.00375],"min":[-0.0095,-0.02,0.00375],"type":"VEC3"},{"bufferView":0,"byteOffset":864,"componentType":5126,"count":4,"max":[-0.0095,0.003,0.00375],"min":[-0.0095,-0.02,-0.00375],"type":"VEC3"},{"bufferView":0,"byteOffset":912,"componentType":5126,"count":9,"max":[0.0095,0.003,-0.00375],"min":[-0.0095,-0.02,-0.00375],"type":"VEC3"},{"bufferView":0,"byteOffset":1020,"componentType":5126,"count":4,"max":[0.0095,0.003,0.00375],"min":[0.0095,-0.02,-0.00375],"type":"VEC3"},{"bufferView":0,"byteOffset":1068,"componentType":5126,"count":26,"max":[0.00375,-0.025,0.003722658277867702],"min":[-0.00375,-0.025,-0.003722658277867702],"type":"VEC3"},{"bufferView":0,"byteOffset":1380,"componentType":5126,"count":4,"max":[-0.0075,0.003,0.00375],"min":[-0.0095,0.003,-0.00375],"type":"VEC3"},{"bufferView":0,"byteOffset":1428,"componentType":5126,"count":4,"max":[0.0095,0.003,0.00375],"min":[0.0075,0.003,-0.00375],"type":"VEC3"},{"bufferView":0,"byteOffset":1476,"componentType":5126,"count":4,"max":[0.0075,0.003,0.00375],"min":[0.0075,-0.01,-0.00375],"type":"VEC3"},{"bufferView":0,"byteOffset":1524,"componentType":5126,"count":4,"max":[0.0075,-0.01,0.00375],"min":[-0.0075,-0.01,-0.00375],"type":"VEC3"},{"bufferView":0,"byteOffset":1572,"componentType":5126,"count":4,"max":[-0.0075,0.003,0.00375],"min":[-0.0075,-0.01,-0.00375],"type":"VEC3"},{"bufferView":0,"byteOffset":1620,"componentType":5126,"count":29,"max":[0.00375,-0.02,0.0],"min":[-0.00375,-0.025,-0.00375],"type":"VEC3"},{"bufferView":1,"byteOffset":0,"componentType":5126,"count":17,"type":"VEC3"},{"bufferView":1,"byteOffset":204,"componentType":5126,"count":17,"type":"VEC3"},{"bufferView":1,"byteOffset":408,"componentType":5126,"count":29,"type":"VEC3"},{"bufferView":1,"byteOffset":756,"componentType":5126,"count":9,"type":"VEC3"},{"bufferView":1,"byteOffset":864,"componentType":5126,"count":4,"type":"VEC3"},{"bufferView":1,"byteOffset":912,"componentType":5126,"count":9,"type":"VEC3"},{"bufferView":1,"byteOffset":1020,"componentType":5126,"count":4,"type":"VEC3"},{"bufferView":1,"byteOffset":1068,"componentType":5126,"count":26,"type":"VEC3"},{"bufferView":1,"byteOffset":1380,"componentType":5126,"count":4,"type":"VEC3"},{"bufferView":1,"byteOffset":1428,"componentType":5126,"count":4,"type":"VEC3"},{"bufferView":1,"byteOffset":1476,"componentType":5126,"count":4,"type":"VEC3"},{"bufferView":1,"byteOffset":1524,"componentType":5126,"count":4,"type":"VEC3"},{"bufferView":1,"byteOffset":1572,"componentType":5126,"count":4,"type":"VEC3"},{"bufferView":1,"byteOffset":1620,"componentType":5126,"count":29,"type":"VEC3"},{"bufferView":2,"byteOffset":0,"componentType":5123,"count":45,"type":"SCALAR"},{"bufferView":2,"byteOffset":92,"componentType":5123,"count":45,"type":"SCALAR"},{"bufferView":2,"byteOffset":184,"componentType":5123,"count":81,"type":"SCALAR"},{"bufferView":2,"byteOffset":348,"componentType":5123,"count":21,"type":"SCALAR"},{"bufferView":2,"byteOffset":392,"componentType":5123,"count":6,"type":"SCALAR"},{"bufferView":2,"byteOffset":404,"componentType":5123,"count":21,"type":"SCALAR"},{"bufferView":2,"byteOffset":448,"componentType":5123,"count":6,"type":"SCALAR"},{"bufferView":2,"byteOffset":460,"componentType":5123,"count":72,"type":"SCALAR"},{"bufferView":2,"byteOffset":604,"componentType":5123,"count":6,"type":"SCALAR"},{"bufferView":2,"byteOffset":616,"componentType":5123,"count":6,"type":"SCALAR"},{"bufferView":2,"byteOffset":628,"componentType":5123,"count":6,"type":"SCALAR"},{"bufferView":2,"byteOffset":640,"componentType":5123,"count":6,"type":"SCALAR"},{"bufferView":2,"byteOffset":652,"componentType":5123,"count":6,"type":"SCALAR"},{"bufferView":2,"byteOffset":664,"componentType":5123,"count":81,"type":"SCALAR"}],"asset":{"generator":"Open CASCADE Technology 7.6 [dev.opencascade.org]","version":"2.0"},"bufferViews":[{"buffer":0,"byteLength":1968,"byteOffset":0,"byteStride":12,"target":34962},{"buffer":0,"byteLength":1968,"byteOffset":1968,"byteStride":12,"target":34962},{"buffer":0,"byteLength":828,"byteOffset":3936,"target":34963}],"buffers":[{"byteLength":4764,"uri":"RPN_3.bin"}],"materials":[{"name":"mat_0","pbrMetallicRoughness":{"baseColorFactor":[0.6038273572921753,0.6038273572921753,0.6038273572921753,1.0]},"doubleSided":true}],"meshes":[{"name":"Rolik10","primitives":[{"attributes":{"NORMAL":14,"POSITION":0},"indices":28,"material":0,"mode":4},{"attributes":{"NORMAL":15,"POSITION":1},"indices":29,"material":0,"mode":4},{"attributes":{"NORMAL":16,"POSITION":2},"indices":30,"material":0,"mode":4},{"attributes":{"NORMAL":17,"POSITION":3},"indices":31,"material":0,"mode":4},{"attributes":{"NORMAL":18,"POSITION":4},"indices":32,"material":0,"mode":4},{"attributes":{"NORMAL":19,"POSITION":5},"indices":33,"material":0,"mode":4},{"attributes":{"NORMAL":20,"POSITION":6},"indices":34,"material":0,"mode":4},{"attributes":{"NORMAL":21,"POSITION":7},"indices":35,"material":0,"mode":4},{"attributes":{"NORMAL":22,"POSITION":8},"indices":36,"material":0,"mode":4},{"attributes":{"NORMAL":23,"POSITION":9},"indices":37,"material":0,"mode":4},{"attributes":{"NORMAL":24,"POSITION":10},"indices":38,"material":0,"mode":4},{"attributes":{"NORMAL":25,"POSITION":11},"indices":39,"material":0,"mode":4},{"attributes":{"NORMAL":26,"POSITION":12},"indices":40,"material":0,"mode":4},{"attributes":{"NORMAL":27,"POSITION":13},"indices":41,"material":0,"mode":4}]}],"nodes":[{"mesh":0,"name":"Rolik10"}],"scene":0,"scenes":[{"nodes":[0]}]}