{
	"asset":{
		"generator":"Khronos glTF Blender I/O v4.3.47",
		"version":"2.0"
	},
	"scene":0,
	"scenes":[
		{
			"name":"Scene",
			"nodes":[
				0,
				2
			]
		}
	],
	"nodes":[
		{
			"name":"Unnamed11",
			"rotation":[
				0,
				0.7071068286895752,
				0,
				0.7071067094802856
			]
		},
		{
			"mesh":0,
			"name":"RolikWE353"
		},
		{
			"children":[
				1
			],
			"name":"Unnamed",
			"rotation":[
				0,
				0.7071068286895752,
				0,
				0.7071067094802856
			]
		}
	],
	"materials":[
		{
			"doubleSided":true,
			"name":"SharedColorMat",
			"pbrMetallicRoughness":{
				"baseColorFactor":[
					1,
					0,
					0,
					1
				],
				"metallicFactor":0,
				"roughnessFactor":0.5
			}
		}
	],
	"meshes":[
		{
			"name":"RolikWE353",
			"primitives":[
				{
					"attributes":{
						"POSITION":0,
						"NORMAL":1
					},
					"indices":2,
					"material":0
				}
			]
		}
	],
	"accessors":[
		{
			"bufferView":0,
			"componentType":5126,
			"count":1182,
			"max":[
				0.009966190904378891,
				0.019966155290603638,
				0.06000000238418579
			],
			"min":[
				-0.009966198354959488,
				0,
				-0.059999994933605194
			],
			"type":"VEC3"
		},
		{
			"bufferView":1,
			"componentType":5126,
			"count":1182,
			"type":"VEC3"
		},
		{
			"bufferView":2,
			"componentType":5123,
			"count":1908,
			"type":"SCALAR"
		}
	],
	"bufferViews":[
		{
			"buffer":0,
			"byteLength":14184,
			"byteOffset":0,
			"target":34962
		},
		{
			"buffer":0,
			"byteLength":14184,
			"byteOffset":14184,
			"target":34962
		},
		{
			"buffer":0,
			"byteLength":3816,
			"byteOffset":28368,
			"target":34963
		}
	],
	"buffers":[
		{
			"byteLength":32184,
			"uri":"RPN_3.bin"
		}
	]
}
