{"accessors":[{"bufferView":0,"byteOffset":0,"componentType":5126,"count":4,"max":[0.0075,0.197,-0.000499999999999999],"min":[0.0055,0.0,-0.0025],"type":"VEC3"},{"bufferView":0,"byteOffset":48,"componentType":5126,"count":6,"max":[0.0055,0.2,-0.0025],"min":[-0.0055,0.0,-0.0025],"type":"VEC3"},{"bufferView":0,"byteOffset":120,"componentType":5126,"count":4,"max":[-0.0055,0.197,-0.000500000000000001],"min":[-0.0075,0.0,-0.0025],"type":"VEC3"},{"bufferView":0,"byteOffset":168,"componentType":5126,"count":4,"max":[-0.0075,0.195,0.000499999999999999],"min":[-0.0075,0.0,-0.000500000000000001],"type":"VEC3"},{"bufferView":0,"byteOffset":216,"componentType":5126,"count":4,"max":[-0.0055,0.197,0.0025],"min":[-0.0075,0.0,0.000499999999999999],"type":"VEC3"},{"bufferView":0,"byteOffset":264,"componentType":5126,"count":6,"max":[0.0055,0.2,0.0025],"min":[-0.0055,0.0,0.0025],"type":"VEC3"},{"bufferView":0,"byteOffset":336,"componentType":5126,"count":4,"max":[0.0075,0.197,0.0025],"min":[0.0055,0.0,0.000500000000000001],"type":"VEC3"},{"bufferView":0,"byteOffset":384,"componentType":5126,"count":4,"max":[0.0075,0.195,0.000500000000000001],"min":[0.0075,0.0,-0.000499999999999999],"type":"VEC3"},{"bufferView":0,"byteOffset":432,"componentType":5126,"count":4,"max":[0.0025,0.2,0.0025],"min":[-0.0025,0.2,-0.0025],"type":"VEC3"},{"bufferView":0,"byteOffset":480,"componentType":5126,"count":8,"max":[0.0075,0.0,0.0025],"min":[-0.0075,0.0,-0.0025],"type":"VEC3"},{"bufferView":0,"byteOffset":576,"componentType":5126,"count":6,"max":[-0.0025,0.2,0.0025],"min":[-0.0075,0.195,-0.0025],"type":"VEC3"},{"bufferView":0,"byteOffset":648,"componentType":5126,"count":6,"max":[0.0075,0.2,0.0025],"min":[0.0025,0.195,-0.0025],"type":"VEC3"},{"bufferView":1,"byteOffset":0,"componentType":5126,"count":4,"type":"VEC3"},{"bufferView":1,"byteOffset":48,"componentType":5126,"count":6,"type":"VEC3"},{"bufferView":1,"byteOffset":120,"componentType":5126,"count":4,"type":"VEC3"},{"bufferView":1,"byteOffset":168,"componentType":5126,"count":4,"type":"VEC3"},{"bufferView":1,"byteOffset":216,"componentType":5126,"count":4,"type":"VEC3"},{"bufferView":1,"byteOffset":264,"componentType":5126,"count":6,"type":"VEC3"},{"bufferView":1,"byteOffset":336,"componentType":5126,"count":4,"type":"VEC3"},{"bufferView":1,"byteOffset":384,"componentType":5126,"count":4,"type":"VEC3"},{"bufferView":1,"byteOffset":432,"componentType":5126,"count":4,"type":"VEC3"},{"bufferView":1,"byteOffset":480,"componentType":5126,"count":8,"type":"VEC3"},{"bufferView":1,"byteOffset":576,"componentType":5126,"count":6,"type":"VEC3"},{"bufferView":1,"byteOffset":648,"componentType":5126,"count":6,"type":"VEC3"},{"bufferView":2,"byteOffset":0,"componentType":5123,"count":6,"type":"SCALAR"},{"bufferView":2,"byteOffset":12,"componentType":5123,"count":12,"type":"SCALAR"},{"bufferView":2,"byteOffset":36,"componentType":5123,"count":6,"type":"SCALAR"},{"bufferView":2,"byteOffset":48,"componentType":5123,"count":6,"type":"SCALAR"},{"bufferView":2,"byteOffset":60,"componentType":5123,"count":6,"type":"SCALAR"},{"bufferView":2,"byteOffset":72,"componentType":5123,"count":12,"type":"SCALAR"},{"bufferView":2,"byteOffset":96,"componentType":5123,"count":6,"type":"SCALAR"},{"bufferView":2,"byteOffset":108,"componentType":5123,"count":6,"type":"SCALAR"},{"bufferView":2,"byteOffset":120,"componentType":5123,"count":6,"type":"SCALAR"},{"bufferView":2,"byteOffset":132,"componentType":5123,"count":18,"type":"SCALAR"},{"bufferView":2,"byteOffset":168,"componentType":5123,"count":12,"type":"SCALAR"},{"bufferView":2,"byteOffset":192,"componentType":5123,"count":12,"type":"SCALAR"}],"asset":{"generator":"Open CASCADE Technology 7.6 [dev.opencascade.org]","version":"2.0"},"bufferViews":[{"buffer":0,"byteLength":720,"byteOffset":0,"byteStride":12,"target":34962},{"buffer":0,"byteLength":720,"byteOffset":720,"byteStride":12,"target":34962},{"buffer":0,"byteLength":216,"byteOffset":1440,"target":34963}],"buffers":[{"byteLength":1656,"uri":"RPN_2.bin"}],"materials":[{"name":"mat_0","pbrMetallicRoughness":{"baseColorFactor":[0.6038273572921753,0.6038273572921753,0.6038273572921753,1.0]},"doubleSided":true}],"meshes":[{"name":"RaskladchikRPN","primitives":[{"attributes":{"NORMAL":12,"POSITION":0},"indices":24,"material":0,"mode":4},{"attributes":{"NORMAL":13,"POSITION":1},"indices":25,"material":0,"mode":4},{"attributes":{"NORMAL":14,"POSITION":2},"indices":26,"material":0,"mode":4},{"attributes":{"NORMAL":15,"POSITION":3},"indices":27,"material":0,"mode":4},{"attributes":{"NORMAL":16,"POSITION":4},"indices":28,"material":0,"mode":4},{"attributes":{"NORMAL":17,"POSITION":5},"indices":29,"material":0,"mode":4},{"attributes":{"NORMAL":18,"POSITION":6},"indices":30,"material":0,"mode":4},{"attributes":{"NORMAL":19,"POSITION":7},"indices":31,"material":0,"mode":4},{"attributes":{"NORMAL":20,"POSITION":8},"indices":32,"material":0,"mode":4},{"attributes":{"NORMAL":21,"POSITION":9},"indices":33,"material":0,"mode":4},{"attributes":{"NORMAL":22,"POSITION":10},"indices":34,"material":0,"mode":4},{"attributes":{"NORMAL":23,"POSITION":11},"indices":35,"material":0,"mode":4}]}],"nodes":[{"mesh":0,"name":"RaskladchikRPN"}],"scene":0,"scenes":[{"nodes":[0]}]}