{
	"asset":{
		"generator":"Khronos glTF Blender I/O v4.3.47",
		"version":"2.0"
	},
	"scene":0,
	"scenes":[
		{
			"name":"Scene",
			"nodes":[
				0,
				2
			]
		}
	],
	"nodes":[
		{
			"name":"Unnamed11",
			"rotation":[
				0,
				0.7071068286895752,
				0,
				0.7071067094802856
			]
		},
		{
			"mesh":0,
			"name":"RolikWE353",
			"translation":[
				0.05427473783493042,
				-0.2500884234905243,
				0.0006666667759418488
			]
		},
		{
			"children":[
				1
			],
			"name":"Unnamed",
			"rotation":[
				0,
				0.7071068286895752,
				0,
				0.7071067094802856
			]
		}
	],
	"materials":[
		{
			"doubleSided":true,
			"name":"SharedColorMat",
			"pbrMetallicRoughness":{
				"baseColorFactor":[
					1,
					0,
					0,
					1
				],
				"metallicFactor":0,
				"roughnessFactor":0.5
			}
		}
	],
	"meshes":[
		{
			"name":"RolikWE353",
			"primitives":[
				{
					"attributes":{
						"POSITION":0,
						"NORMAL":1
					},
					"indices":2,
					"material":0
				}
			]
		}
	],
	"accessors":[
		{
			"bufferView":0,
			"componentType":5126,
			"count":1228,
			"max":[
				-0.04430854320526123,
				0.27005457878112793,
				0.059333331882953644
			],
			"min":[
				-0.06424093246459961,
				0.2500884234905243,
				-0.06066666543483734
			],
			"type":"VEC3"
		},
		{
			"bufferView":1,
			"componentType":5126,
			"count":1228,
			"type":"VEC3"
		},
		{
			"bufferView":2,
			"componentType":5123,
			"count":1908,
			"type":"SCALAR"
		}
	],
	"bufferViews":[
		{
			"buffer":0,
			"byteLength":14736,
			"byteOffset":0,
			"target":34962
		},
		{
			"buffer":0,
			"byteLength":14736,
			"byteOffset":14736,
			"target":34962
		},
		{
			"buffer":0,
			"byteLength":3816,
			"byteOffset":29472,
			"target":34963
		}
	],
	"buffers":[
		{
			"byteLength":33288,
			"uri":"RPN_3.bin"
		}
	]
}
