{
	"asset":{
		"generator":"Khronos glTF Blender I/O v4.3.47",
		"version":"2.0"
	},
	"scene":0,
	"scenes":[
		{
			"name":"Scene",
			"nodes":[
				3
			]
		}
	],
	"nodes":[
		{
			"mesh":0,
			"name":"Rolik006"
		},
		{
			"mesh":1,
			"name":"Rolik007"
		},
		{
			"mesh":2,
			"name":"Rolik5"
		},
		{
			"children":[
				0,
				1,
				2
			],
			"name":"Unnamed"
		}
	],
	"materials":[
		{
			"doubleSided":true,
			"name":"SharedColorMat",
			"pbrMetallicRoughness":{
				"baseColorFactor":[
					1,
					0,
					0,
					1
				],
				"metallicFactor":0,
				"roughnessFactor":0.5
			}
		}
	],
	"meshes":[
		{
			"name":"Rolik006",
			"primitives":[
				{
					"attributes":{
						"POSITION":0,
						"NORMAL":1
					},
					"indices":2,
					"material":0
				}
			]
		},
		{
			"name":"Rolik007",
			"primitives":[
				{
					"attributes":{
						"POSITION":3,
						"NORMAL":4
					},
					"indices":5,
					"material":0
				}
			]
		},
		{
			"name":"RPN_4",
			"primitives":[
				{
					"attributes":{
						"POSITION":6,
						"NORMAL":7
					},
					"indices":8,
					"material":0
				}
			]
		}
	],
	"accessors":[
		{
			"bufferView":0,
			"componentType":5126,
			"count":39,
			"max":[
				0.07500000298023224,
				0.014724219217896461,
				0.01476014032959938
			],
			"min":[
				0.07500000298023224,
				-0.014772120863199234,
				-0.01476014032959938
			],
			"type":"VEC3"
		},
		{
			"bufferView":1,
			"componentType":5126,
			"count":39,
			"type":"VEC3"
		},
		{
			"bufferView":2,
			"componentType":5123,
			"count":111,
			"type":"SCALAR"
		},
		{
			"bufferView":3,
			"componentType":5126,
			"count":39,
			"max":[
				-0.07500000298023224,
				0.01495135948061943,
				0.014987834729254246
			],
			"min":[
				-0.07500000298023224,
				-0.014999999664723873,
				-0.014987834729254246
			],
			"type":"VEC3"
		},
		{
			"bufferView":4,
			"componentType":5126,
			"count":39,
			"type":"VEC3"
		},
		{
			"bufferView":5,
			"componentType":5123,
			"count":111,
			"type":"SCALAR"
		},
		{
			"bufferView":6,
			"componentType":5126,
			"count":148,
			"max":[
				0.07500000298023224,
				0.014999999664723873,
				0.014890633523464203
			],
			"min":[
				-0.07500000298023224,
				-0.014999999664723873,
				-0.014890633523464203
			],
			"type":"VEC3"
		},
		{
			"bufferView":7,
			"componentType":5126,
			"count":148,
			"type":"VEC3"
		},
		{
			"bufferView":8,
			"componentType":5123,
			"count":648,
			"type":"SCALAR"
		}
	],
	"bufferViews":[
		{
			"buffer":0,
			"byteLength":468,
			"byteOffset":0,
			"target":34962
		},
		{
			"buffer":0,
			"byteLength":468,
			"byteOffset":468,
			"target":34962
		},
		{
			"buffer":0,
			"byteLength":222,
			"byteOffset":936,
			"target":34963
		},
		{
			"buffer":0,
			"byteLength":468,
			"byteOffset":1160,
			"target":34962
		},
		{
			"buffer":0,
			"byteLength":468,
			"byteOffset":1628,
			"target":34962
		},
		{
			"buffer":0,
			"byteLength":222,
			"byteOffset":2096,
			"target":34963
		},
		{
			"buffer":0,
			"byteLength":1776,
			"byteOffset":2320,
			"target":34962
		},
		{
			"buffer":0,
			"byteLength":1776,
			"byteOffset":4096,
			"target":34962
		},
		{
			"buffer":0,
			"byteLength":1296,
			"byteOffset":5872,
			"target":34963
		}
	],
	"buffers":[
		{
			"byteLength":7168,
			"uri":"RPN_4_red.bin"
		}
	]
}
