{
	"asset":{
		"generator":"Khronos glTF Blender I/O v4.3.47",
		"version":"2.0"
	},
	"scene":0,
	"scenes":[
		{
			"name":"Scene",
			"nodes":[
				0
			]
		}
	],
	"nodes":[
		{
			"mesh":0,
			"name":"Rails",
			"rotation":[
				0,
				0,
				1,
				4.371138828673793e-08
			],
			"translation":[
				0.3700000047683716,
				0,
				0.05999999865889549
			]
		}
	],
	"materials":[
		{
			"doubleSided":true,
			"name":"mat_0.003",
			"pbrMetallicRoughness":{
				"baseColorFactor":[
					0.6038273572921753,
					0.6038273572921753,
					0.6038273572921753,
					1
				]
			}
		}
	],
	"meshes":[
		{
			"name":"Rails.001",
			"primitives":[
				{
					"attributes":{
						"POSITION":0,
						"NORMAL":1
					},
					"indices":2,
					"material":0
				}
			]
		}
	],
	"accessors":[
		{
			"bufferView":0,
			"componentType":5126,
			"count":72,
			"max":[
				0.7400000095367432,
				1.469576190014977e-17,
				0
			],
			"min":[
				-7.347880536484578e-19,
				-0.004000000189989805,
				-0.11999999731779099
			],
			"type":"VEC3"
		},
		{
			"bufferView":1,
			"componentType":5126,
			"count":72,
			"type":"VEC3"
		},
		{
			"bufferView":2,
			"componentType":5123,
			"count":132,
			"type":"SCALAR"
		}
	],
	"bufferViews":[
		{
			"buffer":0,
			"byteLength":864,
			"byteOffset":0,
			"target":34962
		},
		{
			"buffer":0,
			"byteLength":864,
			"byteOffset":864,
			"target":34962
		},
		{
			"buffer":0,
			"byteLength":264,
			"byteOffset":1728,
			"target":34963
		}
	],
	"buffers":[
		{
			"byteLength":1992,
			"uri":"RPN_0.bin"
		}
	]
}
