{"accessors":[{"bufferView":0,"byteOffset":0,"componentType":5126,"count":12,"max":[0.020000000000004,0.0946575039906689,0.0498899902449983],"min":[-0.0200000000000333,0.077044203607766,-0.050000000000044408],"type":"VEC3"},{"bufferView":0,"byteOffset":144,"componentType":5126,"count":12,"max":[0.0200000000000039,0.02,0.0499931520876814],"min":[-0.0200000000000333,0.019999999999996303,-0.050000000000044408],"type":"VEC3"},{"bufferView":0,"byteOffset":288,"componentType":5126,"count":57,"max":[-0.00999999999999999,0.0946575039906689,0.049993152087681309],"min":[-0.0100000000000364,0.02,-0.050000000000044408],"type":"VEC3"},{"bufferView":0,"byteOffset":972,"componentType":5126,"count":57,"max":[0.010000000000003902,0.09465750399066719,0.049993152087677707],"min":[0.009999999999977761,0.0199999999999999,-0.0500000000000285],"type":"VEC3"},{"bufferView":0,"byteOffset":1656,"componentType":5126,"count":36,"max":[0.025,0.11473463705009701,-0.049999999999999409],"min":[-0.0250000000000333,0.092217410583497,-0.050000000000044408],"type":"VEC3"},{"bufferView":0,"byteOffset":2088,"componentType":5126,"count":22,"max":[0.0250000000000165,0.0208238293529026,-0.049999999999999],"min":[-0.0250000000000333,0.0,-0.050000000000044408],"type":"VEC3"},{"bufferView":0,"byteOffset":2352,"componentType":5126,"count":24,"max":[0.0250000000000039,0.0971019389792489,0.050000000000003],"min":[-0.025,0.0791390277183162,0.0499999999999999],"type":"VEC3"},{"bufferView":0,"byteOffset":2640,"componentType":5126,"count":14,"max":[0.0250000000000039,0.0194766744809919,0.05],"min":[-0.0250000000000067,0.0,0.0499999999999995],"type":"VEC3"},{"bufferView":0,"byteOffset":2808,"componentType":5126,"count":4,"max":[0.0100000000000025,0.0464899282299208,0.0419648418179189],"min":[-0.0100000000000076,0.0355029828604072,0.027248376918565],"type":"VEC3"},{"bufferView":0,"byteOffset":2856,"componentType":5126,"count":4,"max":[0.0100000000000023,0.0617653367446747,0.0399073135588177],"min":[-0.0100000000000074,0.05483992806818361,0.027762758983339705],"type":"VEC3"},{"bufferView":0,"byteOffset":2904,"componentType":5126,"count":4,"max":[0.00999999999998917,0.0502119560615387,-0.0188395010680862],"min":[-0.0100000000000362,0.038197322827734,-0.039907659889186809],"type":"VEC3"},{"bufferView":0,"byteOffset":2952,"componentType":5126,"count":4,"max":[0.00999999999998926,0.076184741489511,-0.0183273367326891],"min":[-0.0100000000000364,0.058563496703751907,-0.0419563172307663],"type":"VEC3"},{"bufferView":0,"byteOffset":3000,"componentType":5126,"count":4,"max":[0.0100000000000003,0.0336397910532653,0.033065956026136499],"min":[-0.0100000000000116,0.02,0.014965341940898202],"type":"VEC3"},{"bufferView":0,"byteOffset":3048,"componentType":5126,"count":4,"max":[0.00999999999999138,0.0350485170699644,-0.00696467748983691],"min":[-0.0100000000000277,0.02,-0.033402141549156608],"type":"VEC3"},{"bufferView":0,"byteOffset":3096,"componentType":5126,"count":4,"max":[0.0100000000000003,0.07997078417255381,0.0332925270942714],"min":[-0.0100000000000114,0.0700074225709332,0.0158528669150799],"type":"VEC3"},{"bufferView":0,"byteOffset":3144,"componentType":5126,"count":4,"max":[0.00999999999999154,0.0917077992024814,-0.006042759301139231],"min":[-0.0100000000000277,0.07135409384076491,-0.0332713928615429],"type":"VEC3"},{"bufferView":0,"byteOffset":3192,"componentType":5126,"count":43,"max":[0.0250000000000039,0.09973463705010001,0.05],"min":[0.0200000000000039,0.0770442036077696,-0.0500000000000032],"type":"VEC3"},{"bufferView":0,"byteOffset":3708,"componentType":5126,"count":44,"max":[-0.02,0.09973463705009761,0.05],"min":[-0.0250000000000333,0.0770442036077668,-0.0500000000000394],"type":"VEC3"},{"bufferView":0,"byteOffset":4236,"componentType":5126,"count":17,"max":[0.0250000000000165,0.02,0.05],"min":[0.02,0.015,-0.05000000000000303],"type":"VEC3"},{"bufferView":0,"byteOffset":4440,"componentType":5126,"count":25,"max":[-0.02,0.02,0.05],"min":[-0.0250000000000333,0.015,-0.0500000000000394],"type":"VEC3"},{"bufferView":0,"byteOffset":4740,"componentType":5126,"count":4,"max":[-0.025,0.10965750399066901,0.050000000000000498],"min":[-0.0250000000000333,0.0821019389792441,-0.0500000000000394],"type":"VEC3"},{"bufferView":0,"byteOffset":4788,"componentType":5126,"count":39,"max":[-0.0199999999999842,0.11473463705009701,0.050000000000000498],"min":[-0.0250000000000333,0.0920248059198153,-0.0500000000000393],"type":"VEC3"},{"bufferView":0,"byteOffset":5256,"componentType":5126,"count":4,"max":[0.020000000000005,0.11473463705009701,0.050000000000003],"min":[-0.0200000000000342,0.09710193897924389,-0.050000000000037198],"type":"VEC3"},{"bufferView":0,"byteOffset":5304,"componentType":5126,"count":39,"max":[0.0250000000000039,0.114734637050096,0.050000000000003],"min":[0.0199999999999993,0.0920248059198201,-0.0500000000000032],"type":"VEC3"},{"bufferView":0,"byteOffset":5772,"componentType":5126,"count":4,"max":[0.0250000000000039,0.109657503990667,0.050000000000003],"min":[0.025,0.0821019389792496,-0.050000000000000707],"type":"VEC3"},{"bufferView":0,"byteOffset":5820,"componentType":5126,"count":4,"max":[0.0250000000000165,0.015,0.05],"min":[0.025,0.0,-0.05],"type":"VEC3"},{"bufferView":0,"byteOffset":5868,"componentType":5126,"count":4,"max":[0.0250000000000039,0.0,0.05],"min":[-0.0250000000000333,0.0,-0.0500000000000394],"type":"VEC3"},{"bufferView":0,"byteOffset":5916,"componentType":5126,"count":4,"max":[-0.025,0.015,0.05],"min":[-0.0250000000000333,0.0,-0.0500000000000394],"type":"VEC3"},{"bufferView":0,"byteOffset":5964,"componentType":5126,"count":10,"max":[0.01000000000000021,0.0922174105834998,-0.0419563172307595],"min":[-0.0100000000000364,0.0761847414894823,-0.0500000000000285],"type":"VEC3"},{"bufferView":0,"byteOffset":6084,"componentType":5126,"count":12,"max":[0.010000000000000289,0.038197322827758,-0.0399076598891774],"min":[-0.0100000000000362,0.0208238293528814,-0.050000000000011809],"type":"VEC3"},{"bufferView":0,"byteOffset":6228,"componentType":5126,"count":24,"max":[0.0240602797159033,0.0791390277183249,0.05],"min":[-0.0240602797158978,0.061765336744669007,0.0399073135588166],"type":"VEC3"},{"bufferView":0,"byteOffset":6516,"componentType":5126,"count":18,"max":[0.0222269678020376,0.0355029828604157,0.049999999999999707],"min":[-0.022226967802048204,0.0194766744809852,0.0419648418179163],"type":"VEC3"},{"bufferView":0,"byteOffset":6732,"componentType":5126,"count":12,"max":[0.01000000000000241,0.037639864378089558,0.0149653419409049],"min":[-0.0100000000000189,0.0336397910532653,-0.0069646774898456799],"type":"VEC3"},{"bufferView":0,"byteOffset":6876,"componentType":5126,"count":12,"max":[0.010000000000002419,0.07135409384076491,0.0158528669150887],"min":[-0.0100000000000186,0.06740309094741166,-0.00604275930114589],"type":"VEC3"},{"bufferView":0,"byteOffset":7020,"componentType":5126,"count":18,"max":[0.010000000000002967,0.05483992806818361,0.027762758983346404],"min":[-0.010000000000008261,0.0464899282299207,0.025249047670251328],"type":"VEC3"},{"bufferView":0,"byteOffset":7236,"componentType":5126,"count":18,"max":[0.01000000000000129,0.058563496703752,-0.016325791716524455],"min":[-0.0100000000000229,0.0502119560615387,-0.0188395010680929],"type":"VEC3"},{"bufferView":1,"byteOffset":0,"componentType":5126,"count":12,"type":"VEC3"},{"bufferView":1,"byteOffset":144,"componentType":5126,"count":12,"type":"VEC3"},{"bufferView":1,"byteOffset":288,"componentType":5126,"count":57,"type":"VEC3"},{"bufferView":1,"byteOffset":972,"componentType":5126,"count":57,"type":"VEC3"},{"bufferView":1,"byteOffset":1656,"componentType":5126,"count":36,"type":"VEC3"},{"bufferView":1,"byteOffset":2088,"componentType":5126,"count":22,"type":"VEC3"},{"bufferView":1,"byteOffset":2352,"componentType":5126,"count":24,"type":"VEC3"},{"bufferView":1,"byteOffset":2640,"componentType":5126,"count":14,"type":"VEC3"},{"bufferView":1,"byteOffset":2808,"componentType":5126,"count":4,"type":"VEC3"},{"bufferView":1,"byteOffset":2856,"componentType":5126,"count":4,"type":"VEC3"},{"bufferView":1,"byteOffset":2904,"componentType":5126,"count":4,"type":"VEC3"},{"bufferView":1,"byteOffset":2952,"componentType":5126,"count":4,"type":"VEC3"},{"bufferView":1,"byteOffset":3000,"componentType":5126,"count":4,"type":"VEC3"},{"bufferView":1,"byteOffset":3048,"componentType":5126,"count":4,"type":"VEC3"},{"bufferView":1,"byteOffset":3096,"componentType":5126,"count":4,"type":"VEC3"},{"bufferView":1,"byteOffset":3144,"componentType":5126,"count":4,"type":"VEC3"},{"bufferView":1,"byteOffset":3192,"componentType":5126,"count":43,"type":"VEC3"},{"bufferView":1,"byteOffset":3708,"componentType":5126,"count":44,"type":"VEC3"},{"bufferView":1,"byteOffset":4236,"componentType":5126,"count":17,"type":"VEC3"},{"bufferView":1,"byteOffset":4440,"componentType":5126,"count":25,"type":"VEC3"},{"bufferView":1,"byteOffset":4740,"componentType":5126,"count":4,"type":"VEC3"},{"bufferView":1,"byteOffset":4788,"componentType":5126,"count":39,"type":"VEC3"},{"bufferView":1,"byteOffset":5256,"componentType":5126,"count":4,"type":"VEC3"},{"bufferView":1,"byteOffset":5304,"componentType":5126,"count":39,"type":"VEC3"},{"bufferView":1,"byteOffset":5772,"componentType":5126,"count":4,"type":"VEC3"},{"bufferView":1,"byteOffset":5820,"componentType":5126,"count":4,"type":"VEC3"},{"bufferView":1,"byteOffset":5868,"componentType":5126,"count":4,"type":"VEC3"},{"bufferView":1,"byteOffset":5916,"componentType":5126,"count":4,"type":"VEC3"},{"bufferView":1,"byteOffset":5964,"componentType":5126,"count":10,"type":"VEC3"},{"bufferView":1,"byteOffset":6084,"componentType":5126,"count":12,"type":"VEC3"},{"bufferView":1,"byteOffset":6228,"componentType":5126,"count":24,"type":"VEC3"},{"bufferView":1,"byteOffset":6516,"componentType":5126,"count":18,"type":"VEC3"},{"bufferView":1,"byteOffset":6732,"componentType":5126,"count":12,"type":"VEC3"},{"bufferView":1,"byteOffset":6876,"componentType":5126,"count":12,"type":"VEC3"},{"bufferView":1,"byteOffset":7020,"componentType":5126,"count":18,"type":"VEC3"},{"bufferView":1,"byteOffset":7236,"componentType":5126,"count":18,"type":"VEC3"},{"bufferView":2,"byteOffset":0,"componentType":5123,"count":30,"type":"SCALAR"},{"bufferView":2,"byteOffset":60,"componentType":5123,"count":30,"type":"SCALAR"},{"bufferView":2,"byteOffset":120,"componentType":5123,"count":165,"type":"SCALAR"},{"bufferView":2,"byteOffset":452,"componentType":5123,"count":165,"type":"SCALAR"},{"bufferView":2,"byteOffset":784,"componentType":5123,"count":102,"type":"SCALAR"},{"bufferView":2,"byteOffset":988,"componentType":5123,"count":60,"type":"SCALAR"},{"bufferView":2,"byteOffset":1108,"componentType":5123,"count":66,"type":"SCALAR"},{"bufferView":2,"byteOffset":1240,"componentType":5123,"count":36,"type":"SCALAR"},{"bufferView":2,"byteOffset":1312,"componentType":5123,"count":6,"type":"SCALAR"},{"bufferView":2,"byteOffset":1324,"componentType":5123,"count":6,"type":"SCALAR"},{"bufferView":2,"byteOffset":1336,"componentType":5123,"count":6,"type":"SCALAR"},{"bufferView":2,"byteOffset":1348,"componentType":5123,"count":6,"type":"SCALAR"},{"bufferView":2,"byteOffset":1360,"componentType":5123,"count":6,"type":"SCALAR"},{"bufferView":2,"byteOffset":1372,"componentType":5123,"count":6,"type":"SCALAR"},{"bufferView":2,"byteOffset":1384,"componentType":5123,"count":6,"type":"SCALAR"},{"bufferView":2,"byteOffset":1396,"componentType":5123,"count":6,"type":"SCALAR"},{"bufferView":2,"byteOffset":1408,"componentType":5123,"count":201,"type":"SCALAR"},{"bufferView":2,"byteOffset":1812,"componentType":5123,"count":207,"type":"SCALAR"},{"bufferView":2,"byteOffset":2228,"componentType":5123,"count":45,"type":"SCALAR"},{"bufferView":2,"byteOffset":2320,"componentType":5123,"count":93,"type":"SCALAR"},{"bufferView":2,"byteOffset":2508,"componentType":5123,"count":6,"type":"SCALAR"},{"bufferView":2,"byteOffset":2520,"componentType":5123,"count":180,"type":"SCALAR"},{"bufferView":2,"byteOffset":2880,"componentType":5123,"count":6,"type":"SCALAR"},{"bufferView":2,"byteOffset":2892,"componentType":5123,"count":180,"type":"SCALAR"},{"bufferView":2,"byteOffset":3252,"componentType":5123,"count":6,"type":"SCALAR"},{"bufferView":2,"byteOffset":3264,"componentType":5123,"count":6,"type":"SCALAR"},{"bufferView":2,"byteOffset":3276,"componentType":5123,"count":6,"type":"SCALAR"},{"bufferView":2,"byteOffset":3288,"componentType":5123,"count":6,"type":"SCALAR"},{"bufferView":2,"byteOffset":3300,"componentType":5123,"count":24,"type":"SCALAR"},{"bufferView":2,"byteOffset":3348,"componentType":5123,"count":30,"type":"SCALAR"},{"bufferView":2,"byteOffset":3408,"componentType":5123,"count":72,"type":"SCALAR"},{"bufferView":2,"byteOffset":3552,"componentType":5123,"count":48,"type":"SCALAR"},{"bufferView":2,"byteOffset":3648,"componentType":5123,"count":30,"type":"SCALAR"},{"bufferView":2,"byteOffset":3708,"componentType":5123,"count":30,"type":"SCALAR"},{"bufferView":2,"byteOffset":3768,"componentType":5123,"count":48,"type":"SCALAR"},{"bufferView":2,"byteOffset":3864,"componentType":5123,"count":48,"type":"SCALAR"}],"asset":{"generator":"Open CASCADE Technology 7.6 [dev.opencascade.org]","version":"2.0"},"bufferViews":[{"buffer":0,"byteLength":7452,"byteOffset":0,"byteStride":12,"target":34962},{"buffer":0,"byteLength":7452,"byteOffset":7452,"byteStride":12,"target":34962},{"buffer":0,"byteLength":3960,"byteOffset":14904,"target":34963}],"buffers":[{"byteLength":18864,"uri":"WE_1.bin"}],"materials":[{"name":"mat_0","pbrMetallicRoughness":{"baseColorFactor":[0.6038273572921753,0.6038273572921753,0.6038273572921753,1.0]},"doubleSided":true}],"meshes":[{"name":"SupportWE013","primitives":[{"attributes":{"NORMAL":36,"POSITION":0},"indices":72,"material":0,"mode":4},{"attributes":{"NORMAL":37,"POSITION":1},"indices":73,"material":0,"mode":4},{"attributes":{"NORMAL":38,"POSITION":2},"indices":74,"material":0,"mode":4},{"attributes":{"NORMAL":39,"POSITION":3},"indices":75,"material":0,"mode":4},{"attributes":{"NORMAL":40,"POSITION":4},"indices":76,"material":0,"mode":4},{"attributes":{"NORMAL":41,"POSITION":5},"indices":77,"material":0,"mode":4},{"attributes":{"NORMAL":42,"POSITION":6},"indices":78,"material":0,"mode":4},{"attributes":{"NORMAL":43,"POSITION":7},"indices":79,"material":0,"mode":4},{"attributes":{"NORMAL":44,"POSITION":8},"indices":80,"material":0,"mode":4},{"attributes":{"NORMAL":45,"POSITION":9},"indices":81,"material":0,"mode":4},{"attributes":{"NORMAL":46,"POSITION":10},"indices":82,"material":0,"mode":4},{"attributes":{"NORMAL":47,"POSITION":11},"indices":83,"material":0,"mode":4},{"attributes":{"NORMAL":48,"POSITION":12},"indices":84,"material":0,"mode":4},{"attributes":{"NORMAL":49,"POSITION":13},"indices":85,"material":0,"mode":4},{"attributes":{"NORMAL":50,"POSITION":14},"indices":86,"material":0,"mode":4},{"attributes":{"NORMAL":51,"POSITION":15},"indices":87,"material":0,"mode":4},{"attributes":{"NORMAL":52,"POSITION":16},"indices":88,"material":0,"mode":4},{"attributes":{"NORMAL":53,"POSITION":17},"indices":89,"material":0,"mode":4},{"attributes":{"NORMAL":54,"POSITION":18},"indices":90,"material":0,"mode":4},{"attributes":{"NORMAL":55,"POSITION":19},"indices":91,"material":0,"mode":4},{"attributes":{"NORMAL":56,"POSITION":20},"indices":92,"material":0,"mode":4},{"attributes":{"NORMAL":57,"POSITION":21},"indices":93,"material":0,"mode":4},{"attributes":{"NORMAL":58,"POSITION":22},"indices":94,"material":0,"mode":4},{"attributes":{"NORMAL":59,"POSITION":23},"indices":95,"material":0,"mode":4},{"attributes":{"NORMAL":60,"POSITION":24},"indices":96,"material":0,"mode":4},{"attributes":{"NORMAL":61,"POSITION":25},"indices":97,"material":0,"mode":4},{"attributes":{"NORMAL":62,"POSITION":26},"indices":98,"material":0,"mode":4},{"attributes":{"NORMAL":63,"POSITION":27},"indices":99,"material":0,"mode":4},{"attributes":{"NORMAL":64,"POSITION":28},"indices":100,"material":0,"mode":4},{"attributes":{"NORMAL":65,"POSITION":29},"indices":101,"material":0,"mode":4},{"attributes":{"NORMAL":66,"POSITION":30},"indices":102,"material":0,"mode":4},{"attributes":{"NORMAL":67,"POSITION":31},"indices":103,"material":0,"mode":4},{"attributes":{"NORMAL":68,"POSITION":32},"indices":104,"material":0,"mode":4},{"attributes":{"NORMAL":69,"POSITION":33},"indices":105,"material":0,"mode":4},{"attributes":{"NORMAL":70,"POSITION":34},"indices":106,"material":0,"mode":4},{"attributes":{"NORMAL":71,"POSITION":35},"indices":107,"material":0,"mode":4}]}],"nodes":[{"mesh":0,"name":"SupportWE013"}],"scene":0,"scenes":[{"nodes":[0]}]}