{
	"asset":{
		"generator":"Khronos glTF Blender I/O v4.3.47",
		"version":"2.0"
	},
	"scene":0,
	"scenes":[
		{
			"name":"Scene",
			"nodes":[
				0,
				2
			]
		}
	],
	"nodes":[
		{
			"name":"Unnamed11"
		},
		{
			"mesh":0,
			"name":"RolikWE353"
		},
		{
			"children":[
				1
			],
			"name":"Unnamed"
		}
	],
	"materials":[
		{
			"doubleSided":true,
			"name":"SharedColorMat",
			"pbrMetallicRoughness":{
				"baseColorFactor":[
					1,
					0,
					0,
					1
				],
				"metallicFactor":0,
				"roughnessFactor":0.5
			}
		}
	],
	"meshes":[
		{
			"name":"RolikWE353",
			"primitives":[
				{
					"attributes":{
						"POSITION":0,
						"NORMAL":1
					},
					"indices":2,
					"material":0
				}
			]
		}
	],
	"accessors":[
		{
			"bufferView":0,
			"componentType":5126,
			"count":1228,
			"max":[
				0.059999994933605194,
				0.009983062744140625,
				0.009966198354959488
			],
			"min":[
				-0.0599999874830246,
				-0.009983092546463013,
				-0.009966202080249786
			],
			"type":"VEC3"
		},
		{
			"bufferView":1,
			"componentType":5126,
			"count":1228,
			"type":"VEC3"
		},
		{
			"bufferView":2,
			"componentType":5123,
			"count":1908,
			"type":"SCALAR"
		}
	],
	"bufferViews":[
		{
			"buffer":0,
			"byteLength":14736,
			"byteOffset":0,
			"target":34962
		},
		{
			"buffer":0,
			"byteLength":14736,
			"byteOffset":14736,
			"target":34962
		},
		{
			"buffer":0,
			"byteLength":3816,
			"byteOffset":29472,
			"target":34963
		}
	],
	"buffers":[
		{
			"byteLength":33288,
			"uri":"WE_4.bin"
		}
	]
}
