{"accessors":[{"bufferView":0,"byteOffset":0,"componentType":5126,"count":84,"max":[0.3,0.38,4.99721918653356e-17],"min":[-0.0500000000000001,-0.38,-5.51091059616309e-17],"type":"VEC3"},{"bufferView":0,"byteOffset":1008,"componentType":5126,"count":4,"max":[-0.0499999999999999,0.34,0.0800000000000001],"min":[-0.0500000000000001,-0.34,-4.67064670676093e-17],"type":"VEC3"},{"bufferView":0,"byteOffset":1056,"componentType":5126,"count":4,"max":[0.26,0.38,0.0800000000000001],"min":[-0.00999999999999993,0.38,4.99721918653356e-17],"type":"VEC3"},{"bufferView":0,"byteOffset":1104,"componentType":5126,"count":4,"max":[0.3,0.34,0.0800000000000001],"min":[0.3,-0.34,-4.67064670676093e-17],"type":"VEC3"},{"bufferView":0,"byteOffset":1152,"componentType":5126,"count":4,"max":[0.26,-0.38,0.0799999999999999],"min":[-0.01,-0.38,-4.86708537913378e-17],"type":"VEC3"},{"bufferView":0,"byteOffset":1200,"componentType":5126,"count":32,"max":[0.3,0.38,0.0800000000000001],"min":[-0.0500000000000001,-0.38,0.0799999999999999],"type":"VEC3"},{"bufferView":0,"byteOffset":1584,"componentType":5126,"count":387,"max":[-1.83697019872103e-17,0.36,4.401611274874826e-17],"min":[-0.019995944579697026,-0.36,-0.3588344301749547],"type":"VEC3"},{"bufferView":0,"byteOffset":6228,"componentType":5126,"count":16,"max":[-0.00999999999999993,0.38,0.0800000000000001],"min":[-0.0499999999999999,0.34,4.272802936906152e-17],"type":"VEC3"},{"bufferView":0,"byteOffset":6420,"componentType":5126,"count":16,"max":[-0.01,-0.34,0.08],"min":[-0.0500000000000001,-0.38,-4.86708537913378e-17],"type":"VEC3"},{"bufferView":0,"byteOffset":6612,"componentType":5126,"count":16,"max":[0.3,0.38,0.0800000000000001],"min":[0.26,0.34,4.272802936906153e-17],"type":"VEC3"},{"bufferView":0,"byteOffset":6804,"componentType":5126,"count":16,"max":[0.3,-0.34,0.08],"min":[0.26,-0.38,-4.86708537913378e-17],"type":"VEC3"},{"bufferView":0,"byteOffset":6996,"componentType":5126,"count":410,"max":[0.01999954938420722,0.36,4.401611274874826e-17],"min":[-2.4620352507954503e-17,-0.36,-0.3587704174824012],"type":"VEC3"},{"bufferView":1,"byteOffset":0,"componentType":5126,"count":84,"type":"VEC3"},{"bufferView":1,"byteOffset":1008,"componentType":5126,"count":4,"type":"VEC3"},{"bufferView":1,"byteOffset":1056,"componentType":5126,"count":4,"type":"VEC3"},{"bufferView":1,"byteOffset":1104,"componentType":5126,"count":4,"type":"VEC3"},{"bufferView":1,"byteOffset":1152,"componentType":5126,"count":4,"type":"VEC3"},{"bufferView":1,"byteOffset":1200,"componentType":5126,"count":32,"type":"VEC3"},{"bufferView":1,"byteOffset":1584,"componentType":5126,"count":387,"type":"VEC3"},{"bufferView":1,"byteOffset":6228,"componentType":5126,"count":16,"type":"VEC3"},{"bufferView":1,"byteOffset":6420,"componentType":5126,"count":16,"type":"VEC3"},{"bufferView":1,"byteOffset":6612,"componentType":5126,"count":16,"type":"VEC3"},{"bufferView":1,"byteOffset":6804,"componentType":5126,"count":16,"type":"VEC3"},{"bufferView":1,"byteOffset":6996,"componentType":5126,"count":410,"type":"VEC3"},{"bufferView":2,"byteOffset":0,"componentType":5123,"count":258,"type":"SCALAR"},{"bufferView":2,"byteOffset":516,"componentType":5123,"count":6,"type":"SCALAR"},{"bufferView":2,"byteOffset":528,"componentType":5123,"count":6,"type":"SCALAR"},{"bufferView":2,"byteOffset":540,"componentType":5123,"count":6,"type":"SCALAR"},{"bufferView":2,"byteOffset":552,"componentType":5123,"count":6,"type":"SCALAR"},{"bufferView":2,"byteOffset":564,"componentType":5123,"count":90,"type":"SCALAR"},{"bufferView":2,"byteOffset":744,"componentType":5123,"count":2127,"type":"SCALAR"},{"bufferView":2,"byteOffset":5000,"componentType":5123,"count":42,"type":"SCALAR"},{"bufferView":2,"byteOffset":5084,"componentType":5123,"count":42,"type":"SCALAR"},{"bufferView":2,"byteOffset":5168,"componentType":5123,"count":42,"type":"SCALAR"},{"bufferView":2,"byteOffset":5252,"componentType":5123,"count":42,"type":"SCALAR"},{"bufferView":2,"byteOffset":5336,"componentType":5123,"count":2265,"type":"SCALAR"}],"asset":{"generator":"Open CASCADE Technology 7.6 [dev.opencascade.org]","version":"2.0"},"bufferViews":[{"buffer":0,"byteLength":11916,"byteOffset":0,"byteStride":12,"target":34962},{"buffer":0,"byteLength":11916,"byteOffset":11916,"byteStride":12,"target":34962},{"buffer":0,"byteLength":9868,"byteOffset":23832,"target":34963}],"buffers":[{"byteLength":33700,"uri":"WEA_3.bin"}],"materials":[{"name":"mat_0","pbrMetallicRoughness":{"baseColorFactor":[0.43415367603302,0.43415367603302,0.43415367603302,0.5],"metallicFactor":0.0},"doubleSided":true,"alphaMode":"BLEND"}],"meshes":[{"name":"Duga","primitives":[{"attributes":{"NORMAL":12,"POSITION":0},"indices":24,"material":0,"mode":4},{"attributes":{"NORMAL":13,"POSITION":1},"indices":25,"material":0,"mode":4},{"attributes":{"NORMAL":14,"POSITION":2},"indices":26,"material":0,"mode":4},{"attributes":{"NORMAL":15,"POSITION":3},"indices":27,"material":0,"mode":4},{"attributes":{"NORMAL":16,"POSITION":4},"indices":28,"material":0,"mode":4},{"attributes":{"NORMAL":17,"POSITION":5},"indices":29,"material":0,"mode":4},{"attributes":{"NORMAL":18,"POSITION":6},"indices":30,"material":0,"mode":4},{"attributes":{"NORMAL":19,"POSITION":7},"indices":31,"material":0,"mode":4},{"attributes":{"NORMAL":20,"POSITION":8},"indices":32,"material":0,"mode":4},{"attributes":{"NORMAL":21,"POSITION":9},"indices":33,"material":0,"mode":4},{"attributes":{"NORMAL":22,"POSITION":10},"indices":34,"material":0,"mode":4},{"attributes":{"NORMAL":23,"POSITION":11},"indices":35,"material":0,"mode":4}]}],"nodes":[{"mesh":0,"name":"Duga"}],"scene":0,"scenes":[{"nodes":[0]}]}